<?xml version="1.0" encoding="UTF-8" standalone="no"?>
<svg
   data-name="Layer 1"
   width="787.1693"
   height="730"
   viewBox="0 0 787.1693 730"
   version="1.1"
   id="svg343"
   sodipodi:docname="frameworks.svg"
   inkscape:version="1.2.1 (9c6d41e4, 2022-07-14)"
   xmlns:inkscape="http://www.inkscape.org/namespaces/inkscape"
   xmlns:sodipodi="http://sodipodi.sourceforge.net/DTD/sodipodi-0.dtd"
   xmlns:xlink="http://www.w3.org/1999/xlink"
   xmlns="http://www.w3.org/2000/svg"
   xmlns:svg="http://www.w3.org/2000/svg"
   xmlns:rdf="http://www.w3.org/1999/02/22-rdf-syntax-ns#"
   xmlns:cc="http://creativecommons.org/ns#"
   xmlns:dc="http://purl.org/dc/elements/1.1/">
  <sodipodi:namedview
     id="namedview345"
     pagecolor="#ffffff"
     bordercolor="#666666"
     borderopacity="1.0"
     inkscape:showpageshadow="2"
     inkscape:pageopacity="0.0"
     inkscape:pagecheckerboard="0"
     inkscape:deskcolor="#d1d1d1"
     showgrid="false"
     inkscape:zoom="1.2931507"
     inkscape:cx="362.68008"
     inkscape:cy="370.41313"
     inkscape:window-width="1729"
     inkscape:window-height="1318"
     inkscape:window-x="1225"
     inkscape:window-y="237"
     inkscape:window-maximized="0"
     inkscape:current-layer="svg343" />
  <defs
     id="defs197">
    <linearGradient
       id="linearGradient13485"
       x1="278.97312"
       y1="470.29515"
       x2="278.97312"
       y2="199.61685"
       gradientUnits="userSpaceOnUse">
      <stop
         offset="0.53514"
         stop-color="gray"
         stop-opacity="0.12"
         id="stop13481" />
      <stop
         offset="1"
         stop-color="gray"
         stop-opacity="0.1"
         id="stop13483" />
    </linearGradient>
    <linearGradient
       id="a3c4672e-2259-4d6c-8c24-5949363a8af1-23"
       x1="278.97312"
       y1="470.29515"
       x2="278.97312"
       y2="199.61685"
       gradientUnits="userSpaceOnUse">
      <stop
         offset="0"
         stop-color="gray"
         stop-opacity="0.25"
         id="stop182" />
      <stop
         offset="0.53514"
         stop-color="gray"
         stop-opacity="0.12"
         id="stop184" />
      <stop
         offset="1"
         stop-color="gray"
         stop-opacity="0.1"
         id="stop186" />
    </linearGradient>
    <linearGradient
       id="acf699b8-10e6-407b-86e3-0f7f8fa4bdb6-24"
       x1="191.7952"
       y1="163.03871"
       x2="191.7952"
       y2="0"
       xlink:href="#a3c4672e-2259-4d6c-8c24-5949363a8af1-23"
       gradientTransform="matrix(1,0,0,0.99060299,-63.411026,-381.64112)" />
    <linearGradient
       id="b28a1e8f-be05-408d-a6f5-6fd2e5b0337f-25"
       x1="563.67304"
       y1="215.46739"
       x2="563.67304"
       y2="0.87558"
       xlink:href="#linearGradient13485" />
    <linearGradient
       id="f1fc4b36-2829-4464-83b0-fd2af5b19fd6-26"
       x1="639.87752"
       y1="470.29515"
       x2="639.87752"
       y2="255.70335"
       xlink:href="#a3c4672e-2259-4d6c-8c24-5949363a8af1-23" />
    <linearGradient
       id="bb60ebe1-81e2-422a-a970-aa43062904da-27"
       x1="453.7012"
       y1="780.90233"
       x2="453.7012"
       y2="650.04347"
       gradientTransform="matrix(-1, 0, 0, 1, 1039.58465, -85)"
       xlink:href="#a3c4672e-2259-4d6c-8c24-5949363a8af1-23" />
    <linearGradient
       id="a1b2f907-b002-48c8-973d-a12b277f13d1-28"
       x1="488.7343"
       y1="780.90233"
       x2="488.7343"
       y2="650.04347"
       gradientTransform="matrix(-1, 0, 0, 1, 1039.58465, -85)"
       xlink:href="#a3c4672e-2259-4d6c-8c24-5949363a8af1-23" />
    <linearGradient
       id="a8136d5f-4c26-4562-977f-ea29024932d1-29"
       x1="235.31858"
       y1="696.90233"
       x2="235.31858"
       y2="566.04347"
       xlink:href="#a3c4672e-2259-4d6c-8c24-5949363a8af1-23" />
    <linearGradient
       id="eaaf4b84-3353-429f-a894-84d4b3cd89b7-30"
       x1="270.35167"
       y1="696.90233"
       x2="270.35167"
       y2="566.04347"
       xlink:href="#a3c4672e-2259-4d6c-8c24-5949363a8af1-23" />
    <linearGradient
       id="fa1ca12c-a5d3-4b88-b665-ae3e1db189da-31"
       x1="319.81014"
       y1="696.88015"
       x2="319.81014"
       y2="561.94405"
       xlink:href="#a3c4672e-2259-4d6c-8c24-5949363a8af1-23" />
    <linearGradient
       id="b28a1e8f-be05-408d-a6f5-6fd2e5b0337f-25-8"
       x1="563.67303"
       y1="215.46739"
       x2="563.67303"
       y2="0.87558001"
       xlink:href="#a3c4672e-2259-4d6c-8c24-5949363a8af1-23"
       gradientTransform="translate(3.5783565e-6)" />
  </defs>
  <title
     id="title199">JavaScript frameworks</title>
  <path
     d="M969.07624,674.78716c0,45.23881-26.89446,61.0365-60.06793,61.0365-.77234,0-1.54052-.00836-2.3045-.02923-1.53635-.0334-3.06018-.10019-4.56313-.20874-29.94213-2.11666-53.20445-18.72843-53.20445-60.79853,0-43.53546,55.62587-98.47249,59.8216-102.55134l.00836-.00418c.15865-.15862.24212-.23794.24212-.23794S969.07624,629.54417,969.07624,674.78716Z"
     transform="translate(-206.41535 -85)"
     fill="#3f3d56"
     id="path201" />
  <path
     d="M906.81651,728.90173,928.78882,698.204l-22.02658,34.06687-.05843,3.52358c-1.53635-.0334-3.06018-.10019-4.56313-.20874l2.36714-45.25968-.01671-.3507.04176-.06678.22126-4.27508L882.6733,651.47889l22.14764,30.94826.05427.906,1.791-34.19632-18.90376-35.2901,19.13337,29.28247,1.862-70.89335.00836-.24212v.23794l-.309,55.90561,18.81611-22.16436-18.89543,26.978-.49679,30.61846,17.572-29.38269L907.806,668.07815l-.27553,17.02093,25.5084-40.90115-25.60441,46.842Z"
     transform="translate(-206.41535 -85)"
     fill="#f2f2f2"
     id="path203" />
  <path
     d="M345,723.419c0,27.107-16.11508,36.57288-35.99252,36.57288-.46278,0-.92308-.005-1.38085-.01751-.92058-.02-1.83365-.06-2.73421-.12508-17.94123-1.26829-31.88-11.222-31.88-36.43029,0-26.08631,33.33085-59.00441,35.84492-61.44845l.005-.0025c.09506-.095.14508-.14258.14508-.14258S345,696.30954,345,723.419Z"
     transform="translate(-206.41535 -85)"
     fill="#3f3d56"
     id="path205" />
  <path
     d="M307.69416,755.84428l13.16574-18.394-13.19826,20.41276-.035,2.11132c-.92058-.02-1.83365-.06-2.73421-.12508l1.41838-27.11946-.01-.21013.025-.04.13258-2.56162-13.23077-20.4653,13.2708,18.5441.03252.54285,1.07317-20.49033L296.277,686.90366l11.46466,17.546,1.1157-42.47908.005-.14508v.14258l-.18513,33.49847,11.27456-13.28082-11.32209,16.16511-.29767,18.34649,10.52908-17.606L308.287,719.399l-.1651,10.19889L323.40649,705.09,308.0644,733.15759Z"
     transform="translate(-206.41535 -85)"
     fill="#f2f2f2"
     id="path207" />
  <rect
     x="476.40891"
     y="286.14655"
     width="284.09027"
     height="167.0554"
     fill="url(#a3c4672e-2259-4d6c-8c24-5949363a8af1-23)"
     id="rect209"
     style="fill:#e0e0e0;stroke-width:0.785604;fill-opacity:1" />
  <rect
     x="482.50528"
     y="293.78952"
     width="271.89758"
     height="151.76947"
     fill="#ffffff"
     id="rect211"
     style="stroke-width:0.766256" />
  <rect
     x="492.25943"
     y="303.54367"
     width="252.38922"
     height="132.26114"
     fill="#2d80d3"
     id="rect213"
     style="stroke-width:0.74394" />
  <g
     opacity="0.5"
     id="g223"
     transform="matrix(1,0,0,1.0094862,63.411026,385.26142)"
     style="fill:#e0e0e0;fill-opacity:1;opacity:1">
    <rect
       x="5.2466502"
       width="373.09711"
       height="163.03871"
       fill="url(#acf699b8-10e6-407b-86e3-0f7f8fa4bdb6-24)"
       id="rect221"
       style="fill:#e0e0e0;fill-opacity:1"
       y="0" />
  </g>
  <rect
     x="73.534744"
     y="389.52069"
     width="363.34293"
     height="156.06676"
     fill="#ffffff"
     id="rect225" />
  <rect
     x="83.97477"
     y="399.27487"
     width="342.46292"
     height="136.55843"
     fill="#2d80d3"
     id="rect227" />
  <rect
     x="540.37714"
     y="16.87558"
     width="214.5918"
     height="214.5918"
     fill="url(#b28a1e8f-be05-408d-a6f5-6fd2e5b0337f-25)"
     id="rect239"
     style="fill:#e0e0e0;fill-opacity:1" />
  <rect
     x="546.47351"
     y="22.971939"
     width="202.39909"
     height="202.39909"
     fill="#ffffff"
     id="rect241" />
  <rect
     x="556.22766"
     y="32.72612"
     width="182.89075"
     height="182.89075"
     fill="#2d80d3"
     id="rect243" />
  <rect
     x="301.00916"
     y="9.4731646"
     width="190.61934"
     height="190.61934"
     fill="url(#b28a1e8f-be05-408d-a6f5-6fd2e5b0337f-25)"
     id="rect239-4"
     style="fill:#e0e0e0;stroke-width:0.888288;fill-opacity:1" />
  <rect
     x="306.4245"
     y="14.888488"
     width="179.78871"
     height="179.78871"
     fill="#ffffff"
     id="rect241-9"
     style="stroke-width:0.888288" />
  <rect
     x="315.08899"
     y="23.553009"
     width="162.45967"
     height="162.45967"
     fill="#2d80d3"
     id="rect243-1"
     style="stroke-width:0.888288" />
  <rect
     x="30.62262"
     y="167.26736"
     width="255.47798"
     height="192.97908"
     fill="url(#f1fc4b36-2829-4464-83b0-fd2af5b19fd6-26)"
     id="rect251"
     style="fill:#e0e0e0;stroke-width:0.899285;fill-opacity:1" />
  <rect
     x="36.104996"
     y="172.74971"
     width="244.51329"
     height="182.01437"
     fill="#ffffff"
     id="rect253"
     style="stroke-width:0.899285" />
  <rect
     x="44.876778"
     y="181.52148"
     width="226.96973"
     height="164.47083"
     fill="#2d80d3"
     id="rect255"
     style="stroke-width:0.899285" />
  <g
     opacity="0.7"
     id="g273">
    <g
       opacity="0.1"
       id="g267">
      <polygon
         points="602.37 565.043 602.37 583.59 602.37 589.773 602.37 672.203 602.37 678.386 602.37 695.902 577.64 695.902 569.397 695.902 569.397 678.386 569.397 672.203 569.397 589.773 569.397 583.59 569.397 565.043 577.64 565.043 602.37 565.043"
         fill="url(#bb60ebe1-81e2-422a-a970-aa43062904da-27)"
         id="polygon265" />
    </g>
    <g
       opacity="0.1"
       id="g271">
      <polygon
         points="567.337 565.043 567.337 583.59 567.337 589.773 567.337 672.203 567.337 678.386 567.337 695.902 542.607 695.902 534.364 695.902 534.364 678.386 534.364 672.203 534.364 589.773 534.364 583.59 534.364 565.043 542.607 565.043 567.337 565.043"
         fill="url(#a1b2f907-b002-48c8-973d-a12b277f13d1-28)"
         id="polygon269" />
    </g>
  </g>
  <rect
     x="56.36379"
     y="660.51622"
     width="86.63529"
     height="36.86608"
     rx="14.2973"
     fill="#2d80d3"
     id="rect275" />
  <g
     opacity="0.7"
     id="g289">
    <g
       opacity="0.1"
       id="g279">
      <polygon
         points="218.832 566.043 218.832 584.59 218.832 590.773 218.832 673.203 218.832 679.386 218.832 696.902 243.562 696.902 251.805 696.902 251.805 679.386 251.805 673.203 251.805 590.773 251.805 584.59 251.805 566.043 243.562 566.043 218.832 566.043"
         fill="url(#a8136d5f-4c26-4562-977f-ea29024932d1-29)"
         id="polygon277" />
    </g>
    <g
       opacity="0.1"
       id="g283">
      <polygon
         points="253.866 566.043 253.866 584.59 253.866 590.773 253.866 673.203 253.866 679.386 253.866 696.902 278.595 696.902 286.838 696.902 286.838 679.386 286.838 673.203 286.838 590.773 286.838 584.59 286.838 566.043 278.595 566.043 253.866 566.043"
         fill="url(#eaaf4b84-3353-429f-a894-84d4b3cd89b7-30)"
         id="polygon281" />
    </g>
    <g
       opacity="0.1"
       id="g287">
      <polygon
         points="352.601 688.383 325.251 585.838 325.251 585.838 323.658 579.865 323.658 579.865 318.878 561.944 287.019 570.441 291.799 588.362 291.799 588.362 293.068 593.119 314.635 673.982 314.635 673.982 316.228 679.955 316.228 679.955 320.742 696.88 352.601 688.383"
         fill="url(#fa1ca12c-a5d3-4b88-b665-ae3e1db189da-31)"
         id="polygon285" />
    </g>
  </g>
  <rect
     x="222.20723"
     y="569.24144"
     width="31.30861"
     height="124.25606"
     fill="#535461"
     id="rect291" />
  <rect
     x="222.20723"
     y="586.85254"
     width="31.30861"
     height="5.87037"
     fill="#2d80d3"
     id="rect293" />
  <rect
     x="222.20723"
     y="670.99444"
     width="31.30861"
     height="5.87037"
     fill="#2d80d3"
     id="rect295" />
  <rect
     x="245.68869"
     y="569.24144"
     width="7.82715"
     height="124.25606"
     opacity="0.1"
     id="rect297" />
  <rect
     x="255.47264"
     y="569.24144"
     width="31.30861"
     height="124.25606"
     fill="#535461"
     id="rect299" />
  <rect
     x="255.47264"
     y="586.85254"
     width="31.30861"
     height="5.87037"
     fill="#2d80d3"
     id="rect301" />
  <rect
     x="255.47264"
     y="670.99444"
     width="31.30861"
     height="5.87037"
     fill="#2d80d3"
     id="rect303" />
  <rect
     x="278.9541"
     y="569.24144"
     width="7.82715"
     height="124.25606"
     opacity="0.1"
     id="rect305" />
  <rect
     x="508.8509"
     y="652.28465"
     width="31.30861"
     height="124.25606"
     transform="translate(-372.80777 74.29859) rotate(-14.93399)"
     fill="#535461"
     id="rect307" />
  <rect
     x="498.13504"
     y="671.30024"
     width="31.30861"
     height="5.87037"
     transform="translate(-362.8158 70.17999) rotate(-14.93399)"
     fill="#2d80d3"
     id="rect309" />
  <rect
     x="519.81891"
     y="752.60011"
     width="31.30861"
     height="5.87037"
     transform="translate(-383.03485 78.51409) rotate(-14.93399)"
     fill="#2d80d3"
     id="rect311" />
  <rect
     x="531.9358"
     y="649.259"
     width="7.82715"
     height="124.25606"
     transform="translate(-371.64487 77.11985) rotate(-14.93399)"
     opacity="0.1"
     id="rect313" />
  <rect
     x="773.27903"
     y="654.24144"
     width="31.30861"
     height="124.25606"
     transform="translate(1371.45134 1347.73895) rotate(-180)"
     fill="#535461"
     id="rect315" />
  <rect
     x="773.27903"
     y="671.85254"
     width="31.30861"
     height="5.87037"
     transform="translate(1371.45134 1264.57544) rotate(-180)"
     fill="#2d80d3"
     id="rect317" />
  <rect
     x="773.27903"
     y="755.99444"
     width="31.30861"
     height="5.87037"
     transform="translate(1371.45134 1432.85924) rotate(-180)"
     fill="#2d80d3"
     id="rect319" />
  <rect
     x="773.27903"
     y="654.24144"
     width="7.82715"
     height="124.25606"
     transform="translate(1347.96988 1347.73895) rotate(-180)"
     opacity="0.1"
     id="rect321" />
  <rect
     x="740.01363"
     y="654.24144"
     width="31.30861"
     height="124.25606"
     transform="translate(1304.92053 1347.73895) rotate(-180)"
     fill="#535461"
     id="rect323" />
  <rect
     x="740.01363"
     y="671.85254"
     width="31.30861"
     height="5.87037"
     transform="translate(1304.92053 1264.57544) rotate(-180)"
     fill="#2d80d3"
     id="rect325" />
  <rect
     x="740.01363"
     y="755.99444"
     width="31.30861"
     height="5.87037"
     transform="translate(1304.92053 1432.85924) rotate(-180)"
     fill="#2d80d3"
     id="rect327" />
  <rect
     x="740.01363"
     y="654.24144"
     width="7.82715"
     height="124.25606"
     transform="translate(1281.43907 1347.73895) rotate(-180)"
     opacity="0.1"
     id="rect329" />
  <path
     d="M848.65412,719.16264H962.16574s22.39345,28.571-12.355,71.04128H860.23694S827.80505,760.86078,848.65412,719.16264Z"
     transform="translate(-206.41535 -85)"
     fill="#2d80d3"
     id="path331" />
  <g
     opacity="0.1"
     id="g335">
    <path
       d="M962.16574,719.16264H848.65412c-.2586.51721-.50274,1.031-.74508,1.54438H958.3048s21.844,27.88077-11.11731,69.4969h2.62324C984.55919,747.73359,962.16574,719.16264,962.16574,719.16264Z"
       transform="translate(-206.41535 -85)"
       id="path333" />
  </g>
  <rect
     y="692.40023"
     width="787.1693"
     height="26.68371"
     fill="#e0e0e0"
     id="rect337" />
  <rect
     x="33.35463"
     y="719.08394"
     width="720.46004"
     height="10.91606"
     fill="#e0e0e0"
     id="rect339" />
  <rect
     x="33.35463"
     y="719.08394"
     width="720.46004"
     height="3.63869"
     opacity="0.1"
     id="rect341" />
  <path
     d="m 203.2784,195.16466 c -0.2828,-0.44242 -0.2828,-0.44242 -0.2828,-0.44236 l -7e-4,3.4e-4 v 0.002 l -0.0112,0.007 c -0.01,0.006 -0.0252,0.0158 -0.0449,0.0285 -0.0408,0.0252 -0.10007,0.063 -0.17992,0.11233 -0.15815,0.0987 -0.39404,0.24389 -0.69988,0.42884 -0.61174,0.3699 -1.50418,0.89871 -2.62688,1.53254 -2.24535,1.26791 -5.40686,2.9547 -9.07029,4.62997 -7.34574,3.35944 -16.6338,6.6367 -24.58566,6.46102 -4.01548,-0.0888 -7.352,-0.4231 -10.4968,-0.75382 -0.17219,-0.0181 -0.34362,-0.0362 -0.51511,-0.0542 -2.95161,-0.31133 -5.766,-0.6081 -8.824,-0.67228 -6.48898,-0.13627 -14.04189,0.77475 -26.46773,4.73872 -12.53005,3.99378 -20.55474,12.12111 -26.332611,19.86461 -2.242529,3.00555 -4.154722,5.96463 -5.854908,8.59579 -0.486452,0.75291 -0.956055,1.47896 -1.410351,2.17152 -2.064727,3.14569 -3.798474,5.5491 -5.501387,6.78425 -3.594813,2.60659 -11.026655,8.151 -17.555589,13.04117 -3.2651,2.44554 -6.306321,4.72801 -8.531368,6.39943 -1.112179,0.83571 -2.019991,1.51884 -2.650622,1.99269 -0.314966,0.23727 -0.560616,0.42136 -0.727263,0.54735 l -0.189611,0.14278 -0.04912,0.0364 -0.01194,0.009 v 0.003 6.9e-4 c 0,0 0,0 0.234412,0.31147 v 0 l -0.234412,-0.31147 -0.253381,0.19039 0.05124,0.31356 0.04913,0.30097 0.09727,0.59983 0.580276,-0.18407 18.310031,-5.83039 c -0.692215,0.73843 -1.630089,1.76801 -2.819307,3.13707 -2.82555,3.25186 -7.070662,8.41942 -12.818405,16.14381 -0.0393,-0.0357 -0.08053,-0.0742 -0.124575,-0.11479 l -1.162598,-1.06949 0.291157,1.55244 0.02103,0.11199 0.01891,0.10289 0.05757,0.0881 0.128091,-0.084 v 7.1e-4 c -0.127393,0.0833 -0.127393,0.0833 -0.127393,0.0833 v 7e-4 0.003 l 0.0073,0.008 c 0.0073,0.007 0.01267,0.0189 0.02176,0.0329 0.01965,0.0294 0.04775,0.0707 0.08466,0.12529 0.07346,0.10849 0.181954,0.26598 0.323386,0.46545 0.282737,0.39826 0.695668,0.9624 1.220676,1.63083 1.048482,1.33476 2.547671,3.08948 4.346519,4.763 1.795332,1.67072 3.907668,3.27705 6.184548,4.29404 2.281095,1.0191 4.756704,1.45936 7.243562,0.74332 v -7e-4 0 c 0.910558,-0.26526 1.914296,-0.68312 2.991426,-1.21927 3.763499,2.06689 8.644787,4.08128 14.039155,4.64612 l 1.314426,0.13789 -0.861608,-1.00231 h -7.07e-4 v -6.9e-4 -0.002 l -0.0073,-0.008 c -0.0073,-0.008 -0.01754,-0.0203 -0.03094,-0.0357 -0.02736,-0.0321 -0.0674,-0.0798 -0.119662,-0.14208 -0.104989,-0.12459 -0.258992,-0.30797 -0.453525,-0.54455 -0.389195,-0.47175 -0.940051,-1.15277 -1.586061,-1.98358 -1.214349,-1.56294 -2.76123,-3.65433 -4.201634,-5.89549 0.480135,-0.31077 0.966596,-0.62713 1.457896,-0.94699 l 7.506769,2.7584 0.802052,0.29467 -0.09937,-0.84831 -0.763569,-6.50441 6.885128,2.52953 0.825227,0.30307 -0.124583,-0.87001 -0.891734,-6.24544 c 0.848339,-0.43746 1.689647,-0.85181 2.530247,-1.23888 l 0.22536,-0.10288 0.0632,-0.23937 7.87348,-29.78188 31.18455,-21.2716 -1.96893,4.95316 c 0,7.1e-4 -7e-4,0.002 -7e-4,0.002 -3.28125,8.06924 -7.99597,13.04411 -11.87913,16.00046 -1.94302,1.47922 -3.67881,2.45408 -4.92469,3.05769 -0.62291,0.30181 -1.12335,0.51067 -1.46492,0.64323 -0.17079,0.0664 -0.3024,0.11353 -0.3892,0.14377 -0.0442,0.0152 -0.0763,0.026 -0.0973,0.0328 l -0.009,0.003 c -0.007,0.002 -0.0106,0.004 -0.0133,0.005 l -0.007,0.002 -7e-4,7e-5 v 7e-5 7e-5 l -0.0154,0.005 -0.0154,0.006 -5.20749,1.9738 -0.12668,0.0482 -0.0883,0.10374 c -0.20646,0.24455 -0.40801,0.48007 -0.60332,0.70937 -1.62173,1.89799 -2.87667,3.36672 -3.8545,5.93174 -1.08627,2.84939 -1.83031,7.03706 -2.49521,14.72016 l -0.0639,0.73422 0.71463,-0.17989 c 3.06916,-0.77062 5.95427,-0.94349 8.54049,-0.24706 6.81518,1.8366 11.4221,6.86696 13.86415,12.03593 1.22067,2.58412 1.89119,5.18364 2.02911,7.40592 0.13997,2.24326 -0.26671,4.01337 -1.08843,5.03107 -0.89026,1.10028 -3.03279,3.01318 -5.80729,5.31314 h -5.49444 -0.51651 l -0.008,0.51585 -0.0727,4.35424 c 0,0.002 0,0.002 0,0.003 -0.0791,0.0616 -0.16095,0.12458 -0.24073,0.18758 h -5.59732 -0.51658 l -0.008,0.51654 -0.066,4.23946 c -0.24432,0.18549 -0.48646,0.36746 -0.72797,0.54804 -0.14769,0.11129 -0.29467,0.22118 -0.44165,0.33247 -2.54563,0.004 -5.45244,-1.08209 -7.78389,-2.22017 -1.18218,-0.57674 -2.19773,-1.15768 -2.91727,-1.59373 -0.35976,-0.21838 -0.6446,-0.39966 -0.8392,-0.52635 -0.0973,-0.063 -0.17219,-0.11268 -0.22192,-0.14628 -0.0253,-0.0168 -0.0435,-0.0294 -0.0562,-0.0377 l -0.0112,-0.007 v -0.002 l -0.007,-0.002 -6.9e-4,-7e-4 v 0 L 99.625,313.996 v 0.9988 c 0,2.26636 0.93443,5.08565 1.83453,7.28903 0.45422,1.11218 0.90781,2.08718 1.24792,2.78431 0.17079,0.34856 0.31293,0.62783 0.4123,0.82101 0,0.002 0,0.004 0,0.005 l -0.21489,0.15329 0.45913,0.30586 0.14839,0.27507 0.15541,-0.0734 c 0.0133,0.008 0.0274,0.0174 0.0422,0.0274 0.11123,0.0713 0.27437,0.17497 0.48435,0.30587 0.42065,0.26176 1.03029,0.62993 1.79042,1.06039 1.51878,0.8595 3.64236,1.96958 6.05715,2.96768 2.41263,0.99669 5.13045,1.8877 7.83634,2.29996 2.70245,0.41225 5.43004,0.35206 7.83501,-0.59144 2.08642,-0.81821 4.96809,-2.48054 8.36971,-4.60761 2.33776,-1.46215 4.94147,-3.15738 7.7251,-4.96948 1.27595,-0.83081 2.58904,-1.68612 3.93219,-2.55474 8.55025,-5.53011 18.31845,-11.61947 27.35938,-15.53416 l 55.01071,-14.49268 0.2597,-0.0679 0.0966,-0.25058 7.25825,-18.80701 0.3696,-0.95821 -0.99322,0.26178 -41.29495,10.87825 v -15.80364 l 48.83459,-12.86661 0.25963,-0.0683 0.0966,-0.25029 7.25824,-18.80703 0.36953,-0.95834 -0.99321,0.26178 -55.81144,14.70685 v -15.8105 l 63.33709,-16.68821 0.25964,-0.0683 0.0966,-0.25022 6.76125,-17.51213 0.0618,-0.16042 -0.0449,-0.16596 -0.29398,-1.08489 -0.13644,-0.50312 -0.50395,0.1328 -65.56003,17.27317 c 3.02857,-4.77798 4.07565,-9.07468 4.34096,-12.2618 0.14277,-1.71937 0.0576,-3.11275 -0.0646,-4.08149 -0.0618,-0.48441 -0.1316,-0.86283 -0.18758,-1.12304 -0.0281,-0.1301 -0.0527,-0.23069 -0.0707,-0.30021 -0.008,-0.0348 -0.0162,-0.0618 -0.021,-0.0808 0,-0.01 -0.007,-0.0171 -0.007,-0.0226 v -0.007 l -7e-4,-0.002 -7.1e-4,-7.1e-4 c 0,-3.5e-4 0,-6.2e-4 -0.50323,0.14841 z m 0,0 -0.2828,-0.44242 0.58793,-0.3754 0.19811,0.66877 z m -0.50331,0.14831 c -6.4e-4,-1.4e-4 -6.4e-4,-1.4e-4 0,1e-5 z m -43.26874,55.65508 12.2823,-3.23842 -3.90697,10.12219 -12.2837,3.23919 z m 7.62784,11.58623 -3.90704,10.12934 -12.2837,3.23926 3.90844,-10.13073 z m 17.63811,-3.78681 -3.90697,10.12955 -12.2837,3.23926 3.90837,-10.13073 z"
     fill="#000000"
     stroke="#ffffff"
     stroke-width="1.04989"
     id="path572"
     style="fill:#3f3d56;fill-opacity:1;stroke-width:2.45;stroke-dasharray:none" />
  <path
     d="m 564.2657,191.91626 c 1.20977,-3.0183 14.8523,-35.83566 30.31672,-72.92745 l 28.11716,-67.439622 14.65095,-0.41331 c 11.18548,-0.315559 14.64826,0.02756 14.63964,1.450314 -0.006,1.024996 -13.3098,33.84306 -29.5635,72.929038 l -29.55216,71.06541 -15.40419,0.41173 -15.40418,0.4117 z m 48.55009,-15.27745 c 4.68226,-11.36684 18.30337,-44.16207 30.26914,-72.8783 l 21.75594,-52.211322 6.09872,-0.455283 c 5.36787,-0.400736 5.9838,-0.1401 5.13979,2.175472 -0.52741,1.446907 -14.15554,34.446536 -30.28475,73.332483 l -29.32586,70.70172 -6.08308,10e-4 -6.08309,0.001 z m 81.96996,-74.19871 c -8.64674,-4.419239 -13.42442,-10.923551 -14.66337,-19.962621 -1.08068,-7.884389 1.12322,-15.486806 6.25888,-21.59018 11.61518,-13.803861 34.82715,-11.459196 43.75142,4.419369 4.81247,8.562657 4.01236,22.011772 -1.75974,29.579383 -8.12241,10.649049 -21.60037,13.680369 -33.58719,7.554049 z"
     style="fill:#3f3d56;fill-opacity:1;stroke:#ffffff;stroke-width:2.45;stroke-opacity:1;stroke-dasharray:none"
     id="path1859" />
  <path
     style="fill:#ffffff;fill-opacity:1;stroke:#ffffff;stroke-width:5;stroke-dasharray:none;stroke-opacity:1"
     d="m 606.75632,421.37799 c -12.39052,-1.07523 -22.05199,-8.01241 -25.81298,-18.53439 -3.0759,-8.60534 -2.92213,-22.53584 0.34455,-31.21462 4.17955,-11.10405 14.28855,-18.63409 26.70573,-19.89269 13.34663,-1.35281 25.67532,3.45458 31.5122,12.28772 3.79245,5.73922 5.32529,11.93924 5.32529,21.53963 0,13.97682 -4.28339,23.4701 -13.62082,30.18788 -6.37333,4.58524 -14.61105,6.48062 -24.45397,5.62647 z m 9.98384,-1.98564 c 8.31457,-2.21338 14.86164,-10.50795 17.37824,-22.01667 1.0045,-4.59377 1.33571,-15.39477 0.63095,-20.57626 -1.09786,-8.07176 -3.08638,-12.86896 -7.15683,-17.26554 -1.85047,-1.99873 -3.56101,-3.27362 -6.02837,-4.49306 -3.05327,-1.50901 -3.92114,-1.72305 -7.63545,-1.88317 -2.80045,-0.12073 -5.06568,0.0488 -6.82846,0.511 -8.55766,2.24384 -15.05912,10.38677 -17.61049,22.05679 -1.00749,4.60823 -1.34004,15.40394 -0.63435,20.59235 1.07673,7.91637 3.06422,12.80185 6.92771,17.02911 4.15262,4.54364 8.87246,6.66317 14.87243,6.67875 2.01843,0.006 4.75651,-0.27974 6.08462,-0.6333 z m 54.49712,1.98941 c -7.88078,-0.88908 -12.598,-4.48205 -14.91517,-11.36045 -1.31317,-3.89811 -1.64358,-7.68597 -0.92992,-10.66086 0.79439,-3.31138 4.14107,-6.72235 8.03181,-8.18611 5.85321,-2.20208 19.89637,-3.95598 29.01627,-3.62396 l 4.25894,0.15506 -0.0526,-12.73331 -0.0526,-12.73327 -1.4539,-2.86363 c -1.64788,-3.24564 -3.31506,-4.57651 -7.11806,-5.68206 -5.40454,-1.57115 -16.89651,-0.0487 -25.07091,3.32152 -3.52468,1.45316 -3.58607,1.4635 -3.7706,0.63467 -0.17113,-0.76862 0.61285,-1.13586 6.86316,-3.21485 5.91235,-1.96656 11.59852,-2.82325 18.69723,-2.81696 11.33845,0.0101 16.40795,1.9004 20.02234,7.46615 l 1.30872,2.01526 0.22936,26.37711 c 0.22717,26.1251 0.23913,26.39693 1.25177,28.45143 1.37946,2.79873 2.96343,3.65984 6.73213,3.65984 2.48193,0 3.02567,0.1334 3.02567,0.74235 0,0.65667 -0.67491,0.71688 -5.84883,0.52183 -6.7866,-0.25586 -9.13717,-0.94945 -11.73549,-3.46283 -2.23957,-2.16634 -3.05864,-3.7423 -3.05864,-5.88503 v -1.70699 l -1.41794,2.14069 c -4.69736,7.09173 -13.65121,10.61336 -24.01266,9.4444 z m 13.97022,-3.00741 c 3.59557,-1.69195 7.3669,-5.00294 9.58818,-8.41783 l 1.64284,-2.5256 0.1556,-9.02184 0.1556,-9.02184 -2.65072,-0.33118 c -5.63817,-0.70445 -16.57443,0.55598 -21.77407,2.50949 -3.01359,1.13221 -4.58441,2.64066 -6.01201,5.77326 -2.29813,5.04288 -0.85289,15.14898 2.73561,19.12913 2.61056,2.89547 4.61501,3.64288 9.27799,3.45947 3.19824,-0.1258 4.44673,-0.40759 6.88098,-1.55306 z M 519.59716,369.35614 v -51.60742 h 4.81375 4.81377 l 0.11761,33.96427 0.11762,33.96426 14.85523,-16.76179 c 10.14504,-11.44707 15.14458,-16.76179 15.76777,-16.76179 1.15819,0 1.98653,-1.02879 -10.82953,13.45017 l -10.48425,11.84462 2.5137,3.75229 c 1.38253,2.06376 7.99766,11.80305 14.70027,21.64285 l 12.18659,17.89057 -4.87208,0.13103 c -3.51861,0.0947 -5.02686,-0.0328 -5.42918,-0.45873 -0.3064,-0.32437 -5.87512,-8.43409 -12.37494,-18.0216 -6.49982,-9.5875 -12.00998,-17.63826 -12.24481,-17.89056 -0.27611,-0.29667 -1.06088,0.27055 -2.2213,1.60555 l -1.79435,2.0643 -10e-4,16.39969 -10e-4,16.39968 h -4.81673 -4.8167 z"
     id="path5017-3" />
  <path
     style="fill:#3f3d56;fill-opacity:1;stroke:#3f3d56;stroke-width:2;stroke-dasharray:none;stroke-opacity:1"
     d="m 606.75632,421.37707 c -12.39052,-1.07523 -22.05199,-8.01241 -25.81298,-18.53439 -3.0759,-8.60534 -2.92213,-22.53584 0.34455,-31.21462 4.17955,-11.10405 14.28855,-18.63409 26.70573,-19.89269 13.34663,-1.35281 25.67532,3.45458 31.5122,12.28772 3.79245,5.73922 5.32529,11.93924 5.32529,21.53963 0,13.97682 -4.28339,23.4701 -13.62082,30.18788 -6.37333,4.58524 -14.61105,6.48062 -24.45397,5.62647 z m 9.98384,-1.98564 c 8.31457,-2.21338 14.86164,-10.50795 17.37824,-22.01667 1.0045,-4.59377 1.33571,-15.39477 0.63095,-20.57626 -1.09786,-8.07176 -3.08638,-12.86896 -7.15683,-17.26554 -1.85047,-1.99873 -3.56101,-3.27362 -6.02837,-4.49306 -3.05327,-1.50901 -3.92114,-1.72305 -7.63545,-1.88317 -2.80045,-0.12073 -5.06568,0.0488 -6.82846,0.511 -8.55766,2.24384 -15.05912,10.38677 -17.61049,22.05679 -1.00749,4.60823 -1.34004,15.40394 -0.63435,20.59235 1.07673,7.91637 3.06422,12.80185 6.92771,17.02911 4.15262,4.54364 8.87246,6.66317 14.87243,6.67875 2.01843,0.006 4.75651,-0.27974 6.08462,-0.6333 z m 54.49712,1.98941 c -7.88078,-0.88908 -12.598,-4.48205 -14.91517,-11.36045 -1.31317,-3.89811 -1.64358,-7.68597 -0.92992,-10.66086 0.79439,-3.31138 4.14107,-6.72235 8.03181,-8.18611 5.85321,-2.20208 19.89637,-3.95598 29.01627,-3.62396 l 4.25894,0.15506 -0.0526,-12.73331 -0.0526,-12.73327 -1.4539,-2.86363 c -1.64788,-3.24564 -3.31506,-4.57651 -7.11806,-5.68206 -5.40454,-1.57115 -16.89651,-0.0487 -25.07091,3.32152 -3.52468,1.45316 -3.58607,1.4635 -3.7706,0.63467 -0.17113,-0.76862 0.61285,-1.13586 6.86316,-3.21485 5.91235,-1.96656 11.59852,-2.82325 18.69723,-2.81696 11.33845,0.0101 16.40795,1.9004 20.02234,7.46615 l 1.30872,2.01526 0.22936,26.37711 c 0.22717,26.1251 0.23913,26.39693 1.25177,28.45143 1.37946,2.79873 2.96343,3.65984 6.73213,3.65984 2.48193,0 3.02567,0.1334 3.02567,0.74235 0,0.65667 -0.67491,0.71688 -5.84883,0.52183 -6.7866,-0.25586 -9.13717,-0.94945 -11.73549,-3.46283 -2.23957,-2.16634 -3.05864,-3.7423 -3.05864,-5.88503 v -1.70699 l -1.41794,2.14069 c -4.69736,7.09173 -13.65121,10.61336 -24.01266,9.4444 z m 13.97022,-3.00741 c 3.59557,-1.69195 7.3669,-5.00294 9.58818,-8.41783 l 1.64284,-2.5256 0.1556,-9.02184 0.1556,-9.02184 -2.65072,-0.33118 c -5.63817,-0.70445 -16.57443,0.55598 -21.77407,2.50949 -3.01359,1.13221 -4.58441,2.64066 -6.01201,5.77326 -2.29813,5.04288 -0.85289,15.14898 2.73561,19.12913 2.61056,2.89547 4.61501,3.64288 9.27799,3.45947 3.19824,-0.1258 4.44673,-0.40759 6.88098,-1.55306 z M 519.59716,369.35522 V 317.7478 h 4.81375 4.81377 l 0.11761,33.96427 0.11762,33.96426 14.85523,-16.76179 c 10.14504,-11.44707 15.14458,-16.76179 15.76777,-16.76179 1.15819,0 1.98653,-1.02879 -10.82953,13.45017 l -10.48425,11.84462 2.5137,3.75229 c 1.38253,2.06376 7.99766,11.80305 14.70027,21.64285 l 12.18659,17.89057 -4.87208,0.13103 c -3.51861,0.0947 -5.02686,-0.0328 -5.42918,-0.45873 -0.3064,-0.32437 -5.87512,-8.43409 -12.37494,-18.0216 -6.49982,-9.5875 -12.00998,-17.63826 -12.24481,-17.89056 -0.27611,-0.29667 -1.06088,0.27055 -2.2213,1.60555 l -1.79435,2.0643 -10e-4,16.39969 -10e-4,16.39968 h -4.81673 -4.8167 z"
     id="path5017" />
  <path
     style="fill:#ffffff;fill-opacity:1;stroke:#ffffff;stroke-width:4.4;stroke-dasharray:none;stroke-opacity:1"
     d="m 196.56773,478.4014 c 0,-22.59955 0.29627,-34.74681 0.84749,-34.74681 0.49348,0 0.86312,2.92054 0.88494,6.99174 l 0.0374,6.99173 1.7529,-3.38993 c 4.92616,-9.52674 14.20089,-13.89834 24.33081,-11.46821 4.80388,1.15243 11.13793,6.11484 13.40978,10.50589 3.86648,7.47321 4.63283,17.52806 1.98846,26.08952 -3.17163,10.26856 -9.57063,15.85642 -19.05922,16.64329 -8.90496,0.73847 -16.48959,-3.351 -20.26444,-10.92615 l -2.23318,-4.48142 v 16.26857 c 0,10.28072 -0.31193,16.26857 -0.84748,16.26857 -0.55122,0 -0.84749,-12.14725 -0.84749,-34.74679 z m 32.9284,13.31826 c 9.82071,-6.49903 13.32132,-24.15465 7.24831,-36.55736 -7.57028,-15.46052 -27.48476,-15.09065 -35.74855,0.66397 -2.08026,3.96594 -2.28314,5.18558 -2.27497,13.67655 0.008,8.05617 0.27915,9.87221 1.9983,13.37103 2.23084,4.54022 7.60285,9.57453 11.49326,10.77074 1.41688,0.43566 5.09717,0.70235 8.17844,0.59265 4.47587,-0.15936 6.30661,-0.66555 9.10521,-2.51758 z m -117.56053,3.36925 c -1.56751,-0.59514 -4.29267,-2.29325 -6.05591,-3.77359 -10.537791,-8.84701 -10.857621,-32.4541 -0.57714,-42.60003 4.61404,-4.55366 8.75764,-6.22874 15.41545,-6.23182 12.16542,-0.006 20.22594,8.12108 22.10506,22.28658 l 0.57161,4.30903 h -21.7466 c -18.13857,0 -21.824241,0.20233 -22.214561,1.2195 -0.25738,0.67073 -0.0106,3.43564 0.54843,6.14425 2.528001,12.24896 9.138371,18.06074 20.542441,18.06074 9.59528,0 17.01316,-5.28948 19.31308,-13.7716 0.98698,-3.63997 2.82811,-4.43619 1.95967,-0.84748 -1.51733,6.27018 -5.26126,11.09722 -10.82909,13.96192 -4.24355,2.18336 -14.7482,2.86913 -19.03244,1.2425 z m 29.1383,-31.73034 c -2.3597,-15.83468 -16.63832,-24.03016 -29.99489,-17.21615 -5.33985,2.72419 -10.11048,10.22448 -11.489541,18.06363 l -0.55909,3.17807 h 21.321711 21.3217 z m 150.5281,31.73034 c -1.56751,-0.59514 -4.29267,-2.29325 -6.05592,-3.77359 -10.53779,-8.84701 -10.85761,-32.4541 -0.57713,-42.60003 4.61404,-4.55366 8.75764,-6.22874 15.41545,-6.23182 12.16542,-0.006 20.22593,8.12108 22.10505,22.28658 l 0.57161,4.30903 h -21.74659 c -18.13858,0 -21.82424,0.20233 -22.21456,1.2195 -0.25739,0.67073 -0.0106,3.43564 0.54842,6.14425 2.528,12.24896 9.13839,18.06074 20.54245,18.06074 9.59527,0 17.01315,-5.28948 19.31307,-13.7716 0.98697,-3.63997 2.82811,-4.43619 1.95968,-0.84748 -1.51734,6.27018 -5.26127,11.09722 -10.82909,13.96192 -4.24355,2.18336 -14.7482,2.86913 -19.03244,1.2425 z m 29.1383,-31.73034 c -2.35971,-15.83468 -16.63832,-24.03016 -29.9949,-17.21615 -5.33985,2.72419 -10.11048,10.22448 -11.48954,18.06363 l -0.55908,3.17807 h 21.3217 21.32171 z m 22.86573,32.09658 c -3.56799,-0.93749 -7.35692,-3.01727 -9.19302,-5.04613 -2.93796,-3.24641 -5.25172,-12.85511 -3.09548,-12.85511 0.46612,0 0.85585,1.04876 0.86609,2.33058 0.0238,2.98555 2.62252,8.65747 4.89049,10.67412 4.0234,3.57752 14.38654,5.04922 21.54843,3.06018 7.02836,-1.95196 10.86639,-8.13775 9.07489,-14.62605 -1.21559,-4.40247 -5.25767,-6.79656 -16.04031,-9.50052 -15.78879,-3.95934 -18.89432,-6.24533 -19.00822,-13.99195 -0.13399,-9.11311 9.15505,-14.82173 21.38159,-13.14016 5.19446,0.71442 10.26048,3.55486 12.13446,6.80359 1.83139,3.1749 2.96544,8.8981 1.76315,8.8981 -0.47702,0 -1.12926,-1.55051 -1.44943,-3.44557 -1.09933,-6.50685 -8.01026,-10.96164 -17.00534,-10.96164 -10.87088,0 -17.81686,7.49296 -14.43937,15.57643 1.5504,3.71064 4.74424,5.35307 16.55672,8.5143 14.46863,3.87205 18.1889,6.89493 18.07116,14.68358 -0.12337,8.16014 -6.34995,13.06015 -17.10062,13.45735 -3.52701,0.13031 -7.55684,-0.0636 -8.95519,-0.4311 z m 49.15401,0 c -3.56799,-0.93749 -7.35692,-3.01727 -9.19301,-5.04613 -2.93797,-3.24641 -5.25173,-12.85511 -3.09549,-12.85511 0.46612,0 0.85585,1.04876 0.86609,2.33058 0.0238,2.98555 2.62252,8.65747 4.8905,10.67412 4.02339,3.57752 14.38653,5.04922 21.54842,3.06018 7.02836,-1.95196 10.86639,-8.13775 9.07489,-14.62605 -1.21558,-4.40247 -5.25767,-6.79656 -16.04031,-9.50052 -15.78878,-3.95934 -18.89432,-6.24533 -19.00822,-13.99195 -0.13399,-9.11311 9.15505,-14.82173 21.38159,-13.14016 5.19446,0.71442 10.26048,3.55486 12.13446,6.80359 1.83139,3.1749 2.96544,8.8981 1.76316,8.8981 -0.47703,0 -1.12927,-1.55051 -1.44944,-3.44557 -1.09933,-6.50685 -8.01026,-10.96164 -17.00534,-10.96164 -10.87088,0 -17.81686,7.49296 -14.43937,15.57643 1.55041,3.71064 4.74424,5.35307 16.55672,8.5143 14.46864,3.87205 18.1889,6.89493 18.07116,14.68358 -0.12337,8.16014 -6.34995,13.06015 -17.10061,13.45735 -3.52702,0.13031 -7.55685,-0.0636 -8.9552,-0.4311 z m -244.01158,-3.28216 c 2.03104,-2.70824 15.11137,-19.77998 17.49288,-22.83076 0.53978,-0.69149 -2.02693,-4.74096 -8.17287,-12.89418 -4.92788,-6.53736 -8.95978,-12.09026 -8.95978,-12.33978 0,-1.80429 2.6078,1.03908 10.07705,10.98734 4.72453,6.29256 8.77061,11.44102 8.99132,11.44102 0.22069,0 4.26678,-5.14846 8.9913,-11.44102 4.72452,-6.29256 8.9564,-11.44102 9.40418,-11.44102 1.24296,0 0.88437,0.5437 -8.55991,12.97894 l -8.80905,11.59882 7.53782,9.81038 c 12.66247,16.48003 13.44295,17.5814 12.1644,17.1654 -0.68015,-0.22129 -5.43168,-5.78904 -10.55895,-12.37278 -5.12727,-6.58373 -9.5736,-12.21038 -9.88072,-12.50365 -0.30713,-0.29327 -5.00386,5.21611 -10.43718,12.24306 -5.43332,7.02696 -10.28042,12.77629 -10.77133,12.77629 -0.49091,0 0.17997,-1.43013 1.49084,-3.17806 z m 103.75315,-22.67017 c 0,-16.66716 0.30102,-25.84823 0.84749,-25.84823 0.48211,0 0.87064,2.64889 0.9012,6.14425 0.043,4.9232 0.21974,5.72824 0.88918,4.05087 1.45422,-3.64379 4.97902,-7.61289 8.23653,-9.27474 3.71187,-1.89366 11.16016,-3.21061 11.16016,-1.97327 0,0.45899 -1.89179,1.08548 -4.20399,1.39221 -5.24365,0.69559 -10.64415,4.61692 -13.59315,9.87005 -2.05567,3.66181 -2.12674,4.33516 -2.38884,22.6306 -0.15593,10.88471 -0.60378,18.85649 -1.05935,18.85649 -0.47007,0 -0.78923,-10.45304 -0.78923,-25.84823 z"
     id="path7390-8" />
  <path
     style="fill:#3f3d56;fill-opacity:1;stroke:#3f3d56;stroke-width:2;stroke-dasharray:none;stroke-opacity:1"
     d="m 196.56759,478.40087 c 0,-22.59955 0.29627,-34.74681 0.84749,-34.74681 0.49348,0 0.86312,2.92054 0.88494,6.99174 l 0.0374,6.99173 1.7529,-3.38993 c 4.92616,-9.52674 14.20089,-13.89834 24.33081,-11.46821 4.80388,1.15243 11.13793,6.11484 13.40978,10.50589 3.86648,7.47321 4.63283,17.52806 1.98846,26.08952 -3.17163,10.26856 -9.57063,15.85642 -19.05922,16.64329 -8.90496,0.73847 -16.48959,-3.351 -20.26444,-10.92615 l -2.23318,-4.48142 v 16.26857 c 0,10.28072 -0.31193,16.26857 -0.84748,16.26857 -0.55122,0 -0.84749,-12.14725 -0.84749,-34.74679 z m 32.9284,13.31826 c 9.82071,-6.49903 13.32132,-24.15465 7.24831,-36.55736 -7.57028,-15.46052 -27.48476,-15.09065 -35.74855,0.66397 -2.08026,3.96594 -2.28314,5.18558 -2.27497,13.67655 0.008,8.05617 0.27915,9.87221 1.9983,13.37103 2.23084,4.54022 7.60285,9.57453 11.49326,10.77074 1.41688,0.43566 5.09717,0.70235 8.17844,0.59265 4.47587,-0.15936 6.30661,-0.66555 9.10521,-2.51758 z m -117.56053,3.36925 c -1.56751,-0.59514 -4.29267,-2.29325 -6.05591,-3.77359 -10.537794,-8.84701 -10.857619,-32.4541 -0.57714,-42.60003 4.61404,-4.55366 8.75764,-6.22874 15.41545,-6.23182 12.16542,-0.006 20.22594,8.12108 22.10506,22.28658 l 0.57161,4.30903 h -21.7466 c -18.13857,0 -21.824239,0.20233 -22.214563,1.2195 -0.257382,0.67073 -0.01058,3.43564 0.548428,6.14425 2.528005,12.24896 9.138375,18.06074 20.542445,18.06074 9.59528,0 17.01316,-5.28948 19.31308,-13.7716 0.98698,-3.63997 2.82811,-4.43619 1.95967,-0.84748 -1.51733,6.27018 -5.26126,11.09722 -10.82909,13.96192 -4.24355,2.18336 -14.7482,2.86913 -19.03244,1.2425 z m 29.1383,-31.73034 c -2.3597,-15.83468 -16.63832,-24.03016 -29.99489,-17.21615 -5.33985,2.72419 -10.11048,10.22448 -11.489544,18.06363 l -0.559084,3.17807 h 21.321708 21.3217 z m 150.5281,31.73034 c -1.56751,-0.59514 -4.29267,-2.29325 -6.05592,-3.77359 -10.53779,-8.84701 -10.85761,-32.4541 -0.57713,-42.60003 4.61404,-4.55366 8.75764,-6.22874 15.41545,-6.23182 12.16542,-0.006 20.22593,8.12108 22.10505,22.28658 l 0.57161,4.30903 h -21.74659 c -18.13858,0 -21.82424,0.20233 -22.21456,1.2195 -0.25739,0.67073 -0.0106,3.43564 0.54842,6.14425 2.528,12.24896 9.13839,18.06074 20.54245,18.06074 9.59527,0 17.01315,-5.28948 19.31307,-13.7716 0.98697,-3.63997 2.82811,-4.43619 1.95968,-0.84748 -1.51734,6.27018 -5.26127,11.09722 -10.82909,13.96192 -4.24355,2.18336 -14.7482,2.86913 -19.03244,1.2425 z m 29.1383,-31.73034 c -2.35971,-15.83468 -16.63832,-24.03016 -29.9949,-17.21615 -5.33985,2.72419 -10.11048,10.22448 -11.48954,18.06363 l -0.55908,3.17807 h 21.3217 21.32171 z m 22.86573,32.09658 c -3.56799,-0.93749 -7.35692,-3.01727 -9.19302,-5.04613 -2.93796,-3.24641 -5.25172,-12.85511 -3.09548,-12.85511 0.46612,0 0.85585,1.04876 0.86609,2.33058 0.0238,2.98555 2.62252,8.65747 4.89049,10.67412 4.0234,3.57752 14.38654,5.04922 21.54843,3.06018 7.02836,-1.95196 10.86639,-8.13775 9.07489,-14.62605 -1.21559,-4.40247 -5.25767,-6.79656 -16.04031,-9.50052 -15.78879,-3.95934 -18.89432,-6.24533 -19.00822,-13.99195 -0.13399,-9.11311 9.15505,-14.82173 21.38159,-13.14016 5.19446,0.71442 10.26048,3.55486 12.13446,6.80359 1.83139,3.1749 2.96544,8.8981 1.76315,8.8981 -0.47702,0 -1.12926,-1.55051 -1.44943,-3.44557 -1.09933,-6.50685 -8.01026,-10.96164 -17.00534,-10.96164 -10.87088,0 -17.81686,7.49296 -14.43937,15.57643 1.5504,3.71064 4.74424,5.35307 16.55672,8.5143 14.46863,3.87205 18.1889,6.89493 18.07116,14.68358 -0.12337,8.16014 -6.34995,13.06015 -17.10062,13.45735 -3.52701,0.13031 -7.55684,-0.0636 -8.95519,-0.4311 z m 49.15401,0 c -3.56799,-0.93749 -7.35692,-3.01727 -9.19301,-5.04613 -2.93797,-3.24641 -5.25173,-12.85511 -3.09549,-12.85511 0.46612,0 0.85585,1.04876 0.86609,2.33058 0.0238,2.98555 2.62252,8.65747 4.8905,10.67412 4.02339,3.57752 14.38653,5.04922 21.54842,3.06018 7.02836,-1.95196 10.86639,-8.13775 9.07489,-14.62605 -1.21558,-4.40247 -5.25767,-6.79656 -16.04031,-9.50052 -15.78878,-3.95934 -18.89432,-6.24533 -19.00822,-13.99195 -0.13399,-9.11311 9.15505,-14.82173 21.38159,-13.14016 5.19446,0.71442 10.26048,3.55486 12.13446,6.80359 1.83139,3.1749 2.96544,8.8981 1.76316,8.8981 -0.47703,0 -1.12927,-1.55051 -1.44944,-3.44557 -1.09933,-6.50685 -8.01026,-10.96164 -17.00534,-10.96164 -10.87088,0 -17.81686,7.49296 -14.43937,15.57643 1.55041,3.71064 4.74424,5.35307 16.55672,8.5143 14.46864,3.87205 18.1889,6.89493 18.07116,14.68358 -0.12337,8.16014 -6.34995,13.06015 -17.10061,13.45735 -3.52702,0.13031 -7.55685,-0.0636 -8.9552,-0.4311 z m -244.01158,-3.28216 c 2.03104,-2.70824 15.11137,-19.77998 17.49288,-22.83076 0.53978,-0.69149 -2.02693,-4.74096 -8.17287,-12.89418 -4.92788,-6.53736 -8.95978,-12.09026 -8.95978,-12.33978 0,-1.80429 2.6078,1.03908 10.07705,10.98734 4.72453,6.29256 8.77061,11.44102 8.99132,11.44102 0.22069,0 4.26678,-5.14846 8.9913,-11.44102 4.72452,-6.29256 8.9564,-11.44102 9.40418,-11.44102 1.24296,0 0.88437,0.5437 -8.55991,12.97894 l -8.80905,11.59882 7.53782,9.81038 c 12.66247,16.48003 13.44295,17.5814 12.1644,17.1654 -0.68015,-0.22129 -5.43168,-5.78904 -10.55895,-12.37278 -5.12727,-6.58373 -9.5736,-12.21038 -9.88072,-12.50365 -0.30713,-0.29327 -5.00386,5.21611 -10.43718,12.24306 -5.43332,7.02696 -10.28042,12.77629 -10.77133,12.77629 -0.49091,0 0.17997,-1.43013 1.49084,-3.17806 z m 103.75315,-22.67017 c 0,-16.66716 0.30102,-25.84823 0.84749,-25.84823 0.48211,0 0.87064,2.64889 0.9012,6.14425 0.043,4.9232 0.21974,5.72824 0.88918,4.05087 1.45422,-3.64379 4.97902,-7.61289 8.23653,-9.27474 3.71187,-1.89366 11.16016,-3.21061 11.16016,-1.97327 0,0.45899 -1.89179,1.08548 -4.20399,1.39221 -5.24365,0.69559 -10.64415,4.61692 -13.59315,9.87005 -2.05567,3.66181 -2.12674,4.33516 -2.38884,22.6306 -0.15593,10.88471 -0.60378,18.85649 -1.05935,18.85649 -0.47007,0 -0.78923,-10.45304 -0.78923,-25.84823 z"
     id="path7390" />
  <path
     d="m 386.60272,181.80711 c -1.59122,-0.4293 -13.66348,-6.95704 -26.82724,-14.50609 -25.6965,-14.73622 -29.0374,-17.17253 -32.25446,-23.52108 -3.42376,-6.75647 -3.57676,-8.37551 -3.57676,-37.84927 0,-29.656265 0.17677,-31.470745 3.69833,-37.961005 3.39258,-6.25257 6.15654,-8.26899 30.56547,-22.298758 12.68306,-7.28998 24.44449,-13.86687 26.1365,-14.61533 4.26024,-1.88451 11.66572,-2.32416 16.83101,-0.99922 5.95596,1.52775 51.04916,27.613368 55.47065,32.088788 3.4083,3.44987 6.26003,8.57997 7.31627,13.16153 0.38225,1.65804 0.65295,14.35006 0.66219,31.046665 0.0144,25.94829 -0.0828,28.5583 -1.19598,32.13506 -1.43169,4.60002 -4.17854,9.07469 -7.54804,12.29587 -2.88324,2.75633 -48.33171,29.1394 -52.95475,30.74051 -3.76846,1.30513 -12.00413,1.44758 -16.32319,0.28233 z m 11.32522,-15.15869 c 0.99018,-0.37229 12.02011,-6.57269 24.51095,-13.77868 23.66859,-13.65444 24.79411,-14.49116 26.23068,-19.50019 0.34215,-1.193 0.62209,-8.27056 0.62209,-15.72789 v -13.55881 l -3.42519,1.5681 c -7.35283,3.36624 -14.67035,3.32181 -21.9747,-0.13343 -2.99437,-1.41645 -3.68872,-1.51297 -6.7768,-0.94211 -11.46925,2.1202 -23.72993,8.70868 -33.12968,17.80279 l -4.87102,4.71263 -0.32867,4.09458 c -0.59777,7.44685 -5.06479,14.61639 -11.74727,18.8543 l -2.72039,1.72521 12.90871,7.38783 c 7.09979,4.06331 13.34039,7.54168 13.868,7.72971 1.64422,0.58597 4.95378,0.47262 6.83329,-0.23404 z m -53.83856,-60.72445 c 2.74958,-1.33285 4.13854,-1.55299 9.91268,-1.57108 6.0137,-0.0188 7.10716,0.16264 10.4696,1.73766 4.47586,2.09656 5.15638,2.12614 11.5134,0.50028 10.16048,-2.5986 22.29503,-9.620336 29.88033,-17.290415 4.05294,-4.09824 4.23244,-4.41413 4.57284,-8.0472 0.73562,-7.85148 5.63338,-15.92208 11.61863,-19.14535 1.26127,-0.67924 2.28805,-1.38537 2.28173,-1.56919 -0.006,-0.18382 -5.95348,-3.76369 -13.2159,-7.955258 -18.34297,-10.5868 -14.2544,-11.12242 -43.3708,5.681718 -12.66264,7.30807 -23.55724,13.75585 -24.21021,14.3284 -0.65298,0.57255 -1.73218,2.10874 -2.39823,3.41375 -1.085,2.12586 -1.211,3.91147 -1.211,17.160659 0,8.133336 0.21584,14.679486 0.47964,14.546976 0.26381,-0.1325 1.91858,-0.93843 3.67729,-1.79095 z"
     style="fill:#009432;fill-opacity:1;stroke:#ffffff;stroke-width:2.45;stroke-dasharray:none;stroke-opacity:1"
     id="path12094" />
  <metadata
     id="metadata12581">
    <rdf:RDF>
      <cc:Work
         rdf:about="">
        <dc:title>JavaScript frameworks</dc:title>
      </cc:Work>
    </rdf:RDF>
  </metadata>
</svg>
