<?xml version="1.0" encoding="UTF-8" standalone="no"?>
<svg
   data-name="Layer 1"
   width="787.1693"
   height="730"
   viewBox="0 0 787.1693 730"
   version="1.1"
   id="svg343"
   sodipodi:docname="frameworks-thumbnail.svg"
   inkscape:version="1.2.1 (9c6d41e4, 2022-07-14)"
   xmlns:inkscape="http://www.inkscape.org/namespaces/inkscape"
   xmlns:sodipodi="http://sodipodi.sourceforge.net/DTD/sodipodi-0.dtd"
   xmlns:xlink="http://www.w3.org/1999/xlink"
   xmlns="http://www.w3.org/2000/svg"
   xmlns:svg="http://www.w3.org/2000/svg"
   xmlns:rdf="http://www.w3.org/1999/02/22-rdf-syntax-ns#"
   xmlns:cc="http://creativecommons.org/ns#"
   xmlns:dc="http://purl.org/dc/elements/1.1/">
  <sodipodi:namedview
     id="namedview345"
     pagecolor="#ffffff"
     bordercolor="#666666"
     borderopacity="1.0"
     inkscape:showpageshadow="2"
     inkscape:pageopacity="0.0"
     inkscape:pagecheckerboard="0"
     inkscape:deskcolor="#d1d1d1"
     showgrid="false"
     inkscape:zoom="1.2931507"
     inkscape:cx="434.98411"
     inkscape:cy="334.0678"
     inkscape:window-width="1729"
     inkscape:window-height="1318"
     inkscape:window-x="132"
     inkscape:window-y="350"
     inkscape:window-maximized="0"
     inkscape:current-layer="svg343" />
  <defs
     id="defs197">
    <linearGradient
       id="linearGradient13485"
       x1="278.97312"
       y1="470.29515"
       x2="278.97312"
       y2="199.61685"
       gradientUnits="userSpaceOnUse">
      <stop
         offset="0.53514"
         stop-color="gray"
         stop-opacity="0.12"
         id="stop13481" />
      <stop
         offset="1"
         stop-color="gray"
         stop-opacity="0.1"
         id="stop13483" />
    </linearGradient>
    <linearGradient
       id="a3c4672e-2259-4d6c-8c24-5949363a8af1-23"
       x1="278.97312"
       y1="470.29515"
       x2="278.97312"
       y2="199.61685"
       gradientUnits="userSpaceOnUse">
      <stop
         offset="0"
         stop-color="gray"
         stop-opacity="0.25"
         id="stop182" />
      <stop
         offset="0.53514"
         stop-color="gray"
         stop-opacity="0.12"
         id="stop184" />
      <stop
         offset="1"
         stop-color="gray"
         stop-opacity="0.1"
         id="stop186" />
    </linearGradient>
    <linearGradient
       id="acf699b8-10e6-407b-86e3-0f7f8fa4bdb6-24"
       x1="191.7952"
       y1="163.03871"
       x2="191.7952"
       y2="0"
       xlink:href="#a3c4672e-2259-4d6c-8c24-5949363a8af1-23"
       gradientTransform="matrix(1,0,0,0.99060299,-63.411026,-381.64112)" />
    <linearGradient
       id="b28a1e8f-be05-408d-a6f5-6fd2e5b0337f-25"
       x1="563.67304"
       y1="215.46739"
       x2="563.67304"
       y2="0.87558"
       xlink:href="#linearGradient13485" />
    <linearGradient
       id="f1fc4b36-2829-4464-83b0-fd2af5b19fd6-26"
       x1="639.87752"
       y1="470.29515"
       x2="639.87752"
       y2="255.70335"
       xlink:href="#a3c4672e-2259-4d6c-8c24-5949363a8af1-23" />
    <linearGradient
       id="bb60ebe1-81e2-422a-a970-aa43062904da-27"
       x1="453.7012"
       y1="780.90233"
       x2="453.7012"
       y2="650.04347"
       gradientTransform="matrix(-1, 0, 0, 1, 1039.58465, -85)"
       xlink:href="#a3c4672e-2259-4d6c-8c24-5949363a8af1-23" />
    <linearGradient
       id="a1b2f907-b002-48c8-973d-a12b277f13d1-28"
       x1="488.7343"
       y1="780.90233"
       x2="488.7343"
       y2="650.04347"
       gradientTransform="matrix(-1, 0, 0, 1, 1039.58465, -85)"
       xlink:href="#a3c4672e-2259-4d6c-8c24-5949363a8af1-23" />
    <linearGradient
       id="a8136d5f-4c26-4562-977f-ea29024932d1-29"
       x1="235.31858"
       y1="696.90233"
       x2="235.31858"
       y2="566.04347"
       xlink:href="#a3c4672e-2259-4d6c-8c24-5949363a8af1-23" />
    <linearGradient
       id="eaaf4b84-3353-429f-a894-84d4b3cd89b7-30"
       x1="270.35167"
       y1="696.90233"
       x2="270.35167"
       y2="566.04347"
       xlink:href="#a3c4672e-2259-4d6c-8c24-5949363a8af1-23" />
    <linearGradient
       id="fa1ca12c-a5d3-4b88-b665-ae3e1db189da-31"
       x1="319.81014"
       y1="696.88015"
       x2="319.81014"
       y2="561.94405"
       xlink:href="#a3c4672e-2259-4d6c-8c24-5949363a8af1-23" />
    <linearGradient
       id="b28a1e8f-be05-408d-a6f5-6fd2e5b0337f-25-8"
       x1="563.67303"
       y1="215.46739"
       x2="563.67303"
       y2="0.87558001"
       xlink:href="#a3c4672e-2259-4d6c-8c24-5949363a8af1-23"
       gradientTransform="translate(3.5783565e-6)" />
  </defs>
  <title
     id="title199">JavaScript frameworks</title>
  <path
     d="M969.07624,674.78716c0,45.23881-26.89446,61.0365-60.06793,61.0365-.77234,0-1.54052-.00836-2.3045-.02923-1.53635-.0334-3.06018-.10019-4.56313-.20874-29.94213-2.11666-53.20445-18.72843-53.20445-60.79853,0-43.53546,55.62587-98.47249,59.8216-102.55134l.00836-.00418c.15865-.15862.24212-.23794.24212-.23794S969.07624,629.54417,969.07624,674.78716Z"
     transform="translate(-206.41535 -85)"
     fill="#3f3d56"
     id="path201" />
  <path
     d="M906.81651,728.90173,928.78882,698.204l-22.02658,34.06687-.05843,3.52358c-1.53635-.0334-3.06018-.10019-4.56313-.20874l2.36714-45.25968-.01671-.3507.04176-.06678.22126-4.27508L882.6733,651.47889l22.14764,30.94826.05427.906,1.791-34.19632-18.90376-35.2901,19.13337,29.28247,1.862-70.89335.00836-.24212v.23794l-.309,55.90561,18.81611-22.16436-18.89543,26.978-.49679,30.61846,17.572-29.38269L907.806,668.07815l-.27553,17.02093,25.5084-40.90115-25.60441,46.842Z"
     transform="translate(-206.41535 -85)"
     fill="#f2f2f2"
     id="path203" />
  <path
     d="M345,723.419c0,27.107-16.11508,36.57288-35.99252,36.57288-.46278,0-.92308-.005-1.38085-.01751-.92058-.02-1.83365-.06-2.73421-.12508-17.94123-1.26829-31.88-11.222-31.88-36.43029,0-26.08631,33.33085-59.00441,35.84492-61.44845l.005-.0025c.09506-.095.14508-.14258.14508-.14258S345,696.30954,345,723.419Z"
     transform="translate(-206.41535 -85)"
     fill="#3f3d56"
     id="path205" />
  <path
     d="M307.69416,755.84428l13.16574-18.394-13.19826,20.41276-.035,2.11132c-.92058-.02-1.83365-.06-2.73421-.12508l1.41838-27.11946-.01-.21013.025-.04.13258-2.56162-13.23077-20.4653,13.2708,18.5441.03252.54285,1.07317-20.49033L296.277,686.90366l11.46466,17.546,1.1157-42.47908.005-.14508v.14258l-.18513,33.49847,11.27456-13.28082-11.32209,16.16511-.29767,18.34649,10.52908-17.606L308.287,719.399l-.1651,10.19889L323.40649,705.09,308.0644,733.15759Z"
     transform="translate(-206.41535 -85)"
     fill="#f2f2f2"
     id="path207" />
  <rect
     x="476.40891"
     y="286.14655"
     width="284.09027"
     height="167.0554"
     fill="url(#a3c4672e-2259-4d6c-8c24-5949363a8af1-23)"
     id="rect209"
     style="fill:#3f3d56;stroke-width:0.785604;fill-opacity:1" />
  <rect
     x="482.50528"
     y="293.78952"
     width="271.89758"
     height="151.76947"
     fill="#ffffff"
     id="rect211"
     style="stroke-width:0.766256" />
  <rect
     x="492.25943"
     y="303.54367"
     width="252.38922"
     height="132.26114"
     fill="#2d80d3"
     id="rect213"
     style="stroke-width:0.74394" />
  <g
     opacity="0.5"
     id="g223"
     transform="matrix(1,0,0,1.0094862,63.411026,385.26142)"
     style="fill:#3f3d56;fill-opacity:1;opacity:1">
    <rect
       x="5.2466502"
       width="373.09711"
       height="163.03871"
       fill="url(#acf699b8-10e6-407b-86e3-0f7f8fa4bdb6-24)"
       id="rect221"
       style="fill:#3f3d56;fill-opacity:1"
       y="0" />
  </g>
  <rect
     x="73.534744"
     y="389.52069"
     width="363.34293"
     height="156.06676"
     fill="#ffffff"
     id="rect225" />
  <rect
     x="83.97477"
     y="399.27487"
     width="342.46292"
     height="136.55843"
     fill="#2d80d3"
     id="rect227" />
  <rect
     x="540.37714"
     y="16.87558"
     width="214.5918"
     height="214.5918"
     fill="url(#b28a1e8f-be05-408d-a6f5-6fd2e5b0337f-25)"
     id="rect239"
     style="fill:#3f3d56;fill-opacity:1" />
  <rect
     x="546.47351"
     y="22.971939"
     width="202.39909"
     height="202.39909"
     fill="#ffffff"
     id="rect241" />
  <rect
     x="556.22766"
     y="32.72612"
     width="182.89075"
     height="182.89075"
     fill="#2d80d3"
     id="rect243" />
  <rect
     x="301.00916"
     y="9.4731646"
     width="190.61934"
     height="190.61934"
     fill="url(#b28a1e8f-be05-408d-a6f5-6fd2e5b0337f-25)"
     id="rect239-4"
     style="fill:#3f3d56;stroke-width:0.888288;fill-opacity:1" />
  <rect
     x="306.4245"
     y="14.888488"
     width="179.78871"
     height="179.78871"
     fill="#ffffff"
     id="rect241-9"
     style="stroke-width:0.888288" />
  <rect
     x="315.08899"
     y="23.553009"
     width="162.45967"
     height="162.45967"
     fill="#2d80d3"
     id="rect243-1"
     style="stroke-width:0.888288" />
  <rect
     x="30.62262"
     y="167.26736"
     width="255.47798"
     height="192.97908"
     fill="url(#f1fc4b36-2829-4464-83b0-fd2af5b19fd6-26)"
     id="rect251"
     style="fill:#3f3d56;stroke-width:0.899285;fill-opacity:1" />
  <rect
     x="36.104996"
     y="172.74971"
     width="244.51329"
     height="182.01437"
     fill="#ffffff"
     id="rect253"
     style="stroke-width:0.899285" />
  <rect
     x="44.876778"
     y="181.52148"
     width="226.96973"
     height="164.47083"
     fill="#2d80d3"
     id="rect255"
     style="stroke-width:0.899285" />
  <g
     opacity="0.7"
     id="g273">
    <g
       opacity="0.1"
       id="g267">
      <polygon
         points="602.37 565.043 602.37 583.59 602.37 589.773 602.37 672.203 602.37 678.386 602.37 695.902 577.64 695.902 569.397 695.902 569.397 678.386 569.397 672.203 569.397 589.773 569.397 583.59 569.397 565.043 577.64 565.043 602.37 565.043"
         fill="url(#bb60ebe1-81e2-422a-a970-aa43062904da-27)"
         id="polygon265" />
    </g>
    <g
       opacity="0.1"
       id="g271">
      <polygon
         points="567.337 565.043 567.337 583.59 567.337 589.773 567.337 672.203 567.337 678.386 567.337 695.902 542.607 695.902 534.364 695.902 534.364 678.386 534.364 672.203 534.364 589.773 534.364 583.59 534.364 565.043 542.607 565.043 567.337 565.043"
         fill="url(#a1b2f907-b002-48c8-973d-a12b277f13d1-28)"
         id="polygon269" />
    </g>
  </g>
  <rect
     x="56.36379"
     y="660.51622"
     width="86.63529"
     height="36.86608"
     rx="14.2973"
     fill="#2d80d3"
     id="rect275" />
  <g
     opacity="0.7"
     id="g289">
    <g
       opacity="0.1"
       id="g279">
      <polygon
         points="218.832 566.043 218.832 584.59 218.832 590.773 218.832 673.203 218.832 679.386 218.832 696.902 243.562 696.902 251.805 696.902 251.805 679.386 251.805 673.203 251.805 590.773 251.805 584.59 251.805 566.043 243.562 566.043 218.832 566.043"
         fill="url(#a8136d5f-4c26-4562-977f-ea29024932d1-29)"
         id="polygon277" />
    </g>
    <g
       opacity="0.1"
       id="g283">
      <polygon
         points="253.866 566.043 253.866 584.59 253.866 590.773 253.866 673.203 253.866 679.386 253.866 696.902 278.595 696.902 286.838 696.902 286.838 679.386 286.838 673.203 286.838 590.773 286.838 584.59 286.838 566.043 278.595 566.043 253.866 566.043"
         fill="url(#eaaf4b84-3353-429f-a894-84d4b3cd89b7-30)"
         id="polygon281" />
    </g>
    <g
       opacity="0.1"
       id="g287">
      <polygon
         points="352.601 688.383 325.251 585.838 325.251 585.838 323.658 579.865 323.658 579.865 318.878 561.944 287.019 570.441 291.799 588.362 291.799 588.362 293.068 593.119 314.635 673.982 314.635 673.982 316.228 679.955 316.228 679.955 320.742 696.88 352.601 688.383"
         fill="url(#fa1ca12c-a5d3-4b88-b665-ae3e1db189da-31)"
         id="polygon285" />
    </g>
  </g>
  <rect
     x="222.20723"
     y="569.24144"
     width="31.30861"
     height="124.25606"
     fill="#535461"
     id="rect291" />
  <rect
     x="222.20723"
     y="586.85254"
     width="31.30861"
     height="5.87037"
     fill="#2d80d3"
     id="rect293" />
  <rect
     x="222.20723"
     y="670.99444"
     width="31.30861"
     height="5.87037"
     fill="#2d80d3"
     id="rect295" />
  <rect
     x="245.68869"
     y="569.24144"
     width="7.82715"
     height="124.25606"
     opacity="0.1"
     id="rect297" />
  <rect
     x="255.47264"
     y="569.24144"
     width="31.30861"
     height="124.25606"
     fill="#535461"
     id="rect299" />
  <rect
     x="255.47264"
     y="586.85254"
     width="31.30861"
     height="5.87037"
     fill="#2d80d3"
     id="rect301" />
  <rect
     x="255.47264"
     y="670.99444"
     width="31.30861"
     height="5.87037"
     fill="#2d80d3"
     id="rect303" />
  <rect
     x="278.9541"
     y="569.24144"
     width="7.82715"
     height="124.25606"
     opacity="0.1"
     id="rect305" />
  <rect
     x="508.8509"
     y="652.28465"
     width="31.30861"
     height="124.25606"
     transform="translate(-372.80777 74.29859) rotate(-14.93399)"
     fill="#535461"
     id="rect307" />
  <rect
     x="498.13504"
     y="671.30024"
     width="31.30861"
     height="5.87037"
     transform="translate(-362.8158 70.17999) rotate(-14.93399)"
     fill="#2d80d3"
     id="rect309" />
  <rect
     x="519.81891"
     y="752.60011"
     width="31.30861"
     height="5.87037"
     transform="translate(-383.03485 78.51409) rotate(-14.93399)"
     fill="#2d80d3"
     id="rect311" />
  <rect
     x="531.9358"
     y="649.259"
     width="7.82715"
     height="124.25606"
     transform="translate(-371.64487 77.11985) rotate(-14.93399)"
     opacity="0.1"
     id="rect313" />
  <rect
     x="773.27903"
     y="654.24144"
     width="31.30861"
     height="124.25606"
     transform="translate(1371.45134 1347.73895) rotate(-180)"
     fill="#535461"
     id="rect315" />
  <rect
     x="773.27903"
     y="671.85254"
     width="31.30861"
     height="5.87037"
     transform="translate(1371.45134 1264.57544) rotate(-180)"
     fill="#2d80d3"
     id="rect317" />
  <rect
     x="773.27903"
     y="755.99444"
     width="31.30861"
     height="5.87037"
     transform="translate(1371.45134 1432.85924) rotate(-180)"
     fill="#2d80d3"
     id="rect319" />
  <rect
     x="773.27903"
     y="654.24144"
     width="7.82715"
     height="124.25606"
     transform="translate(1347.96988 1347.73895) rotate(-180)"
     opacity="0.1"
     id="rect321" />
  <rect
     x="740.01363"
     y="654.24144"
     width="31.30861"
     height="124.25606"
     transform="translate(1304.92053 1347.73895) rotate(-180)"
     fill="#535461"
     id="rect323" />
  <rect
     x="740.01363"
     y="671.85254"
     width="31.30861"
     height="5.87037"
     transform="translate(1304.92053 1264.57544) rotate(-180)"
     fill="#2d80d3"
     id="rect325" />
  <rect
     x="740.01363"
     y="755.99444"
     width="31.30861"
     height="5.87037"
     transform="translate(1304.92053 1432.85924) rotate(-180)"
     fill="#2d80d3"
     id="rect327" />
  <rect
     x="740.01363"
     y="654.24144"
     width="7.82715"
     height="124.25606"
     transform="translate(1281.43907 1347.73895) rotate(-180)"
     opacity="0.1"
     id="rect329" />
  <path
     d="M848.65412,719.16264H962.16574s22.39345,28.571-12.355,71.04128H860.23694S827.80505,760.86078,848.65412,719.16264Z"
     transform="translate(-206.41535 -85)"
     fill="#2d80d3"
     id="path331" />
  <g
     opacity="0.1"
     id="g335">
    <path
       d="M962.16574,719.16264H848.65412c-.2586.51721-.50274,1.031-.74508,1.54438H958.3048s21.844,27.88077-11.11731,69.4969h2.62324C984.55919,747.73359,962.16574,719.16264,962.16574,719.16264Z"
       transform="translate(-206.41535 -85)"
       id="path333" />
  </g>
  <rect
     y="692.40023"
     width="787.1693"
     height="26.68371"
     fill="#e0e0e0"
     id="rect337"
     style="fill:#c7c7c7;fill-opacity:1" />
  <rect
     x="33.35463"
     y="719.08394"
     width="720.46004"
     height="10.91606"
     fill="#e0e0e0"
     id="rect339"
     style="fill:#c7c7c7;fill-opacity:1" />
  <rect
     x="33.35463"
     y="719.08394"
     width="720.46004"
     height="3.63869"
     opacity="0.1"
     id="rect341" />
  <metadata
     id="metadata12581">
    <rdf:RDF>
      <cc:Work
         rdf:about="">
        <dc:title>JavaScript frameworks</dc:title>
      </cc:Work>
    </rdf:RDF>
  </metadata>
</svg>
