<?xml version="1.0" encoding="UTF-8" standalone="no"?>
<svg
   data-name="Layer 1"
   width="892.34963"
   height="579.10966"
   viewBox="0 0 892.34963 579.10966"
   version="1.1"
   id="svg4697"
   sodipodi:docname="graphile-worker.svg"
   inkscape:version="1.2.1 (9c6d41e4, 2022-07-14)"
   xmlns:inkscape="http://www.inkscape.org/namespaces/inkscape"
   xmlns:sodipodi="http://sodipodi.sourceforge.net/DTD/sodipodi-0.dtd"
   xmlns="http://www.w3.org/2000/svg"
   xmlns:svg="http://www.w3.org/2000/svg"
   xmlns:rdf="http://www.w3.org/1999/02/22-rdf-syntax-ns#"
   xmlns:cc="http://creativecommons.org/ns#"
   xmlns:dc="http://purl.org/dc/elements/1.1/">
  <defs
     id="defs4701" />
  <sodipodi:namedview
     id="namedview4699"
     pagecolor="#ffffff"
     bordercolor="#666666"
     borderopacity="1.0"
     inkscape:showpageshadow="2"
     inkscape:pageopacity="0.0"
     inkscape:pagecheckerboard="0"
     inkscape:deskcolor="#d1d1d1"
     showgrid="false"
     inkscape:zoom="0.81504422"
     inkscape:cx="361.94355"
     inkscape:cy="312.253"
     inkscape:window-width="1673"
     inkscape:window-height="1173"
     inkscape:window-x="1399"
     inkscape:window-y="222"
     inkscape:window-maximized="0"
     inkscape:current-layer="svg4697" />
  <title
     id="title4637">fitness_stats</title>
  <path
     d="M837.481,708.97279l46.45777-69.08737-46.36275,76.51984.09695,7.77406q-5.08741.03879-10.076-.16943l2.3042-99.93046-.06313-.77093.085-.149.22054-9.44283-50.87674-73.8671,50.81671,66.79969.18034,1.99592,1.74041-75.50137-43.9438-76.58326,44.06895,63.31984-.46-156.41937.001-.52062.015.512L834.60258,486.732l40.04952-50.07621-39.91841,60.69646.87411,67.53422,36.85379-65.91084-36.71835,75.83953.48658,37.55243,53.59536-91.813L836.39275,625.468Z"
     transform="translate(-153.82518 -160.44517)"
     fill="#e6e6e6"
     id="path4639" />
  <path
     d="M993.83068,711.14892l46.45777-69.08736-46.36276,76.51983.09695,7.77406q-5.0874.03879-10.076-.16943l2.3042-99.93046-.06313-.77093.085-.149.22054-9.44282-50.87674-73.86711,50.81671,66.79969.18033,1.99592L988.354,535.32l-43.94379-76.58326,44.06894,63.31984-.46-156.41937.001-.52062.01495.512,2.91709,123.27952,40.04952-50.07621-39.9184,60.69646.8741,67.53422,36.85379-65.91084-36.71834,75.83953.48658,37.55243,53.59536-91.813L992.74239,627.64414Z"
     transform="translate(-153.82518 -160.44517)"
     fill="#e6e6e6"
     id="path4641" />
  <rect
     x="92"
     width="278.00787"
     height="376.03942"
     fill="#e6e6e6"
     id="rect4643" />
  <rect
     x="101.79647"
     y="13.25091"
     width="258.41494"
     height="349.5376"
     fill="#fff"
     id="rect4645" />
  <path
     d="M480.07005,235.004H290.41637a5.79728,5.79728,0,0,1,0-11.59455H480.07005a5.79728,5.79728,0,1,1,0,11.59455Z"
     transform="translate(-153.82518 -160.44517)"
     fill="#e6e6e6"
     id="path4647" />
  <path
     d="M480.07005,294.63305H290.41637a5.79728,5.79728,0,0,1,0-11.59455H480.07005a5.79728,5.79728,0,1,1,0,11.59455Z"
     transform="translate(-153.82518 -160.44517)"
     fill="#e6e6e6"
     id="path4649" />
  <path
     d="M480.07005,354.26216H290.41637a5.79728,5.79728,0,0,1,0-11.59455H480.07005a5.79728,5.79728,0,1,1,0,11.59455Z"
     transform="translate(-153.82518 -160.44517)"
     fill="#e6e6e6"
     id="path4651" />
  <path
     d="M480.07005,413.89126H290.41637a5.79728,5.79728,0,0,1,0-11.59455H480.07005a5.79728,5.79728,0,1,1,0,11.59455Z"
     transform="translate(-153.82518 -160.44517)"
     fill="#e6e6e6"
     id="path4653" />
  <path
     d="M480.07005,473.52037H290.41637a5.79728,5.79728,0,0,1,0-11.59455H480.07005a5.79728,5.79728,0,1,1,0,11.59455Z"
     transform="translate(-153.82518 -160.44517)"
     fill="#e6e6e6"
     id="path4655" />
  <g
     id="g5998"
     style="fill:#2f2e41;fill-opacity:1">
    <path
       d="M446.94277,235.004H289.58819a5.79728,5.79728,0,1,1,0-11.59455H446.94277a5.79728,5.79728,0,0,1,0,11.59455Z"
       transform="translate(-153.82518 -160.44517)"
       fill="#e44336"
       id="path4657"
       style="fill:#2f2e41;fill-opacity:1" />
    <path
       d="M398.08,294.63305H289.58819a5.79727,5.79727,0,1,1,0-11.59455H398.08a5.79728,5.79728,0,1,1,0,11.59455Z"
       transform="translate(-153.82518 -160.44517)"
       fill="#e44336"
       id="path4659"
       style="fill:#2f2e41;fill-opacity:1" />
    <path
       d="M338.45093,354.26216H289.58819a5.79728,5.79728,0,1,1,0-11.59455h48.86274a5.79728,5.79728,0,0,1,0,11.59455Z"
       transform="translate(-153.82518 -160.44517)"
       fill="#e44336"
       id="path4661"
       style="fill:#2f2e41;fill-opacity:1" />
    <path
       d="M461.85005,413.89126H289.58819a5.79727,5.79727,0,1,1,0-11.59455H461.85005a5.79727,5.79727,0,0,1,0,11.59455Z"
       transform="translate(-153.82518 -160.44517)"
       fill="#e44336"
       id="path4663"
       style="fill:#2f2e41;fill-opacity:1" />
    <path
       d="M423.75367,473.52037H289.58819a5.79728,5.79728,0,1,1,0-11.59455H423.75367a5.79728,5.79728,0,1,1,0,11.59455Z"
       transform="translate(-153.82518 -160.44517)"
       fill="#e44336"
       id="path4665"
       style="fill:#2f2e41;fill-opacity:1" />
  </g>
  <rect
     y="563.74025"
     width="888"
     height="2"
     fill="#3f3d56"
     id="rect4667" />
  <path
     d="M659.81305,431.35258s-6.28548-46.0935-16.76127-33.52254,0,31.42738,0,31.42738l8.38063,10.47579,8.38064-6.28547Z"
     transform="translate(-153.82518 -160.44517)"
     fill="#9f616a"
     id="path4669" />
  <path
     d="M684.955,446.01869s-20.95158-23.04675-25.1419-18.85643-16.76127,6.28548-14.66611,14.66611,46.09349,35.6177,46.09349,35.6177Z"
     transform="translate(-153.82518 -160.44517)"
     fill="#e44336"
     id="path4671" />
  <path
     d="M684.955,446.01869s-20.95158-23.04675-25.1419-18.85643-16.76127,6.28548-14.66611,14.66611,46.09349,35.6177,46.09349,35.6177Z"
     transform="translate(-153.82518 -160.44517)"
     opacity="0.1"
     id="path4673" />
  <path
     d="M804.379,443.92353V460.6848s2.09516,37.71286-10.47579,35.6177S787.61773,462.78,787.61773,462.78l2.09516-18.85643Z"
     transform="translate(-153.82518 -160.44517)"
     fill="#9f616a"
     id="path4675" />
  <path
     d="M798.09353,565.44274S816.95,594.775,823.23543,596.87012s39.808,20.95159,43.99834,39.808L896.566,674.391l-14.66611,18.85643s-67.04508-71.2354-85.90151-77.52088-37.71286-37.71286-37.71286-37.71286Z"
     transform="translate(-153.82518 -160.44517)"
     fill="#9f616a"
     id="path4677" />
  <path
     d="M649.33725,517.25409s-39.808,6.28547-33.52254,31.42738,67.04508,77.52088,67.04508,77.52088L684.955,638.7733l23.04675,4.19032,10.47579-10.4758-2.09515-6.28547S691.24043,603.1556,689.14527,594.775s-25.1419-41.90317-35.6177-43.99833l14.66611-8.38064Z"
     transform="translate(-153.82518 -160.44517)"
     fill="#9f616a"
     id="path4679" />
  <path
     d="M890.28052,674.391s-8.38064-12.57095,4.19031-10.4758,20.95159,4.19032,20.95159,12.571-10.47579,67.04508-23.04675,62.85476-2.09515-23.04675-2.09515-23.04675-6.28548-16.76127-10.4758-18.85643-4.19032-12.57095,0-12.57095S892.37567,678.58132,890.28052,674.391Z"
     transform="translate(-153.82518 -160.44517)"
     fill="#2f2e41"
     id="path4681" />
  <path
     d="M712.192,628.2975s0-10.47579,8.38063,0,12.571,18.85643,4.19032,25.14191S687.05011,674.391,687.05011,674.391s-31.42738,6.28547-27.23706-8.38064c0,0,20.95159-10.47579,20.95159-18.85643s0-23.04674,6.28547-18.85643S712.192,634.583,712.192,628.2975Z"
     transform="translate(-153.82518 -160.44517)"
     fill="#2f2e41"
     id="path4683" />
  <path
     d="M752,471.16059s29.33223,4.19032,27.23707,46.0935c0,0,37.71286,37.71286,27.23706,50.28381s-33.52254,35.6177-41.90317,29.33222S731.04845,542.396,731.04845,542.396s-58.66445,20.95159-69.14024,10.4758-20.95159-35.6177-20.95159-35.6177l52.379-27.23707Z"
     transform="translate(-153.82518 -160.44517)"
     fill="#2f2e41"
     id="path4685" />
  <circle
     cx="516.46366"
     cy="166.14947"
     r="25.14191"
     fill="#9f616a"
     id="circle4687" />
  <path
     d="M689.14527,328.6898s14.66611,23.04674,18.85643,25.1419-29.33222,23.04675-29.33222,23.04675,0-27.23707-10.4758-33.52254Z"
     transform="translate(-153.82518 -160.44517)"
     fill="#9f616a"
     id="path4689" />
  <path
     d="M691.24043,351.73654s33.52254-10.47579,39.808,6.28548S752,406.21067,749.90488,427.16226s-6.28548,16.76127,0,23.04675,10.47579,2.09516,8.38063,10.47579-4.19032,8.38064-2.09516,12.57095-25.1419,18.85643-48.18865,20.95159L684.955,496.3025s0-37.71286-4.19031-46.09349-12.571-25.14191-12.571-31.42739V402.15078a63.6067,63.6067,0,0,1,8.38063-31.55779v0S689.14527,351.73654,691.24043,351.73654Z"
     transform="translate(-153.82518 -160.44517)"
     fill="#e44336"
     id="path4691" />
  <path
     d="M716.38234,360.11718s77.52087,6.28547,85.90151,27.23706S814.8548,450.209,806.47416,450.209s-18.85643,4.19031-20.95158,0-10.4758-46.0935-12.571-46.0935S708.0017,397.83,708.0017,397.83,680.76464,364.3075,716.38234,360.11718Z"
     transform="translate(-153.82518 -160.44517)"
     fill="#e44336"
     id="path4693" />
  <path
     d="M669.27866,320.36163s-6.67194-11.59461-15.01174-1.52364-21.907-8.43622-19.82426-12.38526,9.4377.17757,22.04213-3.94283,36.88462-12.51446,40.951,14.86728-5.61826,24.51117-5.61826,24.51117-4.43915-24.26318-8.45126-17.29375l-4.01211,6.96943-3.48019.85654Z"
     transform="translate(-153.82518 -160.44517)"
     fill="#2f2e41"
     id="path4695" />
  <g
     id="g5559"
     transform="matrix(0.17578868,0,0,0.17578868,116.41692,93.093853)">
    <path
       fill="#c0201c"
       d="M 100,615 25,360 260,25 715,615 Z"
       class="seg3"
       shape-rendering="geometricPrecision"
       id="path132" />
    <path
       fill="#fd504e"
       d="M 25,360 260,25 600,130 715,615 Z"
       class="seg2"
       shape-rendering="geometricPrecision"
       id="path134" />
    <path
       fill="#cd4948"
       d="M 260,25 600,130 940,25 715,615 Z"
       class="seg1"
       shape-rendering="geometricPrecision"
       id="path136" />
    <path
       fill="#fd504e"
       d="M 600,130 940,25 1175,360 715,615 Z"
       class="seg2"
       shape-rendering="geometricPrecision"
       id="path138" />
    <path
       fill="#c0201c"
       d="m 940,25 235,335 -75,255 H 715 Z"
       class="seg3"
       shape-rendering="geometricPrecision"
       id="path140" />
    <path
       fill="#7e120e"
       d="M 1175,360 1100,615 600,1055 715,615 Z"
       class="seg4"
       shape-rendering="geometricPrecision"
       id="path142" />
    <path
       fill="#610f0d"
       d="M 1100,615 600,1055 100,615 h 615 z"
       class="seg5"
       shape-rendering="geometricPrecision"
       id="path144" />
    <path
       fill="#7e120e"
       d="M 600,1055 100,615 25,360 715,615 Z"
       class="seg4"
       shape-rendering="geometricPrecision"
       id="path146" />
    <path
       fill="#c0201c"
       d="M 100,615 25,360 715,615 Z"
       class="seg3"
       shape-rendering="geometricPrecision"
       id="path148" />
  </g>
  <metadata
     id="metadata6459">
    <rdf:RDF>
      <cc:Work
         rdf:about="">
        <dc:title>fitness_stats</dc:title>
      </cc:Work>
    </rdf:RDF>
  </metadata>
</svg>
