<?xml version="1.0" encoding="utf-8" standalone="no" ?><!DOCTYPE svg PUBLIC "-//W3C//DTD SVG 1.1//EN" "http://www.w3.org/Graphics/SVG/1.1/DTD/svg11.dtd"><svg xmlns="http://www.w3.org/2000/svg" width="1200" height="1200"><!--This file is Copyright © 2018 Benjie Gillam. All rights reserved.--><path fill="#c0201c" d="M100 615L25 360 260 25l455 590z" class="seg3" shape-rendering="geometricPrecision"/><path fill="#fd504e" d="M25 360L260 25l340 105 115 485z" class="seg2" shape-rendering="geometricPrecision"/><path fill="#cd4948" d="M260 25l340 105L940 25 715 615z" class="seg1" shape-rendering="geometricPrecision"/><path fill="#fd504e" d="M600 130L940 25l235 335-460 255z" class="seg2" shape-rendering="geometricPrecision"/><path fill="#c0201c" d="M940 25l235 335-75 255H715z" class="seg3" shape-rendering="geometricPrecision"/><path fill="#7e120e" d="M1175 360l-75 255-500 440 115-440z" class="seg4" shape-rendering="geometricPrecision"/><path fill="#610f0d" d="M1100 615l-500 440-500-440h615z" class="seg5" shape-rendering="geometricPrecision"/><path fill="#7e120e" d="M600 1055L100 615 25 360l690 255z" class="seg4" shape-rendering="geometricPrecision"/><path fill="#c0201c" d="M100 615L25 360l690 255z" class="seg3" shape-rendering="geometricPrecision"/><!--polygon points="25,360 260,25 260,25 600,130 600,130 940,25 940,25 1175,360 1175,360 1100,615 1100,615 600,1055 600,1055 100,615 100,615 25,360" class="heart-outline" /--></svg>