<?xml version="1.0" encoding="UTF-8" standalone="no"?>
<svg
   data-name="Layer 1"
   width="971.0518"
   height="628.38145"
   viewBox="0 0 971.0518 628.38145"
   version="1.1"
   id="svg240"
   sodipodi:docname="postgraphile-developer2.svg"
   inkscape:version="1.2.1 (9c6d41e4, 2022-07-14)"
   xmlns:inkscape="http://www.inkscape.org/namespaces/inkscape"
   xmlns:sodipodi="http://sodipodi.sourceforge.net/DTD/sodipodi-0.dtd"
   xmlns="http://www.w3.org/2000/svg"
   xmlns:svg="http://www.w3.org/2000/svg">
  <defs
     id="defs244" />
  <sodipodi:namedview
     id="namedview242"
     pagecolor="#ffffff"
     bordercolor="#666666"
     borderopacity="1.0"
     inkscape:showpageshadow="2"
     inkscape:pageopacity="0.0"
     inkscape:pagecheckerboard="0"
     inkscape:deskcolor="#d1d1d1"
     showgrid="false"
     inkscape:zoom="0.75113609"
     inkscape:cx="494.58414"
     inkscape:cy="342.14838"
     inkscape:window-width="1443"
     inkscape:window-height="872"
     inkscape:window-x="2171"
     inkscape:window-y="313"
     inkscape:window-maximized="0"
     inkscape:current-layer="svg240" />
  <path
     d="M 429.13771,250.17424 C 485.51716,195.47387 458.91525,112.6259 507.29581,65.235746 595.03118,-10.216258 735.76987,-9.7272843 845.29585,30.468967 944.17115,81.315919 964.55153,159.50974 952.54633,309.21394 949.86011,421.64139 938.65502,525.13577 839.11892,584.82795 804.06387,605.8506 735.46844,620.61987 695.06863,615.42644 660.01423,610.92017 618.84383,597.13683 583.9544,591.46382 392.31582,491.85351 422.93684,322.74846 429.13771,250.17424 Z"
     fill="#f2f2f2"
     id="path447"
     style="fill:#e6e6e6;fill-opacity:1;stroke-width:1.37812"
     sodipodi:nodetypes="ccccsscc" />
  <g
     id="g1445"
     transform="matrix(0.90562581,0,0,0.90562581,80.872486,13.651505)">
    <rect
       x="539.05084"
       y="33.052807"
       width="210.24901"
       height="34.710583"
       rx="3.6043253"
       fill="#2d80d3"
       id="rect633"
       ry="3.6043253"
       style="stroke-width:3.64236" />
    <rect
       x="578.63049"
       y="114.18366"
       width="327.19684"
       height="34.710583"
       rx="3.6043253"
       fill="#e6e6e6"
       id="rect635"
       ry="3.6043253"
       style="fill:#b4e1f3;fill-opacity:1;stroke-width:3.2004" />
    <rect
       x="578.63049"
       y="183.60475"
       width="327.19684"
       height="34.710583"
       rx="3.6043253"
       fill="#e6e6e6"
       id="rect637"
       ry="3.6043253"
       style="fill:#b4e1f3;fill-opacity:1;stroke-width:3.2004" />
    <text
       xml:space="preserve"
       style="font-size:85.3441px;line-height:1.25;font-family:Tahoma;-inkscape-font-specification:Tahoma;text-align:center;letter-spacing:0px;text-anchor:middle;fill:#2d80d3;fill-opacity:1;stroke-width:3.2004"
       x="771.94104"
       y="67.535248"
       id="text937"><tspan
         sodipodi:role="line"
         id="tspan935"
         x="771.94104"
         y="67.535248"
         style="font-style:normal;font-variant:normal;font-weight:bold;font-stretch:normal;font-family:Courier;-inkscape-font-specification:'Courier Bold';stroke-width:3.2004">(</tspan></text>
    <text
       xml:space="preserve"
       style="font-size:85.3441px;line-height:1.25;font-family:Tahoma;-inkscape-font-specification:Tahoma;text-align:center;letter-spacing:0px;text-anchor:middle;fill:#2d80d3;fill-opacity:1;stroke-width:3.2004"
       x="577.38904"
       y="286.76648"
       id="text1405"><tspan
         sodipodi:role="line"
         id="tspan1403"
         x="577.38904"
         y="286.76648"
         style="font-style:normal;font-variant:normal;font-weight:bold;font-stretch:normal;font-family:Courier;-inkscape-font-specification:'Courier Bold';stroke-width:3.2004">);</tspan></text>
    <rect
       x="539.05084"
       y="341.38687"
       width="210.24901"
       height="34.710583"
       rx="3.6043253"
       fill="#2d80d3"
       id="rect633-3"
       ry="3.6043253"
       style="stroke-width:3.64236" />
    <rect
       x="578.63049"
       y="422.51773"
       width="327.19684"
       height="34.710583"
       rx="3.6043253"
       fill="#e6e6e6"
       id="rect635-7"
       ry="3.6043253"
       style="fill:#b4e1f3;fill-opacity:1;stroke-width:3.2004" />
    <rect
       x="578.63049"
       y="491.93881"
       width="327.19684"
       height="34.710583"
       rx="3.6043253"
       fill="#e6e6e6"
       id="rect637-9"
       ry="3.6043253"
       style="fill:#b4e1f3;fill-opacity:1;stroke-width:3.2004" />
    <text
       xml:space="preserve"
       style="font-size:85.3441px;line-height:1.25;font-family:Tahoma;-inkscape-font-specification:Tahoma;text-align:center;letter-spacing:0px;text-anchor:middle;fill:#2d80d3;fill-opacity:1;stroke-width:3.2004"
       x="771.94104"
       y="375.86932"
       id="text937-0"><tspan
         sodipodi:role="line"
         id="tspan935-2"
         x="771.94104"
         y="375.86932"
         style="font-style:normal;font-variant:normal;font-weight:bold;font-stretch:normal;font-family:Courier;-inkscape-font-specification:'Courier Bold';stroke-width:3.2004">(</tspan></text>
    <text
       xml:space="preserve"
       style="font-size:85.3441px;line-height:1.25;font-family:Tahoma;-inkscape-font-specification:Tahoma;text-align:center;letter-spacing:0px;text-anchor:middle;fill:#2d80d3;fill-opacity:1;stroke-width:3.2004"
       x="577.38904"
       y="595.10052"
       id="text1405-3"><tspan
         sodipodi:role="line"
         id="tspan1403-9"
         x="577.38904"
         y="595.10052"
         style="font-style:normal;font-variant:normal;font-weight:bold;font-stretch:normal;font-family:Courier;-inkscape-font-specification:'Courier Bold';stroke-width:3.2004">);</tspan></text>
  </g>
  <g
     id="g827"
     transform="translate(-684.29677,-2.6626333)">
    <path
       d="m 847.93141,636.215 v 0 a 249.62642,249.62642 0 0 1 -2.09461,-54.11121 l 2.09461,-29.88879 v 0 c -11.54175,22.96552 -8.93335,53.1922 0,83.99994 z"
       transform="translate(-114.4741,-135.80928)"
       fill="#cacaca"
       id="path182" />
    <path
       d="m 856.93141,641.215 v 0 a 183.49726,183.49726 0 0 1 -1.00781,-32.209 l 1.00781,-17.791 v 0 c -5.5531,13.67 -4.2981,31.662 0,50 z"
       transform="translate(-114.4741,-135.80928)"
       fill="#cacaca"
       id="path184" />
    <path
       d="m 896.93606,663.21738 v 10 a 3.01557,3.01557 0 0 1 -3,3 h -5 a 0.99647,0.99647 0 0 0 -1,1 v 82 a 3.01557,3.01557 0 0 1 -3,3 h -61 a 3.0023,3.0023 0 0 1 -3,-3 v -82 a 1.003,1.003 0 0 0 -1,-1 h -6 a 3.0023,3.0023 0 0 1 -3,-3 v -10 a 2.99585,2.99585 0 0 1 3,-3 h 80 a 3.009,3.009 0 0 1 3,3 z"
       transform="translate(-114.4741,-135.80928)"
       fill="#f2f2f2"
       id="path186"
       style="fill:#cacaca;fill-opacity:1" />
    <rect
       x="706.55182"
       y="542.50806"
       width="67"
       height="3"
       fill="#e6e6e6"
       id="rect188"
       style="fill:#919191;fill-opacity:1" />
    <path
       d="m 887.93606,722.46217 c -22.41974,9.27794 -45.084,9.38019 -68,0 V 701.327 a 106.78989,106.78989 0 0 1 68,0 z"
       transform="translate(-114.4741,-135.80928)"
       fill="#e6e6e6"
       id="path190"
       style="fill:#b4e1f3;fill-opacity:1" />
  </g>
  <circle
     cx="451.48125"
     cy="213.98538"
     r="36.39575"
     fill="#2f2e41"
     id="circle192" />
  <path
     d="M576.09529,314.40075a36.40078,36.40078,0,0,1,32.03936,53.66882,36.38707,36.38707,0,1,0-60.4544-39.98248A36.306,36.306,0,0,1,576.09529,314.40075Z"
     transform="translate(-114.4741 -135.80928)"
     fill="#2f2e41"
     id="path194" />
  <circle
     cx="383.4705"
     cy="106.99576"
     r="106.91249"
     fill="#2f2e41"
     id="circle196" />
  <path
     d="M414.03572,176.47092A106.89327,106.89327,0,0,1,562.20289,165.261c-.87427-.83106-1.73926-1.66886-2.6477-2.47643a106.91251,106.91251,0,0,0-142.0661,159.80724c.90844.80758,1.84179,1.56848,2.76953,2.33935A106.89336,106.89336,0,0,1,414.03572,176.47092Z"
     transform="translate(-114.4741 -135.80928)"
     fill="#2f2e41"
     id="path198" />
  <circle
     cx="382.5645"
     cy="144.14332"
     r="68.85889"
     fill="#ffb8b8"
     id="circle200" />
  <path
     d="M532.21437,367.50466l-73.68847,3.31269s6.15038,38.10812-33.71528,41.73229-76.10721-7.24829-90.60382,19.93283-8.24829,123.96607-8.24829,123.96607,27.18115,97.85211,48.92605,112.34875,212.01291-5.43622,212.01291-5.43622L666.5259,562.81735l-2.697-77.53951c-1.40839-40.49105-38.37693-70.89154-78.1935-63.39829q-1.17287.22073-2.36205.47539s-8.74743-6.53759-32.74743-18.53759C535.8492,396.479,532.21437,367.50466,532.21437,367.50466Z"
     transform="translate(-114.4741 -135.80928)"
     fill="#cacaca"
     id="path202" />
  <path
     d="M372.26039,410.73757s17.5138,31.77787,10.26551,77.07978,23.164,141.11428,23.164,141.11428l21.74494-5.43622s-14.49662-94.228-10.87244-115.9729,4.62414-85.91251-13.49661-96.78494S372.26039,410.73757,372.26039,410.73757Z"
     transform="translate(-114.4741 -135.80928)"
     fill="#2f2e41"
     id="path204" />
  <path
     d="M581.99873,427.39977l7.61682,200.62579,14.49658,9.06037s20.83887-220.16727,9.96643-220.16727H591.95607a9.97041,9.97041,0,0,0-9.9704,9.97043Q581.98567,427.14457,581.99873,427.39977Z"
     transform="translate(-114.4741 -135.80928)"
     fill="#2f2e41"
     id="path206" />
  <circle
     cx="301.18217"
     cy="479.53178"
     r="9.06039"
     fill="#2d80d3"
     id="circle208" />
  <circle
     cx="482.38982"
     cy="488.59217"
     r="9.06038"
     fill="#2d80d3"
     id="circle210" />
  <polygon
     points="323.672 58.069 323.672 126.928 339.619 126.928 359.914 105.183 357.196 126.928 427.685 126.928 423.336 105.183 432.034 126.928 443.269 126.928 443.269 58.069 323.672 58.069"
     fill="#2f2e41"
     id="polygon212" />
  <ellipse
     cx="312.79955"
     cy="129.6467"
     rx="5.43622"
     ry="9.96642"
     fill="#ffb8b8"
     id="ellipse214" />
  <ellipse
     cx="452.32945"
     cy="129.6467"
     rx="5.43622"
     ry="9.96642"
     fill="#ffb8b8"
     id="ellipse216" />
  <path
     d="M717.62587,744.25542v6.07a13.34036,13.34036,0,0,1-.91,4.87,13.68347,13.68347,0,0,1-.97,2,13.4372,13.4372,0,0,1-11.55,6.56h-446.55a13.43737,13.43737,0,0,1-11.55-6.56,13.68965,13.68965,0,0,1-.97-2,13.34125,13.34125,0,0,1-.91-4.87v-6.07a13.42638,13.42638,0,0,1,13.42282-13.43h25.74717v-2.83a.55906.55906,0,0,1,.55816-.56h13.43183a.5591.5591,0,0,1,.56.55817v2.83185h8.39v-2.83a.55906.55906,0,0,1,.55816-.56h13.43183a.5591.5591,0,0,1,.56.55817v2.83185h8.4v-2.83a.55906.55906,0,0,1,.55817-.56h13.43182a.5591.5591,0,0,1,.56.55817v2.83185h8.39v-2.83a.55906.55906,0,0,1,.55817-.56h13.43182a.5591.5591,0,0,1,.56.55817v2.83185h8.39v-2.83a.55907.55907,0,0,1,.55817-.56h13.43182a.5591.5591,0,0,1,.56.55817v2.83185h8.4v-2.83a.55906.55906,0,0,1,.55816-.56h13.43183a.5591.5591,0,0,1,.56.55817v2.83185h8.39v-2.83a.55908.55908,0,0,1,.55817-.56H526.80586a.55908.55908,0,0,1,.56.55817v2.83185h8.4v-2.83a.55908.55908,0,0,1,.55817-.56h13.43182a.5655.5655,0,0,1,.56.56v2.83h8.39v-2.83a.55908.55908,0,0,1,.55817-.56h13.43182a.55908.55908,0,0,1,.56.55817v2.83185h8.39v-2.83a.55908.55908,0,0,1,.55816-.56h13.43183a.55908.55908,0,0,1,.56.55817v2.83185h8.4v-2.83a.55908.55908,0,0,1,.55816-.56h13.43183a.557.557,0,0,1,.55.56v2.83h8.4v-2.83a.55908.55908,0,0,1,.55817-.56h13.43182a.55908.55908,0,0,1,.56.55817v2.83185h8.39v-2.83a.55908.55908,0,0,1,.55817-.56h13.43182a.55908.55908,0,0,1,.56.55817v2.83185h39.17a13.42639,13.42639,0,0,1,13.43,13.42273Z"
     transform="translate(-114.4741 -135.80928)"
     fill="#3f3d56"
     id="path218" />
  <rect
     y="626.38145"
     width="971.0518"
     height="2"
     fill="#3f3d56"
     id="rect220" />
  <path
     d="M681.66835,488.62124H272.6248a11.2586,11.2586,0,0,0-11.25861,11.2586V727.79131A11.25867,11.25867,0,0,0,272.62477,739.05H681.66835a11.25866,11.25866,0,0,0,11.2586-11.25867V499.87984a11.2586,11.2586,0,0,0-11.2586-11.2586Z"
     transform="translate(-114.4741 -135.80928)"
     fill="#3f3d56"
     id="path222" />
  <circle
     cx="362.99998"
     cy="432.38142"
     r="25"
     fill="#2d80d3"
     id="circle224" />
</svg>
