<?xml version="1.0" encoding="UTF-8" standalone="no"?>
<svg
   data-name="Layer 1"
   width="880.16016"
   height="400"
   viewBox="0 0 880.16014 400.00001"
   version="1.1"
   id="svg1359"
   sodipodi:docname="postgraphile-developers.svg"
   inkscape:version="1.2.1 (9c6d41e4, 2022-07-14)"
   xmlns:inkscape="http://www.inkscape.org/namespaces/inkscape"
   xmlns:sodipodi="http://sodipodi.sourceforge.net/DTD/sodipodi-0.dtd"
   xmlns="http://www.w3.org/2000/svg"
   xmlns:svg="http://www.w3.org/2000/svg">
  <defs
     id="defs1363" />
  <sodipodi:namedview
     id="namedview1361"
     pagecolor="#ffffff"
     bordercolor="#666666"
     borderopacity="1.0"
     inkscape:showpageshadow="2"
     inkscape:pageopacity="0.0"
     inkscape:pagecheckerboard="0"
     inkscape:deskcolor="#d1d1d1"
     showgrid="false"
     inkscape:zoom="1.158322"
     inkscape:cx="447.63028"
     inkscape:cy="300.43459"
     inkscape:window-width="1739"
     inkscape:window-height="1072"
     inkscape:window-x="1816"
     inkscape:window-y="150"
     inkscape:window-maximized="0"
     inkscape:current-layer="svg1359" />
  <g
     id="g4385"
     transform="translate(-6.875e-6,-194.78117)">
    <path
       d="m 788.1325,421.51155 a 171.85535,171.85535 0 0 1 -7.4426,53.77281 c -0.18624,0.63255 -0.40951,1.26511 -0.63278,1.89789 H 670.50207 a 98.32226,98.32226 0 0 1 7.40558,-22.32779 c 9.117,-19.35079 24.00219,-35.91062 38.70137,-52.35869 20.24387,-22.66281 40.004,-45.13937 43.13,-74.612 a 169.25824,169.25824 0 0 1 19.053,39.33415 46.23132,46.23132 0 0 0 -15.29449,9.37752 c -1.22809,1.15359 -2.53068,2.82822 -1.89789,4.42835 0.5953,1.33961 2.23268,1.78638 3.684,2.08392 3.498,0.66981 6.99606,1.33961 10.49409,1.9724 2.75373,0.558 5.5447,1.07909 8.33568,1.60013 a 182.72887,182.72887 0 0 1 4.01909,34.83131 z"
       fill="#f2f2f2"
       id="path1121"
       style="fill:#e6e6e6;fill-opacity:1" />
    <path
       d="m 880.16017,409.45458 c -17.5647,10.6801 -28.7286,27.20268 -37.8456,45.69742 a 46.7431,46.7431 0 0 0 -21.24867,11.1639 c -1.26534,1.15382 -2.5677,2.82822 -1.8979,4.42835 0.55829,1.33984 2.23292,1.78638 3.684,2.08392 3.46078,0.67 6.99606,1.33984 10.45684,1.9724 -0.33479,0.78155 -0.6698,1.60013 -1.00459,2.38168 H 716.19974 a 164.17446,164.17446 0 0 1 17.4529,-19.94614 c 1.37686,-1.37709 2.791,-2.67945 4.24233,-4.01907 a 173.65293,173.65293 0 0 1 50.23753,-31.70553 176.73359,176.73359 0 0 1 92.02767,-12.05693 z"
       fill="#f2f2f2"
       id="path1123"
       style="fill:#e6e6e6;fill-opacity:1" />
    <path
       d="M 735.55054,477.18225 H 632.17275 a 167.93161,167.93161 0 0 1 0.149,-24.85824 c 4.13059,-51.09359 31.92858,-99.768 73.86769,-129.24085 -5.35868,19.09027 -2.605,38.069 2.977,57.12206 -0.78133,0.26052 -1.56288,0.48379 -2.26994,0.78133 a 46.23567,46.23567 0 0 0 -15.29448,9.37775 c -1.22809,1.15359 -2.53046,2.82822 -1.8979,4.42835 0.55806,1.33961 2.23269,1.78615 3.684,2.08392 3.498,0.6698 6.99606,1.33961 10.45684,1.9724 2.791,0.558 5.582,1.07909 8.37292,1.63738 1.30237,0.22326 2.605,0.48356 3.90732,0.74407 0.186,0.44654 0.29777,0.85606 0.48379,1.26535 6.54952,18.0482 13.69435,36.24541 17.04361,54.74038 a 127.77792,127.77792 0 0 1 1.71188,14.02914 c 0.11159,1.9724 0.18606,3.94457 0.18606,5.91696 z"
       fill="#f2f2f2"
       id="path1125" />
    <path
       d="m 172.1325,421.51155 a 171.85535,171.85535 0 0 1 -7.4426,53.77281 c -0.18624,0.63255 -0.40951,1.26511 -0.63278,1.89789 H 54.50207 a 98.32226,98.32226 0 0 1 7.40558,-22.32779 c 9.117,-19.35079 24.00219,-35.91062 38.70137,-52.35869 20.24387,-22.66281 40.004,-45.13937 43.13,-74.612 a 169.25824,169.25824 0 0 1 19.053,39.33415 46.23132,46.23132 0 0 0 -15.29449,9.37752 c -1.22809,1.15359 -2.53068,2.82822 -1.89789,4.42835 0.5953,1.33961 2.23268,1.78638 3.684,2.08392 3.498,0.66981 6.99606,1.33961 10.49409,1.9724 2.75373,0.558 5.5447,1.07909 8.33568,1.60013 a 182.72887,182.72887 0 0 1 4.01909,34.83131 z"
       fill="#f2f2f2"
       id="path1127"
       style="fill:#e6e6e6;fill-opacity:1" />
    <path
       d="m 264.16014,409.45458 c -17.56465,10.6801 -28.72854,27.20268 -37.84554,45.69742 a 46.7431,46.7431 0 0 0 -21.2487,11.1639 c -1.26534,1.15382 -2.5677,2.82822 -1.8979,4.42835 0.55829,1.33984 2.23292,1.78638 3.68405,2.08392 3.46078,0.67 6.99606,1.33984 10.45684,1.9724 -0.33479,0.78155 -0.6698,1.60013 -1.00459,2.38168 H 100.19974 a 164.17446,164.17446 0 0 1 17.4529,-19.94614 c 1.37686,-1.37709 2.791,-2.67945 4.24233,-4.01907 a 173.65293,173.65293 0 0 1 50.23753,-31.70553 176.73359,176.73359 0 0 1 92.02764,-12.05693 z"
       fill="#f2f2f2"
       id="path1129" />
    <path
       d="m 208.94,458.28998 a 26.71127,26.71127 0 0 0 1.93,9.98 25.54045,25.54045 0 0 0 1.75,3.56 27.096,27.096 0 0 0 3.02,4.18 26.7604,26.7604 0 0 0 20.12,9.11 h 391.31 a 26.82,26.82 0 0 0 0,-53.64 H 235.76 a 26.84644,26.84644 0 0 0 -26.82,26.81 z"
       fill="#e6e6e6"
       id="path1145"
       style="fill:#e6e6e6;fill-opacity:1" />
    <path
       d="m 0,473.60999 a 289.004,289.004 0 0 0 28.12,28.95 H 834.7 a 289.004,289.004 0 0 0 28.11997,-28.95 z"
       fill="#3f3d56"
       id="path1151" />
    <path
       d="m 396.69,376.79999 v 102.56 h 71.85 v -102.56 a 3.448,3.448 0 0 0 -2.43,-3.3 3.17457,3.17457 0 0 0 -1.03,-0.16 h -64.92003 a 3.46327,3.46327 0 0 0 -3.46997,3.46 z m 28.04,35.24 a 7.67034,7.67034 0 0 1 15.34,0 v 11.9 a 7.6701,7.6701 0 0 1 -15.34,0 z"
       fill="#2f2e41"
       id="path1153" />
    <path
       d="m 396.47007,476.08002 v 9.89 a 1.94622,1.94622 0 0 0 1.93,1.94 h 68.43 a 1.93971,1.93971 0 0 0 1.93,-1.94 v -9.89 z"
       fill="#3f3d56"
       id="path1155" />
    <path
       d="m 283.65997,222.28003 v 187.26 a 9.00714,9.00714 0 0 0 9,9 h 277.5 a 9.0071,9.0071 0 0 0 9,-9 v -187.26 a 9.01147,9.01147 0 0 0 -9,-8.99 h -277.5 a 9.01151,9.01151 0 0 0 -9,8.99 z"
       fill="#3f3d56"
       id="path1157" />
    <path
       d="m 290.16998,224.60999 v 182.62 a 4.81834,4.81834 0 0 0 4.81,4.81 h 272.87 a 4.81829,4.81829 0 0 0 4.81,-4.81 v -182.62 a 4.82046,4.82046 0 0 0 -4.81,-4.82 h -272.87 a 4.82051,4.82051 0 0 0 -4.81,4.82 z"
       fill="#2d80d3"
       id="path1159" />
    <path
       d="m 345.81,490.23999 a 2.94839,2.94839 0 0 0 2.32,1.11 h 162.34007 a 2.98724,2.98724 0 0 0 2.92,-3.6 l -2.52,-11.97 a 2.99262,2.99262 0 0 0 -1.86,-2.17 2.89451,2.89451 0 0 0 -1.06,-0.2 h -157.31 a 2.89422,2.89422 0 0 0 -1.06,0.2 2.99237,2.99237 0 0 0 -1.86,2.17 l -2.52,11.97 a 2.98494,2.98494 0 0 0 0.60993,2.49 z"
       fill="#2f2e41"
       id="path1161" />
    <rect
       x="-506.79703"
       y="-478.56577"
       width="5"
       height="3"
       rx="0.48819"
       transform="scale(-1)"
       fill="#3f3d56"
       id="rect1163"
       ry="0.48819" />
    <rect
       x="-496.79703"
       y="-478.56577"
       width="5"
       height="3"
       rx="0.48819"
       transform="scale(-1)"
       fill="#3f3d56"
       id="rect1165"
       ry="0.48819" />
    <rect
       x="-486.79703"
       y="-478.56577"
       width="5"
       height="3"
       rx="0.48819"
       transform="scale(-1)"
       fill="#3f3d56"
       id="rect1167"
       ry="0.48819" />
    <rect
       x="-476.79703"
       y="-478.56577"
       width="5"
       height="3"
       rx="0.48819"
       transform="scale(-1)"
       fill="#3f3d56"
       id="rect1169"
       ry="0.48819" />
    <rect
       x="-466.79703"
       y="-478.56577"
       width="5"
       height="3"
       rx="0.48819"
       transform="scale(-1)"
       fill="#3f3d56"
       id="rect1171"
       ry="0.48819" />
    <rect
       x="-456.79703"
       y="-478.56577"
       width="5"
       height="3"
       rx="0.48819"
       transform="scale(-1)"
       fill="#3f3d56"
       id="rect1173"
       ry="0.48819" />
    <rect
       x="-446.79703"
       y="-478.56577"
       width="5"
       height="3"
       rx="0.48819"
       transform="scale(-1)"
       fill="#3f3d56"
       id="rect1175"
       ry="0.48819" />
    <rect
       x="-436.79703"
       y="-478.56577"
       width="5"
       height="3"
       rx="0.48819"
       transform="scale(-1)"
       fill="#3f3d56"
       id="rect1177"
       ry="0.48819" />
    <rect
       x="-426.797"
       y="-478.56577"
       width="5"
       height="3"
       rx="0.48819"
       transform="scale(-1)"
       fill="#3f3d56"
       id="rect1179"
       ry="0.48819" />
    <rect
       x="-416.797"
       y="-478.56577"
       width="5"
       height="3"
       rx="0.48819"
       transform="scale(-1)"
       fill="#3f3d56"
       id="rect1181"
       ry="0.48819" />
    <rect
       x="-406.797"
       y="-478.56577"
       width="5"
       height="3"
       rx="0.48819"
       transform="scale(-1)"
       fill="#3f3d56"
       id="rect1183"
       ry="0.48819" />
    <rect
       x="-396.797"
       y="-478.56577"
       width="5"
       height="3"
       rx="0.48819"
       transform="scale(-1)"
       fill="#3f3d56"
       id="rect1185"
       ry="0.48819" />
    <rect
       x="-386.797"
       y="-478.56577"
       width="5"
       height="3"
       rx="0.48819"
       transform="scale(-1)"
       fill="#3f3d56"
       id="rect1187"
       ry="0.48819" />
    <rect
       x="-376.797"
       y="-478.56577"
       width="5"
       height="3"
       rx="0.48819"
       transform="scale(-1)"
       fill="#3f3d56"
       id="rect1189"
       ry="0.48819" />
    <rect
       x="-366.797"
       y="-478.56577"
       width="5"
       height="3"
       rx="0.48819"
       transform="scale(-1)"
       fill="#3f3d56"
       id="rect1191"
       ry="0.48819" />
    <rect
       x="-356.797"
       y="-478.56577"
       width="5"
       height="3"
       rx="0.48819"
       transform="scale(-1)"
       fill="#3f3d56"
       id="rect1193"
       ry="0.48819" />
    <rect
       x="-506.91519"
       y="-483.56577"
       width="5"
       height="3"
       rx="0.48819"
       transform="scale(-1)"
       fill="#3f3d56"
       id="rect1195"
       ry="0.48819" />
    <rect
       x="-496.91519"
       y="-483.56577"
       width="5"
       height="3"
       rx="0.48819"
       transform="scale(-1)"
       fill="#3f3d56"
       id="rect1197"
       ry="0.48819" />
    <rect
       x="-486.91519"
       y="-483.56577"
       width="5"
       height="3"
       rx="0.48819"
       transform="scale(-1)"
       fill="#3f3d56"
       id="rect1199"
       ry="0.48819" />
    <rect
       x="-476.91519"
       y="-483.56577"
       width="5"
       height="3"
       rx="0.48819"
       transform="scale(-1)"
       fill="#3f3d56"
       id="rect1201"
       ry="0.48819" />
    <rect
       x="-466.91519"
       y="-483.56577"
       width="5"
       height="3"
       rx="0.48819"
       transform="scale(-1)"
       fill="#3f3d56"
       id="rect1203"
       ry="0.48819" />
    <rect
       x="-456.91519"
       y="-483.56577"
       width="5"
       height="3"
       rx="0.48819"
       transform="scale(-1)"
       fill="#3f3d56"
       id="rect1205"
       ry="0.48819" />
    <rect
       x="-446.91519"
       y="-483.56577"
       width="5"
       height="3"
       rx="0.48819"
       transform="scale(-1)"
       fill="#3f3d56"
       id="rect1207"
       ry="0.48819" />
    <rect
       x="-436.91519"
       y="-483.56577"
       width="5"
       height="3"
       rx="0.48819"
       transform="scale(-1)"
       fill="#3f3d56"
       id="rect1209"
       ry="0.48819" />
    <rect
       x="-426.91519"
       y="-483.56577"
       width="5"
       height="3"
       rx="0.48819"
       transform="scale(-1)"
       fill="#3f3d56"
       id="rect1211"
       ry="0.48819" />
    <rect
       x="-416.91519"
       y="-483.56577"
       width="5"
       height="3"
       rx="0.48819"
       transform="scale(-1)"
       fill="#3f3d56"
       id="rect1213"
       ry="0.48819" />
    <rect
       x="-406.91519"
       y="-483.56577"
       width="5"
       height="3"
       rx="0.48819"
       transform="scale(-1)"
       fill="#3f3d56"
       id="rect1215"
       ry="0.48819" />
    <rect
       x="-396.91519"
       y="-483.56577"
       width="5"
       height="3"
       rx="0.48819"
       transform="scale(-1)"
       fill="#3f3d56"
       id="rect1217"
       ry="0.48819" />
    <rect
       x="-386.91519"
       y="-483.56577"
       width="5"
       height="3"
       rx="0.48819"
       transform="scale(-1)"
       fill="#3f3d56"
       id="rect1219"
       ry="0.48819" />
    <rect
       x="-376.91519"
       y="-483.56577"
       width="5"
       height="3"
       rx="0.48819"
       transform="scale(-1)"
       fill="#3f3d56"
       id="rect1221"
       ry="0.48819" />
    <rect
       x="-366.91519"
       y="-483.56577"
       width="5"
       height="3"
       rx="0.48819"
       transform="scale(-1)"
       fill="#3f3d56"
       id="rect1223"
       ry="0.48819" />
    <rect
       x="-356.91519"
       y="-483.56577"
       width="5"
       height="3"
       rx="0.48819"
       transform="scale(-1)"
       fill="#3f3d56"
       id="rect1225"
       ry="0.48819" />
    <rect
       x="-458.91519"
       y="-489.56577"
       width="40"
       height="3"
       rx="0.48819"
       transform="scale(-1)"
       fill="#3f3d56"
       id="rect1227"
       ry="0.48819" />
    <path
       d="m 308.69187,244.94671 h 255.32336 a 1.01559,1.01559 0 0 0 0,-2.03069 H 308.69187 a 1.01559,1.01559 0 0 0 0,2.03069 z"
       fill="#3f3d56"
       id="path1229" />
    <ellipse
       cx="546.63501"
       cy="231.64882"
       rx="5.9504299"
       ry="6.0830402"
       fill="#3f3d56"
       id="ellipse1231" />
    <ellipse
       cx="526.07904"
       cy="231.64882"
       rx="5.9504299"
       ry="6.0830402"
       fill="#3f3d56"
       id="ellipse1233" />
    <ellipse
       cx="505.52301"
       cy="231.64882"
       rx="5.9504299"
       ry="6.0830402"
       fill="#3f3d56"
       id="ellipse1235" />
    <path
       d="m 319.97998,228.17999 a 1.0948,1.0948 0 0 0 1.09,1.1 h 14.6 a 1.1053,1.1053 0 0 0 0,-2.21 h -14.6 a 1.1034,1.1034 0 0 0 -1.09,1.11 z"
       fill="#3f3d56"
       id="path1237" />
    <path
       d="m 319.97998,232.33002 a 1.09475,1.09475 0 0 0 1.09,1.1 h 14.6 a 1.10527,1.10527 0 0 0 0,-2.21 h -14.6 a 1.1034,1.1034 0 0 0 -1.09,1.11 z"
       fill="#3f3d56"
       id="path1239" />
    <path
       d="m 319.97998,236.47003 a 1.1034,1.1034 0 0 0 1.09,1.11 h 14.6 a 1.1053,1.1053 0 0 0 0,-2.21 h -14.6 a 1.09476,1.09476 0 0 0 -1.09,1.1 z"
       fill="#3f3d56"
       id="path1241" />
    <rect
       x="316.366"
       y="268.5433"
       width="11.00609"
       height="5.7599201"
       rx="2.8799601"
       fill="#e6e6e6"
       id="rect1243"
       ry="2.8799601" />
    <rect
       x="376.366"
       y="268.5433"
       width="11.00609"
       height="5.7599201"
       rx="2.8799601"
       fill="#e6e6e6"
       id="rect1245"
       ry="2.8799601" />
    <rect
       x="393.366"
       y="268.5433"
       width="11.00609"
       height="5.7599201"
       rx="2.8799601"
       fill="#e6e6e6"
       id="rect1247"
       ry="2.8799601" />
    <rect
       x="332.68619"
       y="268.06314"
       width="38.3657"
       height="5.7599201"
       rx="2.8799601"
       fill="#e6e6e6"
       id="rect1249"
       ry="2.8799601" />
    <rect
       x="412.68619"
       y="268.06314"
       width="38.3657"
       height="5.7599201"
       rx="2.8799601"
       fill="#e6e6e6"
       id="rect1251"
       ry="2.8799601" />
    <rect
       x="332.366"
       y="281.5433"
       width="11.00609"
       height="5.7599201"
       rx="2.8799601"
       fill="#e6e6e6"
       id="rect1253"
       ry="2.8799601" />
    <rect
       x="392.366"
       y="281.5433"
       width="11.00609"
       height="5.7599201"
       rx="2.8799601"
       fill="#e6e6e6"
       id="rect1255"
       ry="2.8799601" />
    <rect
       x="409.366"
       y="281.5433"
       width="11.00609"
       height="5.7599201"
       rx="2.8799601"
       fill="#e6e6e6"
       id="rect1257"
       ry="2.8799601" />
    <rect
       x="348.68619"
       y="281.06314"
       width="38.3657"
       height="5.7599201"
       rx="2.8799601"
       fill="#e6e6e6"
       id="rect1259"
       ry="2.8799601" />
    <rect
       x="428.68619"
       y="281.06314"
       width="38.3657"
       height="5.7599201"
       rx="2.8799601"
       fill="#e6e6e6"
       id="rect1261"
       ry="2.8799601" />
    <rect
       x="348.366"
       y="294.5433"
       width="11.00609"
       height="5.7599201"
       rx="2.8799601"
       fill="#e6e6e6"
       id="rect1263"
       ry="2.8799601" />
    <rect
       x="408.366"
       y="294.5433"
       width="11.00609"
       height="5.7599201"
       rx="2.8799601"
       fill="#e6e6e6"
       id="rect1265"
       ry="2.8799601" />
    <rect
       x="425.366"
       y="294.5433"
       width="11.00609"
       height="5.7599201"
       rx="2.8799601"
       fill="#e6e6e6"
       id="rect1267"
       ry="2.8799601" />
    <rect
       x="364.68619"
       y="294.06314"
       width="38.3657"
       height="5.7599201"
       rx="2.8799601"
       fill="#e6e6e6"
       id="rect1269"
       ry="2.8799601" />
    <rect
       x="444.68619"
       y="294.06314"
       width="38.3657"
       height="5.7599201"
       rx="2.8799601"
       fill="#e6e6e6"
       id="rect1271"
       ry="2.8799601" />
    <rect
       x="364.366"
       y="307.5433"
       width="11.00609"
       height="5.7599201"
       rx="2.8799601"
       fill="#e6e6e6"
       id="rect1273"
       ry="2.8799601" />
    <rect
       x="424.366"
       y="307.5433"
       width="11.00609"
       height="5.7599201"
       rx="2.8799601"
       fill="#e6e6e6"
       id="rect1275"
       ry="2.8799601" />
    <rect
       x="441.366"
       y="307.5433"
       width="11.00609"
       height="5.7599201"
       rx="2.8799601"
       fill="#e6e6e6"
       id="rect1277"
       ry="2.8799601" />
    <rect
       x="380.68619"
       y="307.06314"
       width="38.3657"
       height="5.7599201"
       rx="2.8799601"
       fill="#e6e6e6"
       id="rect1279"
       ry="2.8799601" />
    <rect
       x="376.366"
       y="359.23682"
       width="11.00609"
       height="5.7599201"
       rx="2.8799601"
       fill="#e6e6e6"
       id="rect1281"
       ry="2.8799601" />
    <rect
       x="393.366"
       y="359.23682"
       width="11.00609"
       height="5.7599201"
       rx="2.8799601"
       fill="#e6e6e6"
       id="rect1283"
       ry="2.8799601" />
    <rect
       x="412.68619"
       y="359.71698"
       width="38.3657"
       height="5.7599201"
       rx="2.8799601"
       fill="#e6e6e6"
       id="rect1285"
       ry="2.8799601" />
    <rect
       x="316.366"
       y="359.23682"
       width="11.00609"
       height="5.7599201"
       rx="2.8799601"
       fill="#e6e6e6"
       id="rect1287"
       ry="2.8799601" />
    <rect
       x="332.68619"
       y="359.71698"
       width="38.3657"
       height="5.7599201"
       rx="2.8799601"
       fill="#e6e6e6"
       id="rect1289"
       ry="2.8799601" />
    <rect
       x="332.366"
       y="346.23682"
       width="11.00609"
       height="5.7599201"
       rx="2.8799601"
       fill="#e6e6e6"
       id="rect1291"
       ry="2.8799601" />
    <rect
       x="392.366"
       y="346.23682"
       width="11.00609"
       height="5.7599201"
       rx="2.8799601"
       fill="#e6e6e6"
       id="rect1293"
       ry="2.8799601" />
    <rect
       x="409.366"
       y="346.23682"
       width="11.00609"
       height="5.7599201"
       rx="2.8799601"
       fill="#e6e6e6"
       id="rect1295"
       ry="2.8799601" />
    <rect
       x="348.68619"
       y="346.71698"
       width="38.3657"
       height="5.7599201"
       rx="2.8799601"
       fill="#e6e6e6"
       id="rect1297"
       ry="2.8799601" />
    <rect
       x="348.366"
       y="333.23682"
       width="11.00609"
       height="5.7599201"
       rx="2.8799601"
       fill="#e6e6e6"
       id="rect1299"
       ry="2.8799601" />
    <rect
       x="408.366"
       y="333.23682"
       width="11.00609"
       height="5.7599201"
       rx="2.8799601"
       fill="#e6e6e6"
       id="rect1301"
       ry="2.8799601" />
    <rect
       x="425.366"
       y="333.23682"
       width="11.00609"
       height="5.7599201"
       rx="2.8799601"
       fill="#e6e6e6"
       id="rect1303"
       ry="2.8799601" />
    <rect
       x="364.68619"
       y="333.71698"
       width="38.3657"
       height="5.7599201"
       rx="2.8799601"
       fill="#e6e6e6"
       id="rect1305"
       ry="2.8799601" />
    <rect
       x="364.366"
       y="320.23682"
       width="11.00609"
       height="5.7599201"
       rx="2.8799601"
       fill="#e6e6e6"
       id="rect1307"
       ry="2.8799601" />
    <rect
       x="424.366"
       y="320.23682"
       width="11.00609"
       height="5.7599201"
       rx="2.8799601"
       fill="#e6e6e6"
       id="rect1309"
       ry="2.8799601" />
    <rect
       x="441.366"
       y="320.23682"
       width="11.00609"
       height="5.7599201"
       rx="2.8799601"
       fill="#e6e6e6"
       id="rect1311"
       ry="2.8799601" />
    <rect
       x="380.68619"
       y="320.71698"
       width="38.3657"
       height="5.7599201"
       rx="2.8799601"
       fill="#e6e6e6"
       id="rect1313"
       ry="2.8799601" />
    <path
       d="m 349.91194,545.95221 c -0.22,0.11005 -0.44,0.22 -0.66,0.32 q -2.085,1.035 -4.2,2.04 -6.33,3.015 -12.82,5.73 a 285.48273,285.48273 0 0 1 -34.97,12.03 c -2,-12.47 -3.94,-41.88 -5.8,-63.51 -0.35,-4.07 -0.7,-7.86005 -1.05,-11.21 a 97.15525,97.15525 0 0 0 -1.89,-13.08 4.35915,4.35915 0 0 0 -0.39,-0.97 c 0.19,1.73 0.39,6.89 0.58,14.05 0.1,3.35 0.19,7.14 0.29,11.21 0.47,20.82 0.96,49.15 1.45,65.28 -1.39,0.34 -2.79,0.68 -4.19,1 -0.88,0.21 -1.77,0.41 -2.66,0.6 -1.08,0.24 -2.16,0.48 -3.24,0.69995 q -1.695,0.36009 -3.39,0.69 a 290.07234,290.07234 0 0 1 -56.06,5.44 c -1.25,0 -2.49,-0.01 -3.74,-0.02 -0.38,0 -0.76,-0.01 -1.15,-0.02 -1.1,-0.02 -2.24,-0.04 -3.4,-0.07 a 288.5911,288.5911 0 0 1 -65.84,-9.49 l 0.87,-64.11 0.15,-11.21 0.06,-4.25 a 15.1823,15.1823 0 0 0 -0.88,4.25 c -0.35,2.73 -0.71,6.6 -1.07,11.21 -1.37,17.76 -2.78,46.41 -4.24,62.71 -17.29,-4.92 -29.93,-9.41 -45.73,-17.31 -0.61005,-0.3 -1.23,-0.61 -1.84,-0.92 0.11,-0.77 0.23,-1.54 0.34,-2.33 1.79,-12.44 -0.32,-28.63 1.66,-42.15 1.51,-10.43 3.07,-20.45 4.64,-28.95 1.9,-10.23 3.82995,-18.27 5.74,-22.18 2.2,-4.51 4.4,-8.95 6.53,-13.2 q 1.38006,-2.745 2.71,-5.39 c 0.48,-0.95 0.96,-1.89 1.43,-2.81 2.14,-4.19 4.16,-8.06 6.01,-11.49 1.3,-2.41 2.5,-4.59 3.6,-6.5 1.29,-2.25 2.43,-4.11 3.37,-5.52 a 55.3059,55.3059 0 0 1 29.28,-22.21 l 0.3,-0.08 0.29,0.12 0.32995,0.15 19.06,-6.97 8.51,-20.49 43.71,-2.69 7.06,5.37 3.61,2.75 3.85,2.93 7.08,5.39 2.01,0.62 2.99,0.92 20.45,6.28 0.21,-0.09 0.3,0.08 a 55.16791,55.16791 0 0 1 27.36,19.5 c 0.68,0.88 1.31,1.79 1.92,2.71 1.66,2.46 3.9,6.35 6.54,11.23 1.09,2.01 2.24,4.19 3.45,6.5 0.73,1.39 7.03,21.05 13.16,41.13 5.73,18.8 11.31,37.97 12.04,42.89 0.13,0.91 0.27,1.82995 0.4,2.74 0.83,5.69 1.65,11.42 2.44,17.01 1.17,8.29 2.31,16.29 3.4,23.44 0.01,0.0701 0.02,0.13011 0.03,0.20005 z"
       fill="#3f3d56"
       id="path1315" />
    <polygon
       points="295.093,440.774 287.59,469.07 303.59,473.566 "
       opacity="0.2"
       id="polygon1317" />
    <path
       d="m 38.13793,451.15752 a 0.49675,0.49675 0 0 0 0.15092,-0.0664 l 5.75315,-3.76566 a 0.49923,0.49923 0 0 0 3.2e-4,-0.83621 l -5.97979,-3.91667 a 0.49972,0.49972 0 1 0 -0.54792,0.83585 l 5.34091,3.49818 -5.114,3.34794 a 0.49991,0.49991 0 0 0 0.39637,0.903 z"
       fill="#2d80d3"
       id="path1323" />
    <path
       d="m 29.05118,451.57656 a 0.5,0.5 0 0 0 0.12607,-0.91842 l -5.30305,-3.04034 5.1256,-3.80723 a 0.49963695,0.49963695 0 1 0 -0.596,-0.80208 l -5.73863,4.26265 a 0.49951,0.49951 0 0 0 0.0492,0.83476 l 5.96526,3.41968 a 0.49965,0.49965 0 0 0 0.37157,0.051 z"
       fill="#2d80d3"
       id="path1325" />
    <path
       d="m 37.56571,454.45753 a 0.482,0.482 0 0 0 0.137,-0.0579 0.49976,0.49976 0 0 0 0.16751,-0.68714 l -8.15548,-13.40836 a 0.50026,0.50026 0 0 0 -0.85441,0.52058 l 8.15544,13.40835 a 0.50033,0.50033 0 0 0 0.54994,0.22442 z"
       fill="#2d80d3"
       id="path1327" />
    <path
       d="m 785.14907,547.03998 c -0.61,0.31 -1.23,0.62 -1.84,0.92 -15.8,7.9 -28.44,12.39 -45.73,17.31 -1.46,-16.3 -2.87,-44.95 -4.24,-62.71 -0.36,-4.61 -0.72,-8.48 -1.07,-11.21 a 15.18215,15.18215 0 0 0 -0.88,-4.25 l 0.06,4.25 0.15,11.21 0.87,64.11 a 288.5879,288.5879 0 0 1 -65.84,9.49 c -1.16,0.03 -2.3,0.05 -3.4,0.07 -0.39,0.01 -0.77,0.02 -1.15,0.02 -1.25,0.01 -2.49,0.02 -3.74,0.02 a 289.2711,289.2711 0 0 1 -69.54,-8.43 c 0.49,-16.13 0.98,-44.46 1.44995,-65.28 0.1,-4.07 0.19,-7.86 0.29,-11.21 0.19,-7.16 0.39,-12.32 0.58,-14.05 a 4.36163,4.36163 0 0 0 -0.39,0.97 97.15388,97.15388 0 0 0 -1.89,13.08 c -0.35,3.35 -0.7,7.14 -1.05,11.21 -1.86,21.63 -3.8,51.04 -5.8,63.51 a 285.47262,285.47262 0 0 1 -34.97,-12.03 q -9,-3.75 -17.68,-8.09 c 1.1,-7.2 2.25,-15.27 3.43,-23.64 0.92,-6.49 1.87,-13.16 2.84,-19.75 1.5,-10.18 52.46,-120.11 64.47,-123.96 l 0.3,-0.08 0.21,0.09 20.45,-6.28 2.99,-0.92 2.01,-0.62 7.08,-5.39 3.85,-2.93 3.61,-2.75 7.06,-5.37 43.71,2.69 8.51,20.49 19.06,6.97 0.33,-0.15 0.29,-0.12 0.3,0.08 a 55.306,55.306 0 0 1 29.28,22.21 c 0.94,1.41 2.08,3.27 3.37,5.52 1.1,1.91 2.3,4.09 3.6,6.5 1.85,3.43005 3.87,7.30005 6.01,11.49 0.47,0.92 0.95,1.86 1.43,2.81 q 1.335,2.63993 2.71,5.38995 c 2.13,4.25 4.33,8.69 6.53,13.2 1.91,3.91 3.84,11.95 5.74,22.18 1.57,8.5 3.13,18.52 4.64,28.95 1.98,13.52 -0.13,29.71 1.66,42.15 0.1101,0.79007 0.2301,1.56009 0.34005,2.33005 z"
       fill="#3f3d56"
       id="path1329" />
    <circle
       cx="656.95416"
       cy="296.15826"
       r="50.836449"
       fill="#ffb6b6"
       id="circle1331" />
    <polygon
       points="584.156,440.774 591.659,469.07 575.659,473.566 "
       opacity="0.2"
       id="polygon1333" />
    <path
       d="m 801.76907,452.20001 c -3.04,41.88 0.11,60.32 -16.67,94.85 a 286.15952,286.15952 0 0 1 -47.52,18.22 q -2.55,0.72 -5.11,1.4 a 288.5879,288.5879 0 0 1 -65.84,9.49 c -1.16,0.03 -2.3,0.05 -3.4,0.07 -0.39,0.01 -0.77,0.02 -1.15,0.02 -1.25,0.01 -2.49,0.02 -3.74,0.02 a 289.2711,289.2711 0 0 1 -69.54,-8.43 q -3.42,-0.84 -6.81,-1.77 a 285.47262,285.47262 0 0 1 -34.97,-12.03 q -9,-3.75 -17.68,-8.09 c -1.31,-0.66 -2.62,-1.32 -3.91,-2 -6.63,-11.66 -10.4,-25.84 -10.48,-42.88 4.59005,-29.35999 276.68,-74.19 286.82,-48.87 z"
       fill="#2f2e41"
       id="path1335" />
    <path
       d="m 801.76122,459.37219 c 0.15528,-2.59271 0.32886,-5.27093 0.53132,-8.05987 -10.14,-25.32 -282.23,19.51 -286.82,48.87 0.0126,2.69184 0.12774,5.30414 0.32129,7.85456 11.11559,-28.97829 269.60472,-71.58632 285.96739,-48.66469 z"
       opacity="0.2"
       id="path1337" />
    <path
       d="m 508.18244,454.17526 22.33363,-11.16681 -18.6114,-50.25079 -4.90493,-25.342 a 19.16137,19.16137 0 0 0 -31.2822,-10.90731 v 0 a 19.16136,19.16136 0 0 0 -2.4925,26.51833 l 18.20718,22.75891 z"
       fill="#ffb6b6"
       id="path1339" />
    <path
       d="m 530.51607,433.70275 -29.77821,14.889 22.59854,70.80908 a 30.97684,30.97684 0 0 0 22.33567,20.7164 v 0 a 30.97683,30.97683 0 0 0 33.73744,-14.197 L 639.33438,423.2063 a 31.62026,31.62026 0 0 0 -10.19564,-42.982 v 0 a 31.62045,31.62045 0 0 0 -45.29614,12.76511 l -36.576,77.93632 z"
       fill="#3f3d56"
       id="path1341" />
    <circle
       cx="209.50761"
       cy="287.55167"
       r="55.935032"
       fill="#a0616a"
       id="circle1343" />
    <path
       d="m 154.24429,249.006 c 4.54793,-6.12983 11.08478,-10.48789 16.08478,-16.25489 2.74344,-3.16426 5.02141,-6.74951 8.10566,-9.58224 5.73039,-5.26318 13.74425,-7.4198 21.52026,-7.688 a 54.30458,54.30458 0 0 1 44.33113,21.03844 q 6.09681,-3.57471 12.19363,-7.14926 2.40868,6.33969 4.81737,12.67953 a 7.39073,7.39073 0 0 1 11.26364,9.248 c 0.96724,-2.989 5.39916,-3.62313 7.84251,-1.64855 2.44335,1.97474 3.09761,5.488 2.69911,8.60414 a 17.31976,17.31976 0 0 1 -13.06483,14.326 c -5.30406,1.18167 -11.47743,-0.0597 -15.72259,3.33247 -3.40352,2.71954 -4.431,7.67163 -7.9043,10.30126 -4.28006,3.24035 -10.3294,1.74177 -15.64965,2.45781 -9.30808,1.253 -16.67837,10.773 -15.55974,20.09824 -0.84211,-2.94246 -1.72714,-5.97011 -3.63853,-8.36033 -1.91154,-2.39021 -5.13083,-4.00669 -8.06243,-3.12795 -4.84583,1.45252 -5.63858,8.05772 -4.46415,12.97821 3.11475,13.05 14.91931,34.144 14.91931,34.144 -15.32771,6.0462 -33.58876,0.329 -45.41517,-11.144 -11.82626,-11.473 -17.98564,-27.71878 -20.66871,-43.97586 -2.27515,-13.78591 -1.95273,-29.05567 6.3727,-40.27702 z"
       fill="#2f2e41"
       id="path1345" />
    <path
       d="m 720.66194,324.18225 c 10.6416,-24.3981 4.61285,-46.8497 -8.36,-58.76 v -0.01 c -5.1,-11.43 -11.88,-20.25 -19.64,-22.32 -3.75,-2.41 -7.39,-5.24 -11.43,-6.68 a 14.88737,14.88737 0 0 0 -11.68,0.53 l -2.06,-0.55 c -1.75,-4.47 -3.8,-4.56 -6.08,-1.62 -8.78,-4.09 -16.69,-5.92 -23.73,-5.92 -22.96,0 -36.54,19.44 -40.14,42.94 l 19.19,5.11 6.67,-10.63 -3.08,11.59 10.59,2.81 c 16.12,20.99 -3.17,69.41 -27.62,96.35 q 8.73,-2.415 17.39,-4.08 l 20.98,-30.76 -13,28 c 6.75,-0.99 15.36,-0.04 24.77,1.87 3.17,-4.14 4.84,-9.66 3.2,-14.58 a 55.74547,55.74547 0 0 1 5.48,16.53 c 19.86,4.85 46.95,7.34 61.55,9.18 11.7959,-3.85064 11.828,-47.33978 -3,-59 z"
       fill="#2f2e41"
       id="path1347" />
    <path
       d="m 727.5853,241.19054 c 7.7946,17.45324 -7.93319,24.96034 -22.34136,24.74834 -13.019,-0.19157 -24.08365,-9.33791 -24.74832,-22.34137 a 23.57558,23.57558 0 0 1 22.34136,-24.74832 c 13.00346,-0.66467 19.43884,10.45263 24.74832,22.34135 z"
       fill="#2f2e41"
       id="path1349" />
    <path
       d="m 365.98199,525.30901 -12.83956,-21.41575 42.69115,-32.38815 17.75,-18.74071 a 19.16138,19.16138 0 0 1 32.24488,7.60351 v 0 a 19.16136,19.16136 0 0 1 -12.14227,23.70654 l -27.5826,9.41646 z"
       fill="#a0616a"
       id="path1351" />
    <path
       d="m 375.26192,524.60224 -19.99,16.66 -5.39,4.49 -0.62994,0.52 q -2.085,1.035 -4.2,2.04 -6.33,3.015 -12.82,5.73 a 285.48273,285.48273 0 0 1 -34.97,12.03 q -3.38993,0.93 -6.81,1.77 c -1.39,0.34 -2.79,0.68 -4.19,1 -0.88,0.21 -1.77,0.41 -2.66,0.6 -1.08,0.24 -2.16,0.48 -3.24,0.69995 q -1.695,0.36009 -3.39,0.69 a 30.96327,30.96327 0 0 1 -9.62,-22.44 c 0,-0.26995 0,-0.55 0.01,-0.82995 l 3.21,-82.33 1.42005,-36.49 a 31.618,31.618 0 0 1 31.69,-30.78 c 0.96,0 1.91,0.05 2.85,0.14 0.68,0.88 1.31,1.79 1.92,2.71 1.66,2.46 3.9,6.35 6.54,11.23 1.09,2.01 2.24,4.19 3.45,6.5 0.73,1.39 7.03,21.05 13.16,41.13 l -2.7,20.97 -4.88,37.80005 20.02,-13.14 14.1,-9.26 1.67,2.79 4.35,7.26 8.4,14 z"
       fill="#3f3d56"
       id="path1353" />
    <path
       d="m 364.30195,501.07227 c -0.01,1.7 -0.05,3.37 -0.14,5.02 a 97.24839,97.24839 0 0 1 -1.58,13.56 79.14449,79.14449 0 0 1 -7.31,21.61 c -0.46,0.91 -0.95,1.81006 -1.45,2.69 -1.29,0.68006 -2.6,1.34 -3.91,2 -0.22,0.11005 -0.44,0.22 -0.66,0.32 q -8.355,4.155 -17.02,7.77 a 285.48273,285.48273 0 0 1 -34.97,12.03 q -3.38993,0.93 -6.81,1.77 -6.67493,1.65 -13.48,2.99 a 290.07234,290.07234 0 0 1 -56.06,5.44 c -1.25,0 -2.49,-0.01 -3.74,-0.02 -0.38,0 -0.76,-0.01 -1.15,-0.02 -1.1,-0.02 -2.24,-0.04 -3.4,-0.07 a 288.5911,288.5911 0 0 1 -65.84,-9.49 q -2.565,-0.675 -5.11,-1.4 a 286.16459,286.16459 0 0 1 -47.52,-18.22 c -16.78,-34.53 -13.63,-52.97 -16.67,-94.85 6.24,-15.59 111.81,-4.58 193.09,13.03 22.06,4.78 42.32,10.05 58.33,15.41 16.54,5.53 28.53,11.15 33.23,16.43006 a 7.9373,7.9373 0 0 1 2.17,3.99994 z"
       fill="#2f2e41"
       id="path1355" />
    <path
       d="m 77.48785,459.37219 c -0.15527,-2.59271 -0.32885,-5.27093 -0.53131,-8.05987 10.14,-25.32 282.23,19.51 286.82,48.87 -0.0126,2.69184 -0.12775,5.30414 -0.32129,7.85456 C 352.33966,479.05859 93.85052,436.45056 77.48785,459.37219 Z"
       opacity="0.2"
       id="path1357" />
    <g
       id="g1865"
       transform="translate(-677.76642,32.085102)">
      <path
         d="m 900.18575,604.97238 a 6.41621,6.41621 0 0 0 6.1831,4.331 l 26.49183,-0.68178 a 6.3285,6.3285 0 0 0 5.98085,-4.657 l 3.74888,-40.08721 a 9.79409,9.79409 0 0 0 4.23793,0.87079 9.6613326,9.6613326 0 1 0 -0.4849,-19.31658 8.18393,8.18393 0 0 0 -1.73618,0.18056 6.54764,6.54764 0 0 0 -4.87405,-2.103 l -40.75051,1.05229 a 5.85294,5.85294 0 0 0 -1.00519,0.1248 6.36455,6.36455 0 0 0 -4.87318,8.26464 z m 43.17345,-43.81684 2.66764,-9.55274 a 6.50649,6.50649 0 0 0 0.0204,-3.37458 c 0.12944,-3.4e-4 0.24363,-0.0617 0.37307,-0.062 a 6.91049,6.91049 0 0 1 0.32357,13.81714 6.50527,6.50527 0 0 1 -3.38464,-0.82782 z"
         transform="translate(-206.59003,-163.87113)"
         fill="#2f2e41"
         id="path623" />
      <path
         d="m 897.97751,544.68623 c 0.86818,4.96412 10.62909,8.45387 22.36585,7.84729 10.79271,-0.49726 19.61745,-4.287 21.23421,-8.7785 a 6.02511,6.02511 0 0 0 -1.84436,-0.24588 l -40.75051,1.05229 a 5.85294,5.85294 0 0 0 -1.00519,0.1248 z"
         transform="translate(-206.59003,-163.87113)"
         fill="#3f3d56"
         id="path625" />
      <path
         d="m 719.90435,419.07302 a 0.49659,0.49659 0 0 0 0.15091,-0.0664 l 5.75315,-3.76566 a 0.49923,0.49923 0 0 0 3.2e-4,-0.83621 l -5.97978,-3.91667 a 0.49972,0.49972 0 1 0 -0.54792,0.83585 l 5.34091,3.49818 -5.114,3.34794 a 0.49991,0.49991 0 0 0 0.39637,0.903 z"
         fill="#2d80d3"
         id="path627"
         style="stroke:#2d80d3;stroke-width:2;stroke-dasharray:none;stroke-opacity:1" />
      <path
         d="m 702.81759,419.49206 a 0.5,0.5 0 0 0 0.12608,-0.91842 l -5.30306,-3.04034 5.1256,-3.80723 a 0.49963695,0.49963695 0 1 0 -0.596,-0.80208 l -5.73862,4.26265 a 0.49951,0.49951 0 0 0 0.0492,0.83476 l 5.96525,3.41968 a 0.4997,0.4997 0 0 0 0.37157,0.051 z"
         fill="#2d80d3"
         id="path629"
         style="stroke:#2d80d3;stroke-width:2;stroke-dasharray:none;stroke-opacity:1" />
      <path
         d="m 715.33212,422.37303 a 0.48233,0.48233 0 0 0 0.137,-0.0578 0.49976,0.49976 0 0 0 0.16752,-0.68714 l -8.15548,-13.40836 a 0.50026,0.50026 0 0 0 -0.85442,0.52058 l 8.15548,13.40835 a 0.50035,0.50035 0 0 0 0.5499,0.22442 z"
         fill="#2d80d3"
         id="path631"
         style="stroke:#2d80d3;stroke-width:2;stroke-dasharray:none;stroke-opacity:1" />
    </g>
  </g>
</svg>
