<?xml version="1.0" encoding="UTF-8" standalone="no"?>
<svg
   data-name="Layer 1"
   width="728.25201"
   height="598.94268"
   viewBox="0 0 728.25201 598.94268"
   version="1.1"
   id="svg312"
   sodipodi:docname="real-time-sync.svg"
   inkscape:version="1.2.1 (9c6d41e4, 2022-07-14)"
   xmlns:inkscape="http://www.inkscape.org/namespaces/inkscape"
   xmlns:sodipodi="http://sodipodi.sourceforge.net/DTD/sodipodi-0.dtd"
   xmlns="http://www.w3.org/2000/svg"
   xmlns:svg="http://www.w3.org/2000/svg">
  <defs
     id="defs316" />
  <sodipodi:namedview
     id="namedview314"
     pagecolor="#ffffff"
     bordercolor="#666666"
     borderopacity="1.0"
     inkscape:showpageshadow="2"
     inkscape:pageopacity="0.0"
     inkscape:pagecheckerboard="0"
     inkscape:deskcolor="#d1d1d1"
     showgrid="false"
     inkscape:zoom="1.5761107"
     inkscape:cx="416.21441"
     inkscape:cy="288.05083"
     inkscape:window-width="2216"
     inkscape:window-height="1262"
     inkscape:window-x="1563"
     inkscape:window-y="143"
     inkscape:window-maximized="0"
     inkscape:current-layer="svg312" />
  <path
     d="M709.374,598.1153c-99.80371,0-181-81.19629-181-181s81.19629-181,181-181a182.729,182.729,0,0,1,31.477,2.72754.99988.99988,0,1,1-.34522,1.96973A180.7818,180.7818,0,0,0,709.374,238.1153c-98.70093,0-179,80.29883-179,179s80.29907,179,179,179,179-80.29883,179-179a178.54758,178.54758,0,0,0-46.69507-120.56884,1.0001,1.0001,0,0,1,1.478-1.34766,180.544,180.544,0,0,1,47.217,121.9165C890.374,516.919,809.17771,598.1153,709.374,598.1153Z"
     transform="translate(-235.874 -150.52866)"
     fill="#e4e4e4"
     id="path202"
     style="fill:#cacaca;fill-opacity:1" />
  <circle
     cx="553.30743"
     cy="111.85222"
     r="35.81102"
     fill="#2d80d3"
     id="circle204" />
  <path
     d="M784.29607,281.01885a3.98234,3.98234,0,0,1-3.18647-1.59372l-9.76979-13.02661a3.98339,3.98339,0,1,1,6.37358-4.77986l6.39173,8.52166,16.41634-24.62418a3.98356,3.98356,0,0,1,6.629,4.41936l-19.53959,29.30938a3.98519,3.98519,0,0,1-3.204,1.77267C784.37,281.0182,784.333,281.01885,784.29607,281.01885Z"
     transform="translate(-235.874 -150.52866)"
     fill="#fff"
     id="path206" />
  <path
     d="M704.71733,389.02638,649.49369,235.39553l1.40039-.50342-10.15625-28.25684-1.40039.50391-16.95605-47.16944a14.25546,14.25546,0,0,0-18.23731-8.59326l-99.83252,35.88526a14.25569,14.25569,0,0,0-8.59375,18.2373l11.82227,32.88934-2.21271.85212,7.54676,19.5971,1.77136-.68219,1.567,4.35913-1.88507.726,7.54676,19.5971,1.44372-.556,54.7359,152.27405a14.2297,14.2297,0,0,0,18.23779,8.59375l99.832-35.88525A14.27289,14.27289,0,0,0,704.71733,389.02638Z"
     transform="translate(-235.874 -150.52866)"
     fill="#3f3d56"
     id="path208" />
  <path
     d="M591.04106,438.086a6.84506,6.84506,0,0,1-6.42432-4.52441L501.41215,202.08745a6.83147,6.83147,0,0,1,4.11768-8.73877l21.24121-7.63525-.03174.74316a7.87374,7.87374,0,0,0,10.52978,7.74219L584.40971,177.254a7.97439,7.97439,0,0,0,4.48779-5.63623,7.8083,7.8083,0,0,0-1.86084-6.835l-.49756-.55323,21.94092-7.8872a6.8404,6.8404,0,0,1,8.73926,4.11816L696.604,381.3062a18.147,18.147,0,0,1-10.92675,23.188L593.356,437.67974A6.84154,6.84154,0,0,1,591.04106,438.086Z"
     transform="translate(-235.874 -150.52866)"
     fill="#fff"
     id="path210" />
  <circle
     cx="347.03341"
     cy="96.37717"
     r="27"
     fill="#2d80d3"
     id="circle212" />
  <path
     d="M649.81307,286.17024l-93.50226,33.60994a2.36173,2.36173,0,1,1-1.59779-4.445l93.50227-33.60994a2.36173,2.36173,0,0,1,1.59778,4.445Z"
     transform="translate(-235.874 -150.52866)"
     fill="#e6e6e6"
     id="path214"
     style="fill:#b4e1f3;fill-opacity:1" />
  <path
     d="M622.046,307.48044l-30.75552,11.05525a2.36185,2.36185,0,1,1-1.59787-4.44523l30.75552-11.05526a2.36185,2.36185,0,0,1,1.59787,4.44524Z"
     transform="translate(-235.874 -150.52866)"
     fill="#e6e6e6"
     id="path216"
     style="fill:#b4e1f3;fill-opacity:1" />
  <path
     d="M629.36123,327.83127l-30.75552,11.05525a2.36184,2.36184,0,1,1-1.59786-4.44523L627.76337,323.386a2.36184,2.36184,0,0,1,1.59786,4.44523Z"
     transform="translate(-235.874 -150.52866)"
     fill="#e6e6e6"
     id="path218"
     style="fill:#b4e1f3;fill-opacity:1" />
  <path
     d="M633.108,338.25473,602.35248,349.31a2.36173,2.36173,0,1,1-1.59778-4.445l30.75552-11.05525a2.36173,2.36173,0,1,1,1.59779,4.445Z"
     transform="translate(-235.874 -150.52866)"
     fill="#e6e6e6"
     id="path220"
     style="fill:#b4e1f3;fill-opacity:1" />
  <path
     d="M642.901,311.31292l-65.25284,23.45552a2.36173,2.36173,0,1,1-1.59779-4.445l65.25284-23.45552a2.36173,2.36173,0,1,1,1.59779,4.445Z"
     transform="translate(-235.874 -150.52866)"
     fill="#e6e6e6"
     id="path222"
     style="fill:#b4e1f3;fill-opacity:1" />
  <path
     d="M629.75754,363.55813l-11.16718,4.01411a4.01609,4.01609,0,0,1-2.717-7.55869l11.16718-4.01411a4.01609,4.01609,0,0,1,2.717,7.55869Z"
     transform="translate(-235.874 -150.52866)"
     fill="#2d80d3"
     id="path224" />
  <circle
     cx="305.88244"
     cy="34.38035"
     r="1.55299"
     fill="#fff"
     id="circle226" />
  <path
     d="M871.646,617.90871a22.25269,22.25269,0,0,1,9.54545-13.11029c.46765-.29822-.01979-1.00826-.48688-.7104a23.14626,23.14626,0,0,0-9.90518,13.66264c-.13924.53752.70812.69265.84661.15805Z"
     transform="translate(-235.874 -150.52866)"
     fill="#fff"
     id="path264" />
  <path
     d="M961.57054,483.63l-28.94,48.7,1.1.58-9.8,18.58-2.04-1.08-6.44,10.83,1.6.92-10.5,18.18-1.82-1.05-94.43,158.92a18.27388,18.27388,0,0,1-25.02,6.37L609.73051,640.27a18.27169,18.27169,0,0,1-6.37-25.02l151.27-254.58a18.274,18.274,0,0,1,25.02-6.37l175.55,104.31A18.28057,18.28057,0,0,1,961.57054,483.63Z"
     transform="translate(-235.874 -150.52866)"
     fill="#3f3d56"
     id="path268" />
  <path
     d="M791.53706,734.753,615.36864,630.07648a5.6339,5.6339,0,0,1-1.96328-7.71245L765.67918,366.09037a5.63389,5.63389,0,0,1,7.71245-1.96328L949.56,468.80362a5.63389,5.63389,0,0,1,1.96329,7.71245L799.24951,732.78973A5.6339,5.6339,0,0,1,791.53706,734.753Z"
     transform="translate(-235.874 -150.52866)"
     fill="#fff"
     id="path270" />
  <circle
     cx="628.02812"
     cy="260.33322"
     r="1.55299"
     fill="#fff"
     id="circle272" />
  <path
     d="M854.291,595.99351,707.23435,508.61477a4.066,4.066,0,1,1,4.15392-6.99095l147.05661,87.37874a4.066,4.066,0,1,1-4.15392,6.99095Z"
     transform="translate(-235.874 -150.52866)"
     fill="#e6e6e6"
     id="path274"
     style="fill:#b4e1f3;fill-opacity:1" />
  <path
     d="M795.57233,582.454l-48.371-28.74133a4.06616,4.06616,0,1,1,4.15411-6.99128l48.371,28.74132a4.06616,4.06616,0,0,1-4.15411,6.99129Z"
     transform="translate(-235.874 -150.52866)"
     fill="#e6e6e6"
     id="path276"
     style="fill:#b4e1f3;fill-opacity:1" />
  <path
     d="M776.55428,614.461l-48.371-28.74133a4.06616,4.06616,0,0,1,4.15411-6.99128l48.371,28.74132a4.06616,4.06616,0,1,1-4.15411,6.99129Z"
     transform="translate(-235.874 -150.52866)"
     fill="#e6e6e6"
     id="path278"
     style="fill:#b4e1f3;fill-opacity:1" />
  <path
     d="M766.81346,630.85456l-48.371-28.74132a4.066,4.066,0,1,1,4.15391-6.991l48.371,28.74133a4.066,4.066,0,1,1-4.15391,6.99095Z"
     transform="translate(-235.874 -150.52866)"
     fill="#e6e6e6"
     id="path280"
     style="fill:#b4e1f3;fill-opacity:1" />
  <path
     d="M813.32475,614.35192l-102.627-60.97939a4.066,4.066,0,0,1,4.15391-6.99095l102.627,60.97939a4.066,4.066,0,1,1-4.15391,6.99095Z"
     transform="translate(-235.874 -150.52866)"
     fill="#e6e6e6"
     id="path282"
     style="fill:#b4e1f3;fill-opacity:1" />
  <path
     d="M793.76409,692.28367l-17.5633-10.43584a6.91412,6.91412,0,0,1,7.06367-11.888l17.56329,10.43584a6.91411,6.91411,0,0,1-7.06366,11.888Z"
     transform="translate(-235.874 -150.52866)"
     fill="#2d80d3"
     id="path284" />
  <circle
     cx="590.65864"
     cy="336.31445"
     r="36"
     fill="#2d80d3"
     id="circle286" />
  <path
     d="M236.298,633.13417H723.47882V351.08608a7.98,7.98,0,0,0-7.971-7.97078H244.269a7.98,7.98,0,0,0-7.971,7.97078Z"
     transform="translate(-235.874 -150.52866)"
     fill="#cacaca"
     id="path288"
     style="fill:#3f3d56;fill-opacity:1" />
  <rect
     x="15.47615"
     y="203.61075"
     width="457.07652"
     height="259.49057"
     fill="#fff"
     id="rect290" />
  <path
     d="M235.874,625.5021v34.805a10.98729,10.98729,0,0,0,10.98725,10.98741H426.67588v68.68868h-2.38875a1.42719,1.42719,0,0,0-1.42728,1.42723V746.188a1.4272,1.4272,0,0,0,1.42728,1.42728H535.91369A1.42721,1.42721,0,0,0,537.341,746.188v-4.77756a1.4272,1.4272,0,0,0-1.42729-1.42723h-2.38875V671.29455H713.33957a10.98729,10.98729,0,0,0,10.98726-10.98741v-34.805Z"
     fill="#3f3d56"
     id="path292"
     transform="translate(-235.874 -150.52866)" />
  <path
     d="M642.2873,440.923H425.83344a5.145,5.145,0,1,1,0-10.29H642.2873a5.145,5.145,0,1,1,0,10.29Z"
     transform="translate(-235.874 -150.52866)"
     fill="#e6e6e6"
     id="path294"
     style="fill:#b4e1f3;fill-opacity:1" />
  <path
     d="M569.65913,464.14854H498.46137a5.14526,5.14526,0,1,1,0-10.29052h71.19776a5.14526,5.14526,0,1,1,0,10.29052Z"
     transform="translate(-235.874 -150.52866)"
     fill="#e6e6e6"
     id="path296"
     style="fill:#b4e1f3;fill-opacity:1" />
  <path
     d="M569.65913,511.25987H498.46137a5.14526,5.14526,0,0,1,0-10.29053h71.19776a5.14526,5.14526,0,0,1,0,10.29053Z"
     transform="translate(-235.874 -150.52866)"
     fill="#e6e6e6"
     id="path298"
     style="fill:#b4e1f3;fill-opacity:1" />
  <path
     d="M569.65913,535.38975H498.46137a5.145,5.145,0,1,1,0-10.29h71.19776a5.145,5.145,0,1,1,0,10.29Z"
     transform="translate(-235.874 -150.52866)"
     fill="#e6e6e6"
     id="path300"
     style="fill:#b4e1f3;fill-opacity:1" />
  <path
     d="M609.58906,487.37364H458.53144a5.145,5.145,0,1,1,0-10.29H609.58906a5.145,5.145,0,1,1,0,10.29Z"
     transform="translate(-235.874 -150.52866)"
     fill="#e6e6e6"
     id="path302"
     style="fill:#b4e1f3;fill-opacity:1" />
  <path
     d="M638.68354,584.79454H612.832a8.749,8.749,0,0,1,0-17.49805h25.85156a8.749,8.749,0,0,1,0,17.49805Z"
     transform="translate(-235.874 -150.52866)"
     fill="#2d80d3"
     id="path304" />
  <circle
     cx="121.89451"
     cy="325.76588"
     r="45"
     fill="#2d80d3"
     id="circle306" />
  <path
     d="M884.3587,749.47134h-647.294a1.19069,1.19069,0,0,1,0-2.38137h647.294a1.19069,1.19069,0,0,1,0,2.38137Z"
     transform="translate(-235.874 -150.52866)"
     fill="#cacaca"
     id="path308" />
  <circle
     cx="243.80241"
     cy="196.40268"
     r="1.69602"
     fill="#fff"
     id="circle310" />
</svg>
