<svg xmlns="http://www.w3.org/2000/svg" version="1.1" id="Layer_3" x="0" y="0" xml:space="preserve" width="547.297" height="401.144"><defs id="defs696"><clipPath id="c" clipPathUnits="userSpaceOnUse"/><clipPath id="f" clipPathUnits="userSpaceOnUse"/><clipPath id="h" clipPathUnits="userSpaceOnUse"/><clipPath id="j" clipPathUnits="userSpaceOnUse"/><clipPath id="l" clipPathUnits="userSpaceOnUse"/><clipPath id="n" clipPathUnits="userSpaceOnUse"/><clipPath id="p" clipPathUnits="userSpaceOnUse"/><clipPath id="q" clipPathUnits="userSpaceOnUse"/><clipPath id="s" clipPathUnits="userSpaceOnUse"/><clipPath id="u" clipPathUnits="userSpaceOnUse"/><clipPath clipPathUnits="userSpaceOnUse" id="clipPath3611"><path d="M88.021 521.91a.78.78 0 00-.781.782v313.437c0 .432.35.782.781.781H1131.46a.78.78 0 00.781-.78V522.691a.78.78 0 00-.781-.782l-449.367-9.167c0 21.874.065 5.767.065 20.645 0 35.899-24.075 68.522-106.918 68.522s-104.103-30.14-104.103-66.039c0-1.629-.113-2.469-.113-5.52l.055-17.675z" id="path3613" stroke-width="1"/></clipPath><mask id="d" maskUnits="userSpaceOnUse"><g id="g1192" fill="#fff" transform="translate(0 -65)"><path id="path1188" d="M-915 1013.789v.781a150 65 0 01.057-.494.778.778 0 01-.057-.287zm0 .781v69.219a.78.78 0 00.781.781h298.438a.78.78 0 00.781-.781v-69.219a150 65 0 01-150 65 150 65 0 01-150-65zm300 0v-.781c0 .08-.022.153-.045.226a150 65 0 01.045.555z"/><rect id="rect1190" width="300" height="75" x="-915" y="1083.82" ry=".781"/></g></mask><mask id="e" maskUnits="userSpaceOnUse"><g id="g1199" fill="#fff" transform="translate(0 -65)"><path id="path1195" d="M-915 1013.789v.781a150 65 0 01.057-.494.778.778 0 01-.057-.287zm0 .781v69.219a.78.78 0 00.781.781h298.438a.78.78 0 00.781-.781v-69.219a150 65 0 01-150 65 150 65 0 01-150-65zm300 0v-.781c0 .08-.022.153-.045.226a150 65 0 01.045.555z"/><rect id="rect1197" width="300" height="75" x="-915" y="1083.82" ry=".781"/></g></mask><mask id="g" maskUnits="userSpaceOnUse"><g id="g1206" fill="#fff" transform="translate(0 -65)"><path id="path1202" d="M-915 1013.789v.781a150 65 0 01.057-.494.778.778 0 01-.057-.287zm0 .781v69.219a.78.78 0 00.781.781h298.438a.78.78 0 00.781-.781v-69.219a150 65 0 01-150 65 150 65 0 01-150-65zm300 0v-.781c0 .08-.022.153-.045.226a150 65 0 01.045.555z"/><rect id="rect1204" width="300" height="75" x="-915" y="1083.82" ry=".781"/></g></mask><mask id="i" maskUnits="userSpaceOnUse"><g id="g1213" fill="#fff" transform="translate(0 -65)"><path id="path1209" d="M-915 1013.789v.781a150 65 0 01.057-.494.778.778 0 01-.057-.287zm0 .781v69.219a.78.78 0 00.781.781h298.438a.78.78 0 00.781-.781v-69.219a150 65 0 01-150 65 150 65 0 01-150-65zm300 0v-.781c0 .08-.022.153-.045.226a150 65 0 01.045.555z"/><rect id="rect1211" width="300" height="75" x="-915" y="1083.82" ry=".781"/></g></mask><mask id="k" maskUnits="userSpaceOnUse"><g id="g1220" fill="#fff" transform="translate(0 -65)"><path id="path1216" d="M-915 1013.789v.781a150 65 0 01.057-.494.778.778 0 01-.057-.287zm0 .781v69.219a.78.78 0 00.781.781h298.438a.78.78 0 00.781-.781v-69.219a150 65 0 01-150 65 150 65 0 01-150-65zm300 0v-.781c0 .08-.022.153-.045.226a150 65 0 01.045.555z"/><rect id="rect1218" width="300" height="75" x="-915" y="1083.82" ry=".781"/></g></mask><mask id="m" maskUnits="userSpaceOnUse"><g id="g1227" fill="#fff" transform="translate(0 -65)"><path id="path1223" d="M-915 1013.789v.781a150 65 0 01.057-.494.778.778 0 01-.057-.287zm0 .781v69.219a.78.78 0 00.781.781h298.438a.78.78 0 00.781-.781v-69.219a150 65 0 01-150 65 150 65 0 01-150-65zm300 0v-.781c0 .08-.022.153-.045.226a150 65 0 01.045.555z"/><rect id="rect1225" width="300" height="75" x="-915" y="1083.82" ry=".781"/></g></mask><mask id="o" maskUnits="userSpaceOnUse"><g id="g1234" fill="#fff" transform="translate(0 -65)"><path id="path1230" d="M-915 1013.789v.781a150 65 0 01.057-.494.778.778 0 01-.057-.287zm0 .781v69.219a.78.78 0 00.781.781h298.438a.78.78 0 00.781-.781v-69.219a150 65 0 01-150 65 150 65 0 01-150-65zm300 0v-.781c0 .08-.022.153-.045.226a150 65 0 01.045.555z"/><rect id="rect1232" width="300" height="75" x="-915" y="1083.82" ry=".781"/></g></mask><mask id="r" maskUnits="userSpaceOnUse"><g id="g1241" fill="#fff" transform="translate(0 -65)"><path id="path1237" d="M-915 1013.789v.781a150 65 0 01.057-.494.778.778 0 01-.057-.287zm0 .781v69.219a.78.78 0 00.781.781h298.438a.78.78 0 00.781-.781v-69.219a150 65 0 01-150 65 150 65 0 01-150-65zm300 0v-.781c0 .08-.022.153-.045.226a150 65 0 01.045.555z"/><rect id="rect1239" width="300" height="75" x="-915" y="1083.82" ry=".781"/></g></mask><mask id="t" maskUnits="userSpaceOnUse"><g id="g1248" fill="#fff" transform="translate(0 -65)"><path id="path1244" d="M-915 1013.789v.781a150 65 0 01.057-.494.778.778 0 01-.057-.287zm0 .781v69.219a.78.78 0 00.781.781h298.438a.78.78 0 00.781-.781v-69.219a150 65 0 01-150 65 150 65 0 01-150-65zm300 0v-.781c0 .08-.022.153-.045.226a150 65 0 01.045.555z"/><rect id="rect1246" width="300" height="75" x="-915" y="1083.82" ry=".781"/></g></mask><mask id="v" maskUnits="userSpaceOnUse"><g id="g1255" fill="#fff" transform="translate(0 -65)"><path id="path1251" d="M-915 1013.789v.781a150 65 0 01.057-.494.778.778 0 01-.057-.287zm0 .781v69.219a.78.78 0 00.781.781h298.438a.78.78 0 00.781-.781v-69.219a150 65 0 01-150 65 150 65 0 01-150-65zm300 0v-.781c0 .08-.022.153-.045.226a150 65 0 01.045.555z"/><rect id="rect1253" width="300" height="75" x="-915" y="1083.82" ry=".781"/></g></mask><linearGradient gradientUnits="userSpaceOnUse" gradientTransform="matrix(-.51133 0 0 .51133 1380.415 -28.704)" y2="355.69" x2="1958.6" y1="638.33" x1="1958.6" id="b"><stop id="stop1258" stop-opacity=".25" stop-color="gray" offset="0"/><stop id="stop1260" stop-opacity=".12" stop-color="gray" offset=".54"/><stop id="stop1262" stop-opacity=".1" stop-color="gray" offset="1"/></linearGradient><linearGradient gradientTransform="matrix(.36593 .00816 -.00816 .36593 3.72 85.28)" y2="254.927" x2="229.333" y1="254.927" x1="175.439" gradientUnits="userSpaceOnUse" id="SVGID_26_"><stop id="stop531" offset=".306" stop-color="#fff"/><stop id="stop533" offset=".395" stop-color="#f1f1f6"/><stop id="stop535" offset=".563" stop-color="#cbcbdd"/><stop id="stop537" offset=".791" stop-color="#8e8fb6"/><stop id="stop539" offset="1" stop-color="#51528e"/></linearGradient><linearGradient gradientTransform="rotate(1.284 -2862.875 1374.98) scale(.27775)" y2="416.604" x2="195.251" y1="413.017" x1="176.939" gradientUnits="userSpaceOnUse" id="SVGID_27_"><stop id="stop546" offset=".306" stop-color="#fff"/><stop id="stop548" offset=".395" stop-color="#f1f1f6"/><stop id="stop550" offset=".563" stop-color="#cbcbdd"/><stop id="stop552" offset=".791" stop-color="#8e8fb6"/><stop id="stop554" offset="1" stop-color="#51528e"/></linearGradient><linearGradient gradientTransform="rotate(1.284 -2862.875 1374.98) scale(.27775)" y2="455.46" x2="192.199" y1="455.46" x1="149.227" gradientUnits="userSpaceOnUse" id="SVGID_28_"><stop id="stop563" offset=".306" stop-color="#fff"/><stop id="stop565" offset=".395" stop-color="#f1f1f6"/><stop id="stop567" offset=".563" stop-color="#cbcbdd"/><stop id="stop569" offset=".791" stop-color="#8e8fb6"/><stop id="stop571" offset="1" stop-color="#51528e"/></linearGradient><radialGradient gradientUnits="userSpaceOnUse" gradientTransform="matrix(.36538 .02151 -.02151 .36538 7.468 84.293)" r="46.804" cy="211.437" cx="188.506" id="SVGID_25_"><stop id="stop512" offset=".005" stop-color="#a8abc8"/><stop id="stop514" offset=".113" stop-color="#9fa2c6"/><stop id="stop516" offset=".414" stop-color="#888cc1"/><stop id="stop518" offset=".57" stop-color="#8085c0"/><stop id="stop520" offset=".706" stop-color="#7e82bf"/><stop id="stop522" offset=".821" stop-color="#787bbb"/><stop id="stop524" offset=".928" stop-color="#6e70b4"/><stop id="stop526" offset="1" stop-color="#6466ae"/></radialGradient></defs><style type="text/css" id="style2">.st1{fill:#bdc0e1}.st2{opacity:.1}.st3{fill:#232744}.st6{fill:#6466ae}.st7{opacity:.3}.st11{fill:#8085c0}.st21{opacity:.4;fill:#bdc0e1}.st24{fill:#fff}.st47{fill:none;stroke:#fff;stroke-width:1.5551;stroke-linecap:round;stroke-linejoin:round;stroke-miterlimit:10}</style><radialGradient id="SVGID_1_" cx="321.929" cy="254.633" r="29.217" gradientTransform="rotate(-.753 6876.95 -131.501) scale(.366)" gradientUnits="userSpaceOnUse"><stop offset=".005" id="stop30" stop-color="#a8abc8"/><stop offset=".113" id="stop32" stop-color="#9fa2c6"/><stop offset=".414" id="stop34" stop-color="#888cc1"/><stop offset=".57" id="stop36" stop-color="#8085c0"/><stop offset=".706" id="stop38" stop-color="#7e82bf"/><stop offset=".821" id="stop40" stop-color="#787bbb"/><stop offset=".928" id="stop42" stop-color="#6e70b4"/><stop offset="1" id="stop44" stop-color="#6466ae"/></radialGradient><linearGradient id="SVGID_2_" gradientUnits="userSpaceOnUse" x1="108.398" y1="303.711" x2="162.291" y2="303.711" gradientTransform="matrix(-.32582 .16675 .16675 .32582 114.91 57.912)"><stop offset=".306" id="stop49" stop-color="#fff"/><stop offset=".395" id="stop51" stop-color="#f1f1f6"/><stop offset=".563" id="stop53" stop-color="#cbcbdd"/><stop offset=".791" id="stop55" stop-color="#8e8fb6"/><stop offset="1" id="stop57" stop-color="#51528e"/></linearGradient><linearGradient id="SVGID_4_" gradientUnits="userSpaceOnUse" x1="420.224" y1="141.705" x2="451.981" y2="141.705" gradientTransform="scale(.366) rotate(18.006 -552.747 329.751)"><stop offset=".306" id="stop83" stop-color="#fff"/><stop offset=".395" id="stop85" stop-color="#f1f1f6"/><stop offset=".563" id="stop87" stop-color="#cbcbdd"/><stop offset=".791" id="stop89" stop-color="#8e8fb6"/><stop offset="1" id="stop91" stop-color="#51528e"/></linearGradient><linearGradient id="SVGID_5_" gradientUnits="userSpaceOnUse" x1="417.46" y1="78.256" x2="458.642" y2="156.843" gradientTransform="scale(.366) rotate(18.006 -552.747 329.751)"><stop offset=".306" id="stop98" stop-color="#fff"/><stop offset=".395" id="stop100" stop-color="#f1f1f6"/><stop offset=".563" id="stop102" stop-color="#cbcbdd"/><stop offset=".791" id="stop104" stop-color="#8e8fb6"/><stop offset="1" id="stop106" stop-color="#51528e"/></linearGradient><linearGradient id="SVGID_10_" gradientUnits="userSpaceOnUse" x1="218.051" y1="431.375" x2="257.357" y2="418.976" gradientTransform="rotate(-.72 5186.821 -2251.97) scale(.27773)"><stop offset=".306" id="stop213" stop-color="#fff"/><stop offset=".395" id="stop215" stop-color="#f1f1f6"/><stop offset=".563" id="stop217" stop-color="#cbcbdd"/><stop offset=".791" id="stop219" stop-color="#8e8fb6"/><stop offset="1" id="stop221" stop-color="#51528e"/></linearGradient><linearGradient id="SVGID_11_" gradientUnits="userSpaceOnUse" x1="292.08" y1="437.321" x2="292.08" y2="406.202" gradientTransform="rotate(-.753 6876.95 -131.501) scale(.366)"><stop offset=".306" id="stop228" stop-color="#fff"/><stop offset=".395" id="stop230" stop-color="#f1f1f6"/><stop offset=".563" id="stop232" stop-color="#cbcbdd"/><stop offset=".791" id="stop234" stop-color="#8e8fb6"/><stop offset="1" id="stop236" stop-color="#51528e"/></linearGradient><linearGradient id="SVGID_12_" gradientUnits="userSpaceOnUse" x1="268.444" y1="432.82" x2="277.184" y2="432.82" gradientTransform="rotate(-.753 6876.95 -131.501) scale(.366)"><stop offset=".306" id="stop241" stop-color="#fff"/><stop offset=".395" id="stop243" stop-color="#f1f1f6"/><stop offset=".563" id="stop245" stop-color="#cbcbdd"/><stop offset=".791" id="stop247" stop-color="#8e8fb6"/><stop offset="1" id="stop249" stop-color="#51528e"/></linearGradient><radialGradient id="SVGID_14_" cx="304.204" cy="224.509" r="103.514" gradientTransform="rotate(-.753 6876.95 -131.501) scale(.366)" gradientUnits="userSpaceOnUse"><stop offset=".12" id="stop295" stop-color="#9396c4"/><stop offset=".288" id="stop297" stop-color="#888cc1"/><stop offset=".457" id="stop299" stop-color="#8085c0"/><stop offset=".629" id="stop301" stop-color="#7e82bf"/><stop offset=".774" id="stop303" stop-color="#787bbb"/><stop offset=".909" id="stop305" stop-color="#6e70b4"/><stop offset="1" id="stop307" stop-color="#6466ae"/></radialGradient><linearGradient id="SVGID_15_" gradientUnits="userSpaceOnUse" x1="190.627" y1="324.711" x2="238.387" y2="309.646" gradientTransform="rotate(-.72 5186.821 -2251.97) scale(.27773)"><stop offset=".306" id="stop314" stop-color="#fff"/><stop offset=".395" id="stop316" stop-color="#f1f1f6"/><stop offset=".563" id="stop318" stop-color="#cbcbdd"/><stop offset=".791" id="stop320" stop-color="#8e8fb6"/><stop offset="1" id="stop322" stop-color="#51528e"/></linearGradient><radialGradient id="SVGID_16_" cx="273.52" cy="211.084" r="77.541" gradientTransform="matrix(.2663 -.00336 .00133 .10579 30.405 101.512)" gradientUnits="userSpaceOnUse"><stop offset="0" id="stop327" stop-color="#fff"/><stop offset=".191" id="stop329" stop-color="#fcfcfd"/><stop offset=".351" id="stop331" stop-color="#f1f2f8"/><stop offset=".501" id="stop333" stop-color="#e0e0ef"/><stop offset=".643" id="stop335" stop-color="#c7c8e2"/><stop offset=".781" id="stop337" stop-color="#a8a9d1"/><stop offset=".913" id="stop339" stop-color="#8283bd"/><stop offset="1" id="stop341" stop-color="#6466ae"/></radialGradient><radialGradient id="SVGID_18_" cx="293.451" cy="148.32" r="43.596" gradientTransform="rotate(-.753 6876.95 -131.501) scale(.366)" gradientUnits="userSpaceOnUse"><stop offset=".081" id="stop391" stop-color="#3d4469"/><stop offset="1" id="stop393" stop-color="#232744"/></radialGradient><linearGradient id="SVGID_19_" gradientUnits="userSpaceOnUse" x1="208.166" y1="156.623" x2="256.181" y2="156.623" gradientTransform="matrix(.2777 -.0035 -.00193 .2778 29.699 65.224)"><stop offset=".306" id="stop404" stop-color="#fff"/><stop offset=".395" id="stop406" stop-color="#f1f1f6"/><stop offset=".563" id="stop408" stop-color="#cbcbdd"/><stop offset=".791" id="stop410" stop-color="#8e8fb6"/><stop offset="1" id="stop412" stop-color="#51528e"/></linearGradient><linearGradient id="SVGID_29_" gradientUnits="userSpaceOnUse" x1="353.111" y1="685.308" x2="280.878" y2="685.308" gradientTransform="matrix(.36597 -.00487 .00475 .35711 2.174 89.534)"><stop offset=".306" id="stop598" stop-color="#fff"/><stop offset=".395" id="stop600" stop-color="#f1f1f6"/><stop offset=".563" id="stop602" stop-color="#cbcbdd"/><stop offset=".791" id="stop604" stop-color="#8e8fb6"/><stop offset="1" id="stop606" stop-color="#51528e"/></linearGradient><radialGradient id="SVGID_30_" cx="330.443" cy="677.451" r="31.753" gradientTransform="matrix(.26524 .24596 -.1307 .13421 127.227 157.664)" gradientUnits="userSpaceOnUse"><stop offset=".57" id="stop611" stop-color="#8085c0"/><stop offset=".706" id="stop613" stop-color="#7e82bf"/><stop offset=".821" id="stop615" stop-color="#787bbb"/><stop offset=".928" id="stop617" stop-color="#6e70b4"/><stop offset="1" id="stop619" stop-color="#6466ae"/></radialGradient><linearGradient id="SVGID_31_" gradientUnits="userSpaceOnUse" x1="287.882" y1="680.54" x2="212.579" y2="680.54" gradientTransform="matrix(.366 .00053 -.00053 .366 3.906 85.863)"><stop offset=".306" id="stop626" stop-color="#fff"/><stop offset=".395" id="stop628" stop-color="#f1f1f6"/><stop offset=".563" id="stop630" stop-color="#cbcbdd"/><stop offset=".791" id="stop632" stop-color="#8e8fb6"/><stop offset="1" id="stop634" stop-color="#51528e"/></linearGradient><radialGradient id="SVGID_32_" cx="265.313" cy="663.998" r="34.4" gradientTransform="matrix(.24958 .2677 -.17766 .16565 152.416 148.016)" gradientUnits="userSpaceOnUse"><stop offset=".57" id="stop639" stop-color="#8085c0"/><stop offset=".706" id="stop641" stop-color="#7e82bf"/><stop offset=".821" id="stop643" stop-color="#787bbb"/><stop offset=".928" id="stop645" stop-color="#6e70b4"/><stop offset="1" id="stop647" stop-color="#6466ae"/></radialGradient><rect width="300" height="150" x="-915" y="948.82" ry=".781" clip-path="url(#c)" transform="translate(-68.337 -475.468)" mask="url(#d)" id="rect1457" fill="#f0f"/><rect width="300" height="150" x="-915" y="948.82" ry=".781" clip-path="url(#q)" mask="url(#r)" transform="translate(496.663 -950.468)" id="rect1487" fill="red"/><rect width="300" height="150" x="-915" y="948.82" ry=".781" clip-path="url(#s)" transform="translate(496.663 -870.468)" mask="url(#t)" id="rect1489" fill="red"/><rect width="300" height="150" x="-915" y="948.82" ry=".781" clip-path="url(#u)" transform="translate(496.663 -790.468)" mask="url(#v)" id="rect1491" fill="red"/><path d="M416.53 554.07c34.91-13.73 89.71-16.53 139.59-15.43 156.68 3.43 298.11 36.8 420.44 74.55 44.29 13.67 87.89 28.4 116.64 47.22 58.52 38.31 41.16 91.38-40.21 122.94-27.69 10.74-61.25 19-95.71 26.26C896 822.59 829.92 833 760.38 836c-49.58 2.11-99.78.39-149.07-2.56-137.73-8.27-272.91-26.44-386.22-57.67-49.7-13.67-96.54-30.67-117-52.8-20.46-22.13-7.38-50.15 43.37-63.25 21-5.41 46.08-7.86 70.65-10.15 36.16-3.38 72.9-6.72 105.53-13.59 33.71-7.1 73.62-20.83 66.95-36.54-7.19-16.86-12.93-31.66 21.94-45.37z" transform="translate(-33.928 -28.704) scale(.51133)" clip-path="url(#clipPath3611)" id="path1267" mask="none" opacity=".1" fill="#663fff" fill-opacity=".941"/><path d="M260.405 18.962l-1.949 113.005s70.523 0 130.523 19.481l1.17-114.19s-96.237-22.97-129.744-18.296z" id="path1269" opacity=".1" stroke-width=".511"/><path d="M259.382 17.428l-1.948 113.005s70.523 0 130.522 19.481l1.171-114.19s-96.238-22.97-129.745-18.296z" id="path1271" fill="#f5f5fb" stroke-width=".511"/><path d="M230.369 18.876l1.948 113.004s-70.523 0-130.522 19.482l-1.171-114.16s96.237-23 129.745-18.326z" id="path1273" opacity=".1" stroke-width=".511"/><path d="M231.392 17.342l1.948 113.004s-70.523 0-130.523 19.482l-1.17-114.16s96.237-23 129.745-18.326z" id="path1275" fill="#f5f5fb" stroke-width=".511"/><path d="M407.172 46.211v111.823s23.01-2.725 71.3 56.886l4.29-111.823s-50.264-54.155-75.59-56.886z" id="path1277" opacity=".1" stroke-width=".511"/><path d="M406.15 45.189v111.823s23.01-2.726 71.3 56.885l4.29-111.823S431.475 47.92 406.15 45.19z" id="path1279" fill="#f5f5fb" stroke-width=".511"/><path d="M84.854 46.462V158.29s-23.01-2.725-71.3 56.886L9.27 103.353s50.259-54.156 75.585-56.891z" id="path1281" opacity=".1" stroke-width=".511"/><path d="M85.877 44.928v111.828s-23.01-2.725-71.3 56.886l-4.285-111.823S60.55 47.664 85.877 44.928z" id="path1283" fill="#f5f5fb" stroke-width=".511"/><ellipse cx="455.61" cy="358.093" rx="17.753" ry="2.623" id="ellipse1333" opacity=".1" fill="#6c63ff" stroke-width=".511"/><ellipse cx="254.12" cy="297.735" rx="11.756" ry="1.314" id="ellipse1335" opacity=".1" fill="#6c63ff" stroke-width=".511"/><ellipse cx="455.141" cy="247.266" rx="11.756" ry="1.314" id="ellipse1337" opacity=".1" fill="#6c63ff" stroke-width=".511"/><ellipse cx="330.815" cy="329.949" rx="11.756" ry="1.314" id="ellipse1339" opacity=".1" fill="#6c63ff" stroke-width=".511"/><ellipse cx="229.346" cy="321.277" rx="11.756" ry="1.314" id="ellipse1341" opacity=".1" fill="#6c63ff" stroke-width=".511"/><ellipse cx="153.173" cy="311.56" rx="11.756" ry="1.314" id="ellipse1343" opacity=".1" fill="#6c63ff" stroke-width=".511"/><ellipse cx="150.781" cy="366.633" rx="11.756" ry="1.314" id="ellipse1345" opacity=".1" fill="#6c63ff" stroke-width=".511"/><path d="M449.435 241.54s3.758-.118 4.893-.926c1.135-.808 5.783-1.77 6.064-.475.282 1.293 5.656 6.437 1.407 6.473-4.25.036-9.864-.665-10.994-1.35-1.13-.685-1.37-3.722-1.37-3.722z" id="path1419" fill="#a8a8a8" stroke-width=".511"/><path d="M461.875 246.162c-4.244.03-9.863-.665-10.993-1.35-.865-.511-1.207-2.408-1.32-3.278h-.127s.24 3.033 1.37 3.723c1.13.69 6.75 1.38 10.994 1.35 1.227 0 1.651-.445 1.626-1.094-.17.398-.634.639-1.55.649z" id="path1421" opacity=".2" stroke-width=".511"/><circle cx="19.01" cy="14.616" r="11.06" id="circle1423" opacity=".1" fill="#6c63ff" stroke-width=".511"/><circle cx="494.548" cy="46.319" r="11.06" id="circle1425" opacity=".1" fill="#6c63ff" stroke-width=".511"/><circle cx="11.192" cy="57.849" r="8.181" id="circle1427" opacity=".1" fill="#6c63ff" stroke-width=".511"/><circle cx="94.028" cy="11.829" r="8.181" id="circle1429" opacity=".1" fill="#6c63ff" stroke-width=".511"/><circle cx="429.461" cy="12.852" r="8.181" id="circle1431" opacity=".1" fill="#6c63ff" stroke-width=".511"/><path d="M457.901 334.08s2.046 2.68-.946 6.725c-2.991 4.044-5.46 7.455-4.464 9.976 0 0 4.515-7.507 8.182-7.614 3.666-.107 1.268-4.566-2.772-9.086z" id="path1433" fill="#fc6681" stroke-width=".511"/><path d="M457.901 334.08a3.283 3.283 0 01.414.844c3.58 4.214 5.502 8.146 2.046 8.243-3.211.092-7.062 5.834-7.987 7.287a2.756 2.756 0 00.112.327s4.515-7.507 8.182-7.614c3.666-.107 1.273-4.566-2.767-9.086z" id="path1435" opacity=".1" stroke-width=".511"/><path d="M461.705 337.496c0 .941-.107 1.708-.235 1.708s-.235-.767-.235-1.708c0-.94.133-.511.26-.511.129 0 .21-.435.21.511z" id="path1437" fill="#ffd037" stroke-width=".511"/><path d="M463.015 338.621c-.829.45-1.534.721-1.616.609-.082-.113.562-.573 1.385-1.023.824-.45.512-.123.568 0 .056.123.49-.036-.337.414z" id="path1439" fill="#ffd037" stroke-width=".511"/><path d="M447.081 334.08s-2.045 2.68.946 6.725c2.992 4.044 5.461 7.455 4.464 9.976 0 0-4.52-7.507-8.181-7.614-3.661-.107-1.273-4.566 2.771-9.086z" id="path1441" fill="#fc6681" stroke-width=".511"/><path d="M447.081 334.08a3.38 3.38 0 00-.419.844c-3.58 4.214-5.497 8.146-2.045 8.243 3.211.092 7.066 5.834 7.987 7.287a4.09 4.09 0 01-.108.327s-4.52-7.507-8.18-7.614c-3.662-.107-1.28-4.566 2.765-9.086z" id="path1443" opacity=".1" stroke-width=".511"/><path d="M443.272 337.496c0 .941.107 1.708.24 1.708s.236-.767.236-1.708c0-.94-.133-.511-.266-.511s-.21-.435-.21.511z" id="path1445" fill="#ffd037" stroke-width=".511"/><path d="M441.968 338.621c.828.45 1.534.721 1.61.609.078-.113-.557-.573-1.385-1.023-.828-.45-.511-.123-.562 0-.051.123-.491-.036.337.414z" id="path1447" fill="#ffd037" stroke-width=".511"/><path d="M443.927 350.433s5.726-.179 7.45-1.406c1.723-1.227 8.81-2.695 9.24-.726.429 1.968 8.6 9.802 2.137 9.853-6.464.051-15.023-1.023-16.741-2.045-1.718-1.023-2.086-5.676-2.086-5.676z" id="path1449" fill="#a8a8a8" stroke-width=".511"/><path d="M462.871 357.469c-6.468.051-15.023-1.023-16.746-2.045-1.309-.798-1.835-3.667-2.01-4.99h-.188s.363 4.601 2.086 5.665c1.723 1.063 10.277 2.106 16.74 2.045 1.867 0 2.511-.68 2.476-1.662-.256.603-.972.977-2.358.987z" id="path1451" opacity=".2" stroke-width=".511"/><path d="M164.821 67.968a10.738 10.738 0 1010.738 10.738 10.738 10.738 0 00-10.738-10.738zm0 2.082a8.693 8.693 0 11-8.692 8.692 8.693 8.693 0 018.692-8.692m6.08 5.65l-.977-.987a.511.511 0 00-.736 0l-6.136 6.08-2.587-2.629a.511.511 0 00-.736 0l-.982.977a.511.511 0 000 .736l3.937 3.968a.511.511 0 00.736 0l7.481-7.424a.511.511 0 000-.737zM45.947 112.107a10.738 10.738 0 1012.896 8.058 10.738 10.738 0 00-12.896-8.058zm.47 2.045a8.693 8.693 0 11-6.499 10.4 8.693 8.693 0 016.5-10.4m7.194 4.142l-1.176-.757a.511.511 0 00-.716.164l-4.602 7.301-3.114-1.968a.511.511 0 00-.716.163l-.741 1.176a.511.511 0 00.163.716l4.725 2.981a.511.511 0 00.721-.163l5.625-8.913a.511.511 0 00-.159-.716zm267.713-48.771a10.738 10.738 0 1010.738 10.738 10.738 10.738 0 00-10.738-10.738zm0 2.081a8.693 8.693 0 11-8.693 8.693 8.693 8.693 0 018.693-8.693m6.08 5.65l-.977-.987a.511.511 0 00-.737 0l-6.136 6.08-2.592-2.613a.511.511 0 00-.736 0l-.977.987a.511.511 0 000 .736l3.937 3.968a.511.511 0 00.737 0l7.48-7.424a.511.511 0 000-.737zm117.115 38.14a10.738 10.738 0 109.873 11.551 10.738 10.738 0 00-9.873-11.55zm-.164 2.071a8.693 8.693 0 11-9.316 7.977 8.667 8.667 0 019.316-7.977m5.625 6.106l-.9-1.059a.511.511 0 00-.731-.061l-6.581 5.589-2.383-2.808a.511.511 0 00-.736-.061l-1.059.9a.511.511 0 00-.056.731l3.615 4.26a.511.511 0 00.731.061l8.038-6.821a.511.511 0 00.062-.731z" id="path1453" opacity=".7" fill="#3acc6c" stroke-width=".511"/><g id="g3602" transform="translate(78.843 86.85) scale(.7038)"><g id="g1499" transform="translate(82.267 -287.392) scale(.51133)" fill="#b3b3b3"><ellipse id="ellipse1493" ry="65" rx="150" cy="813.905" cx="344.536" opacity=".184"/><path id="path1495" d="M195 973.82s0-25.75 0 0c0 30 50 65 150 65s150-35 150-65v-55c0 40-70 65-150 65s-150-25-150-65z" opacity=".184"/><path id="path1497" d="M195 893.82s0-25.75 0 0c0 30 50 65 150 65s150-35 150-65v-55c0 40-70 65-150 65s-150-25-150-65zm0 160s0-25.75 0 0c0 30 50 65 150 65s150-35 150-65v-55c0 40-70 65-150 65s-150-25-150-65z" opacity=".184"/></g><g id="g1507" transform="translate(169.193 -108.937) scale(.51133)" fill="#6c63ff"><ellipse id="ellipse1501" ry="65" rx="150" cy="458.905" cx="174.536"/><path id="path1503" d="M25 618.82s0-25.75 0 0c0 30 50 65 150 65s150-35 150-65v-55c0 40-70 65-150 65s-150-25-150-65z"/><path id="path1505" d="M25 538.82s0-25.75 0 0c0 30 50 65 150 65s150-35 150-65v-55c0 40-70 65-150 65s-150-25-150-65zm0 160s0-25.75 0 0c0 30 50 65 150 65s150-35 150-65v-55c0 40-70 65-150 65s-150-25-150-65z"/></g></g><g id="g10" transform="matrix(.366 0 0 .366 3.634 85.764)"><g id="g8"><path class="st1" d="M451 226.9c-2 4.6-14.3 30.7-34.5 50.1-3.1 3-6.4 5.8-9.8 8.3-1.5 1.1-3 2.1-4.5 3.1-6.7 4.3-14 7.6-21.8 9.2-1.8.4-3.6.7-5.5.8-2.3.2-4.7.3-7.2.2-4.3-.1-8.3-.7-12-1.5l-1.2-.3c-1.5-.4-2.9-.8-4.3-1.2-6.2-2-11.6-5-16.4-8.5-1.6-1.2-3.1-2.4-4.5-3.7-.6-.6-1.3-1.2-1.9-1.8-5.9-5.7-10.6-12.6-14.2-19.9-1.7-3.4-2.8-6.5-3.5-10.2-.7-4.2-.5-8.5.6-12.5.6-2.4 1.6-4.8 3.5-6.5 2-1.9 4.9-2.6 7.6-2.7 5.1-.2 13.4 2.5 15.3 7.8 1.9 5.4 3.4 10.6 6.5 15.5 1.3 2.1 2.8 4 4.3 5.7 1.3 1.4 2.6 2.6 4.1 3.7 2.1 1.6 4.2 2.8 6.6 3.8 1.7.7 3.5 1.2 5.4 1.5 1.7.3 3.4.5 5.3.6 1.4 0 2.9 0 4.3-.3 2.2-.3 4.3-1 6.4-1.8 3.7-1.5 7.3-3.8 10.7-6.6 2.2-1.8 4.4-3.8 6.5-5.9.9-.9 1.7-1.8 2.5-2.7 11.5-12.5 20.4-28.6 24-36.6 3.4-7.7 12.4-11.1 20.1-7.7 7.6 3.4 11 12.4 7.6 20.1z" id="path6" fill="#bdc0e1"/></g></g><g class="st2" id="g28" transform="matrix(.366 0 0 .366 3.634 85.764)" opacity=".1"><g id="g14"><path class="st3" d="M333.8 287.3c-1.6-1.2-3.1-2.4-4.5-3.7 2.8-10.1 9.4-19 18.1-24.8 1.3 1.4 2.6 2.6 4.1 3.7-8.9 5.4-15.5 14.7-17.7 24.8z" id="path12" fill="#232744"/></g><g id="g18"><path class="st3" d="M355.6 297.2l-1.2-.3c-1.5-.4-2.9-.8-4.3-1.2-.7-10.3 2.1-20.9 7.9-29.5 1.7.7 3.5 1.2 5.4 1.5-6.1 8.5-9 19.2-7.8 29.5z" id="path16" fill="#232744"/></g><g id="g22"><path class="st3" d="M380.2 297.7c-1.8.4-3.6.7-5.5.8-2.3-4.9-3.7-10.4-3.9-15.8-.2-5 .5-9.9 2.1-14.6 2.2-.3 4.3-1 6.4-1.8-2.3 5.1-3.4 10.7-3.2 16.3.3 5.2 1.7 10.4 4.1 15.1z" id="path20" fill="#232744"/></g><g id="g26"><path class="st3" d="M406.6 285.4c-1.5 1.1-3 2.1-4.5 3.1-4.8-4.1-8.5-9.6-10.5-15.7-1.4-4.2-1.8-8.8-1.5-13.2 2.2-1.8 4.4-3.8 6.5-5.9-1.8 5.6-1.8 11.9 0 17.5s5.4 10.6 10 14.2z" id="path24" fill="#232744"/></g></g><path d="M112.447 183.45c2.123 4.1 6.515 7.796 10.687 5.125 1.464-.915 2.562-2.306 3.66-3.66 1.098-1.355 2.233-2.745 3.697-3.66.403-.257.952-.11.952-.11s.292-1.977 0-3.368a12.918 12.918 0 00-1.245-3.44c-3.001-5.856-9.406-8.528-14.31-6.04-4.905 2.526-6.442 9.297-3.441 15.154z" id="path47" fill="url(#SVGID_1_)" stroke-width=".366"/><path d="M112.447 183.45c2.123 4.1 6.515 7.796 10.724 5.125 1.464-.915 2.562-2.306 3.66-3.66 1.098-1.355 2.233-2.745 3.697-3.66.402-.257.951-.11.951-.11s.293-1.977 0-3.368c-.073-.329-.146-.622-.22-.951a1 1 0 00-.512.146c-1.464.915-2.599 2.306-3.697 3.66-1.098 1.355-2.232 2.745-3.66 3.66-4.172 2.636-8.6-1.024-10.687-5.124-.769-1.5-1.244-3.038-1.427-4.575-.696 2.782-.33 5.93 1.17 8.858z" id="path60" opacity=".5" fill="url(#SVGID_2_)" stroke-width=".366"/><g id="g64" transform="matrix(.366 0 0 .366 3.634 85.764)"><path class="st6" d="M451 226.9c-.8 1.8-3.3 7.2-7.3 14.2-5.9 10.3-15.1 24.3-27.2 35.9-9-5.6-15.2-15.4-17.3-26 8.3-9.1 15.3-20 19.8-28.4 1.8-3.2 3.2-6 4.2-8.2 3.4-7.7 12.4-11.1 20.1-7.7 7.7 3.5 11.1 12.5 7.7 20.2z" id="path62" fill="#6466ae"/></g><path d="M168.702 168.81c-.293.66-1.208 2.636-2.672 5.198-1.464.292-3.111-.293-4.355-1.208-1.355-.988-2.453-2.27-3.66-3.44-.77-.733-.989-1.318-.989-2.123a40.028 40.028 0 001.537-3.002c1.245-2.818 4.539-4.062 7.357-2.818 2.782 1.281 4.026 4.575 2.782 7.393z" id="path94" fill="url(#SVGID_4_)" stroke-width=".366"/><path class="st6" d="M162.59 170.97c1.61 1.171 3.916 1.793 5.563.695.951-.622 1.5-1.72 2.013-2.745 1.574-3.147 3.148-6.259 4.685-9.406.585-1.135 1.134-2.343 1.134-3.624 0-1.5-.878-2.891-2.05-3.88-1.134-.988-2.525-1.61-3.916-2.159-1.61-.659-3.44-1.317-5.124-.805-2.415.732-3.586 3.404-4.465 5.783-1.098 3.001-2.196 6.076-2.452 9.296-.146 1.61-.11 2.965.988 4.063 1.281 1.171 2.306 1.794 3.624 2.782z" id="path96" fill="#6466ae" stroke-width=".366"/><path d="M174.009 152.047c1.427 1.208 1.976 2.928 1.61 4.795-.402 2.05-1.207 4.465-2.415 6.185-.33.476-.806.952-1.391 1.062-.586.11-1.281-.293-1.281-.879-.879.366-1.94-.073-2.489-.841-.549-.769-.622-1.794-.44-2.709.184-.915.586-1.793 1.026-2.635-1.867.476-3.807.586-5.71.256.073 1.537.11 3.221-.915 4.356-.476.549-1.171.878-1.684 1.39-.658.623-.585 1.135-.658 1.94-.074.732-.33 1.464-.366 2.196-.037.257-.037.476-.037.696-.11-.073-.183-.183-.293-.293-1.135-1.061-1.061-1.793-.915-3.404.256-3.22 1.39-6.295 2.452-9.296.879-2.38 2.013-5.088 4.466-5.783 1.683-.513 3.477.146 5.124.805 1.354.585 2.781 1.208 3.916 2.16z" id="path109" fill="url(#SVGID_5_)" stroke-width=".366"/><g id="g113" transform="matrix(.366 0 0 .366 3.634 85.764)"><path class="st11" d="M475.8 186.4c-2-5.9-11-10-15-10.4h-.5c-.7 0-1.3.1-2 .4-1.8.7-3.1 2.3-3.3 4.4-.3 2.9 1.8 5.5 4.7 5.8 1.1.1 3.4 1.3 4.9 2.4.6.4 1 .8 1.2 1.1.1.3.2.6.2 1 .2 1.4-.1 3-.7 4.6-.6 1.8-1.6 3.5-2.8 5.3-.4.7-.8 1.3-1.3 2-1.6 2.5-.9 5.7 1.5 7.3.4.2.7.4 1.1.5.1.1.3.1.5.2 2.1.5 4.5-.3 5.8-2.2 1.8-2.7 3.8-5.8 5.1-9.4 1.8-4.7 1.9-9.1.6-13z" id="path111" fill="#8085c0"/></g><g id="g128" transform="matrix(.366 0 0 .366 3.634 85.764)"><linearGradient id="SVGID_6_" gradientUnits="userSpaceOnUse" x1="462.794" y1="97.998" x2="441.251" y2="115.379" gradientTransform="rotate(18.006 181.811 181.254)"><stop offset=".306" id="stop115" stop-color="#fff"/><stop offset=".395" id="stop117" stop-color="#f1f1f6"/><stop offset=".563" id="stop119" stop-color="#cbcbdd"/><stop offset=".791" id="stop121" stop-color="#8e8fb6"/><stop offset="1" id="stop123" stop-color="#51528e"/></linearGradient><path d="M470.4 208.1c-1.2 2.3-3.9 3.4-6.4 2.7h-.2l-.3-.1c-2.9-1.1-4.3-4.4-3.2-7.3 1.9-4.7 3.8-9.6 4.3-14.4 0-.4.1-.8.1-1.2.1-1.6-.1-2-.1-2.1-.2-.2-1.3-1-2.1-1.6-.7-.5-1.4-1-2.2-1.6-1.9-1.5-2.7-3.9-2-6.1.6-.2 1.3-.4 2-.4.1 1.6.8 3.2 2.2 4.3.8.6 1.5 1.1 2.2 1.6.9.6 1.9 1.4 2.1 1.6 0 0 .2.5.1 2-.1 1.8-.4 3.7-.9 5.5-.8 3.3-2.1 6.6-3.4 9.9 0 .1-.1.2-.1.2-1.1 2.9.3 6.1 3.2 7.3.1 0 .2.1.3.1 1.5.5 3.1.3 4.4-.4z" id="path126" fill="url(#SVGID_6_)"/></g><g id="g132" transform="matrix(.366 0 0 .366 3.634 85.764)"><path class="st11" d="M455.2 210.8c-.1 0-.2-.1-.3-.1-2.9-1.1-4.3-4.4-3.2-7.3 2-5.1 4.1-10.5 4.4-15.6.1-1.6-.1-2-.1-2-.2-.2-1.3-1-2.1-1.6-.7-.5-1.4-1-2.2-1.6-2.5-1.9-3-5.4-1.1-7.9s5.4-3 7.9-1.1c.7.5 1.3 1 1.9 1.4 4.4 3.1 7.3 5.8 6.9 13.4-.4 7-2.9 13.5-5.2 19.2-1 2.7-4.1 4.1-6.9 3.2z" id="path130" fill="#8085c0"/></g><g id="g147" transform="matrix(.366 0 0 .366 3.634 85.764)"><linearGradient id="SVGID_7_" gradientUnits="userSpaceOnUse" x1="454.039" y1="99.926" x2="432.497" y2="117.307" gradientTransform="rotate(18.006 181.811 181.254)"><stop offset=".306" id="stop134" stop-color="#fff"/><stop offset=".395" id="stop136" stop-color="#f1f1f6"/><stop offset=".563" id="stop138" stop-color="#cbcbdd"/><stop offset=".791" id="stop140" stop-color="#8e8fb6"/><stop offset="1" id="stop142" stop-color="#51528e"/></linearGradient><path d="M461.9 208.2c-1.3 2.3-4.1 3.5-6.6 2.6l-.3-.1c-2.9-1.1-4.3-4.4-3.2-7.3 2-5.1 4.1-10.5 4.4-15.6.1-1.6-.1-2-.1-2.1-.2-.2-1.3-1-2.1-1.6-.7-.5-1.4-1-2.2-1.6-2.5-1.9-3-5.4-1.1-7.9.5-.7 1.1-1.2 1.8-1.5-1.4 2.4-.7 5.5 1.5 7.2.8.6 1.5 1.1 2.2 1.6.9.6 1.9 1.4 2.1 1.6 0 0 .2.5.1 2-.3 5.2-2.4 10.5-4.4 15.6-1.1 2.9.3 6.1 3.2 7.3.1 0 .2.1.3.1 1.5.6 3.1.4 4.4-.3z" id="path145" fill="url(#SVGID_7_)"/></g><g id="g151" transform="matrix(.366 0 0 .366 3.634 85.764)"><path class="st11" d="M425.4 207c-2-.7-3.7-2.4-4-4.7-.4-2.5-.9-5.4-.6-8.6.5-4.3 2.4-7.9 5.4-10.2 3.1-2.4 7.1-3.2 12.2-2.6.8.1 1.5.2 2.3.3 1.7.3 3.2.5 4.4.4 3.3-.4 6.2 1.9 6.6 5.2.4 3.3-1.9 6.2-5.2 6.6-2.9.3-5.4-.1-7.7-.4-.6-.1-1.3-.2-1.9-.3-2.7-.3-3.5.2-3.6.2-.2.2-.6.9-.7 2-.2 1.5.1 3.4.5 5.4.5 3.2-1.6 6.3-4.9 6.9-.9.2-1.9.1-2.8-.2z" id="path149" fill="#8085c0"/></g><g id="g155" transform="matrix(.366 0 0 .366 3.634 85.764)"><path class="st11" d="M444.1 180.7c-.4-.1-.8-.3-1.2-.6-2.8-1.7-3.7-5.4-2-8.2 3.9-6.4 10.1-11.7 17.4-14.7 7.2-3 15.5-3.9 23.5-2.6 3.2.5 5.4 3.6 4.9 6.9-.5 3.2-3.6 5.4-6.9 4.9-5.8-1-11.8-.3-17 1.8-5 2.1-9.1 5.6-11.7 9.9-1.6 2.5-4.5 3.5-7 2.6z" id="path153" fill="#8085c0"/></g><g id="g170" transform="matrix(.366 0 0 .366 3.634 85.764)"><linearGradient id="SVGID_8_" gradientUnits="userSpaceOnUse" x1="428.883" y1="54.995" x2="459.423" y2="101.238" gradientTransform="rotate(18.006 181.811 181.254)"><stop offset=".306" id="stop157" stop-color="#fff"/><stop offset=".395" id="stop159" stop-color="#f1f1f6"/><stop offset=".563" id="stop161" stop-color="#cbcbdd"/><stop offset=".791" id="stop163" stop-color="#8e8fb6"/><stop offset="1" id="stop165" stop-color="#51528e"/></linearGradient><path d="M479.7 166.5c-5.8-1-11.8-.3-17 1.8-5 2.1-9.1 5.6-11.7 9.9-1.5 2.4-4.4 3.4-6.9 2.6-.4-.1-.8-.3-1.2-.5 1.8-.3 3.4-1.4 4.3-3.2 2.3-4.5 6.2-8.2 11-10.6 5-2.5 10.9-3.5 16.8-3 3.3.3 6.2-2.1 6.5-5.3.1-1.3-.1-2.5-.7-3.5.3 0 .5.1.8.1 3.2.6 5.4 3.6 4.9 6.9-.5 3.1-3.6 5.3-6.8 4.8z" id="path168" fill="url(#SVGID_8_)"/></g><g id="g174" transform="matrix(.366 0 0 .366 3.634 85.764)"><path class="st1" d="M323.7 517.3v3.9c.1 8.6.2 17.4.2 26.4V581.8c0 4.5 0 8.9-.1 13.3 0 4.4-.1 8.8-.2 13.1 0 1.3 0 2.6-.1 3.9-.1 9-.3 17.9-.6 26.5 0 1.3-.1 2.6-.1 3.9-.1 3.6-.2 7-.4 10.5-.4 9.3-8.7 16.7-18.7 16.6h-.6c-10.2-.4-18.2-8.3-17.8-17.8.1-2.7.2-5.5.3-8.3 0-1.4.1-2.8.1-4.1.3-8.6.5-17.4.6-26.5 0-1.4.1-2.8.1-4.1.1-5.3.1-10.6.2-15.9 0-3.5.1-7.1.1-10.7v-4.3-26.6-4.4c-.1-9.1-.1-18-.2-26.7v-4.6c-.1-9.3-.3-18.2-.4-26.7 0-1.7-.1-3.3-.1-4.9-.2-9.7-.4-18.7-.6-26.6l-.1-5.6c-.5-18-.8-29.3-.8-29.7-.3-9.5 7.7-17.5 18-17.8 10.3-.3 18.8 7.2 19.1 16.7 0 .4.5 14.2 1 35.8 0 1.3.1 2.5.1 3.8.2 7.9.4 16.8.6 26.4 0 1.3 0 2.5.1 3.8 0 8.4.2 17.3.3 26.5z" id="path172" fill="#bdc0e1"/></g><g class="st2" id="g190" transform="matrix(.366 0 0 .366 3.634 85.764)" opacity=".1"><path class="st3" d="M322.7 460.6c-1.6.2-3.2.4-4.7.5-17.9 1.8-27.5-.7-32.5-3.8l-.1-5.6c.6.7 1.4 1.4 2.5 2.1 4.7 3 14.5 5.6 34.7 2.9 0 1.3 0 2.6.1 3.9z" id="path176" fill="#232744"/><path class="st3" d="M323.3 490.9c-2.3.3-4.5.6-6.5.8-15.9 1.6-25.2-.2-30.6-2.8 0-1.7-.1-3.3-.1-4.9.2.1.4.3.6.4 4.8 3.1 15.1 5.8 36.6 2.6-.1 1.3 0 2.6 0 3.9z" id="path178" fill="#232744"/><path class="st3" d="M323.7 517.3v3.9c-2.9.4-5.6.8-8.2 1-14.3 1.4-23.3.1-28.9-2.1v-4.6c5.3 3 16 5 37.1 1.8z" id="path180" fill="#232744"/><path class="st3" d="M324 547.5v3.9c-3.5.6-6.7 1-9.7 1.3-13.2 1.3-21.8.3-27.4-1.5v-4.4c5.9 2.5 16.9 4.1 37.1.7z" id="path182" fill="#232744"/><path class="st3" d="M324 577.8v3.9c-4 .7-7.6 1.1-10.9 1.5-12.2 1.2-20.5.4-26.2-1.2v-4.3c6.3 2.4 17.5 3.5 37.1.1z" id="path184" fill="#232744"/><path class="st3" d="M323.8 608.2c0 1.3 0 2.6-.1 3.9-4.3.7-8.3 1.3-11.9 1.6-11.6 1.1-19.7.5-25.3-.9 0-1.4.1-2.8.1-4.1 6.6 2 17.9 2.9 37.2-.5z" id="path186" fill="#232744"/><path class="st3" d="M323.1 638.6c0 1.3-.1 2.6-.1 3.9-4.5.8-8.6 1.3-12.4 1.7-11.2 1.1-19.2.6-24.8-.8 0-1.4.1-2.8.1-4.1 6.8 2 18.1 2.7 37.2-.7z" id="path188" fill="#232744"/></g><path class="st6" d="M122.183 303.573c0 1.61-.037 3.221-.074 4.795 0 .476 0 .952-.036 1.427-.037 3.295-.11 6.552-.22 9.7 0 .475-.037.951-.037 1.427a129.821 129.821 0 01-.146 3.843c-.146 3.404-3.184 6.112-6.844 6.076h-.22c-3.733-.147-6.661-3.038-6.515-6.515.037-.988.073-2.013.11-3.038 0-.512.037-1.025.037-1.5.11-3.148.183-6.37.22-9.7 0-.512.036-1.025.036-1.5.036-1.94.036-3.88.073-5.82a30.966 30.966 0 007.796 1.245 26.42 26.42 0 005.38-.33c.147-.073.256-.073.44-.11z" id="path192" fill="#6466ae" stroke-width=".366"/><g id="g211" transform="matrix(.366 0 0 .366 3.634 85.764)"><path class="st3" d="M325 391.9l3 4.8c-1.1 13.1-4.3 37.6-15.2 50.5-.8.9-1.6 1.8-2.4 2.6-.7.7-1.3 1.3-2 1.8-.3.3-.6.5-.9.8-2.3 1.7-4.8 2.9-7.3 3.3-13.6 2.1-21.9 2.9-28.4 2.2-2.3-.2-4.4-.6-6.5-1.2-.3-.1-.6-.2-.8-.3-.4-.1-.9-.3-1.3-.4-6.2-2.1-12.4-5.8-23.1-10.9-16.9-8.1-19.1-33-16.6-52.3.6-4.4 3.7-3.3 8.2-3.3l91.6-1.2c4.7.1 1.5-1.2 1.7 3.6z" id="path209" fill="#232744"/></g><path class="st6" d="M119.218 233.593c0 4.685-.988 11.493-1.976 16.8-.257.256-.476.476-.732.659-.11.11-.22.183-.33.292-.842.623-1.757 1.062-2.672 1.208-4.977.769-8.015 1.062-10.394.806.512-3.734 1.5-12.994.988-15.739-.476-2.598-1.39-2.562.549-3.074 2.379-.622 5.124-.11 7.576-.147 2.599 0 4.356-.768 6.991-.805z" id="path226" fill="#6466ae" stroke-width=".366"/><path d="M119.218 233.593c0 4.685-.988 11.53-1.976 16.8-.257.256-.476.476-.732.659-.11.11-.22.183-.33.292-.842.623-1.757 1.062-2.672 1.208-4.538.732-7.466.989-9.735.879-.22 0-.44-.037-.66-.037.513-3.697 1.501-12.993.989-15.738-.476-2.599-1.39-2.562.549-3.075a9.473 9.473 0 012.306-.292h.073c1.72-.037 3.55.183 5.197.183 2.599-.074 4.356-.842 6.99-.879z" id="path239" fill="url(#SVGID_11_)" stroke-width=".366"/><path d="M104.541 237.839c.476 2.672-.33 11.236-.842 15.592-.22 0-.439-.037-.658-.037.512-3.697 1.5-12.993.988-15.738-.476-2.599-1.391-2.562.549-3.075a9.473 9.473 0 012.306-.292h.732c-.879.036-1.72.11-2.526.329-1.94.512-1.025.512-.549 3.22z" id="path252" fill="url(#SVGID_12_)" stroke-width=".366"/><path class="st6" d="M117.498 233.63v.036c-2.013.183-3.624.769-5.856.806-.366 0-.732 0-1.062-.037 2.599-.037 4.32-.769 6.918-.805z" id="path254" fill="#6466ae" stroke-width=".366"/><path class="st6" d="M110.58 234.472h-.11c-1.244 0-2.525-.11-3.843-.147 1.318-.073 2.672.073 3.953.147z" id="path256" fill="#6466ae" stroke-width=".366"/><g id="g260" transform="matrix(.366 0 0 .366 3.634 85.764)"><path class="st1" d="M259.9 428.9c0 .4-.7 11-1.7 28.1-.1 1.3-.1 2.6-.2 4-.4 7.9-.9 17.1-1.4 27.1-.1 1.3-.1 2.6-.2 4-.4 8.5-.8 17.6-1.3 27.1-.1 1.3-.1 2.6-.2 4-.4 8.8-.8 17.8-1.1 27.1-.1 1.3-.1 2.6-.2 4-.3 8.9-.6 18-.9 27.1 0 1.3-.1 2.7-.1 4l-.3 10.8v1.1c-.1 5.1-.2 10.2-.3 15.2 0 1.3 0 2.7-.1 4 0 2.4-.1 4.8-.1 7.2-.1 6.7-.2 13.3-.2 19.8v4c0 7.1 0 13.9.1 20.5 0 .7 0 1.4-.1 2.1-.8 7.1-6.5 11.8-14 12.2-1.6.1-3.2 0-5-.4-.2 0-.4-.1-.6-.1-5.3-1.2-10.1-4.3-13.5-8.3-3.3-3.8-5.3-8.5-5.3-13.1-.1-5.7-.1-11.6-.1-17.6V638c0-6.6.1-13.3.2-20.1 0-2.4.1-4.7.1-7.1 0-1.7.1-3.3.1-5 .1-4.4.2-8.9.3-13.4 0-1.3.1-2.6.1-3.8l.3-9.6c.1-1.8.1-3.5.2-5.3.3-8.8.6-17.6.9-26.3.1-1.9.1-3.7.2-5.6.3-8.8.7-17.5 1.1-25.9.1-2 .2-3.9.2-5.8.4-8.9.8-17.4 1.2-25.5l.3-6c.5-9.2.9-17.7 1.3-25.2.1-2.1.2-4.1.3-5.9 1-17.3 1.7-28 1.7-28.4.6-9.6 9.7-15.2 20.3-12.4 10.6 2.6 18.7 12.6 18 22.2z" id="path258" fill="#bdc0e1"/></g><g class="st2" id="g276" transform="matrix(.366 0 0 .366 3.634 85.764)" opacity=".1"><path class="st3" d="M258.3 457c-.1 1.3-.1 2.6-.2 4-3.1.2-6 .3-8.6.3-16.7 0-25.2-3.9-29.5-7.8-.1-.1-.3-.2-.4-.3.1-2.1.2-4.1.3-5.9.5 1 1.4 2.3 2.8 3.5 4.5 3.8 14.3 7.8 35.6 6.2z" id="path262" fill="#232744"/><path class="st3" d="M256.6 488.1c-.1 1.3-.1 2.6-.2 4-3.1.2-6 .3-8.7.3-16.7 0-25.2-3.9-29.5-7.8l-.3-.3.3-6c.5 1 1.4 2.2 2.8 3.4 4.5 4 14.3 8 35.6 6.4z" id="path264" fill="#232744"/><path class="st3" d="M255.1 519.2c-.1 1.3-.1 2.6-.2 4-3.2.2-6.2.3-8.9.3-16.7 0-25.2-3.9-29.5-7.8.1-2 .2-3.9.2-5.8.6.9 1.4 2 2.6 3 4.5 4 14.3 7.9 35.8 6.3z" id="path266" fill="#232744"/><path class="st3" d="M253.8 550.3c-.1 1.3-.1 2.6-.2 4-3.4.2-6.5.4-9.4.4-16.2 0-24.7-3.7-29.1-7.4.1-1.9.1-3.7.2-5.6.5.8 1.2 1.6 2.2 2.4 4.6 3.9 14.6 7.9 36.3 6.2z" id="path268" fill="#232744"/><path class="st3" d="M252.8 581.3c0 1.3-.1 2.7-.1 4-3.7.3-7 .4-10.1.4-15.4 0-23.9-3.4-28.4-6.9.1-1.8.1-3.5.2-5.3.4.5 1 1.1 1.6 1.6 4.5 4 14.6 8.1 36.8 6.2z" id="path270" fill="#232744"/><path class="st3" d="M252 612.4c0 1.3 0 2.7-.1 4-4 .3-7.7.5-11 .5-14.4 0-22.7-2.9-27.4-6.2 0-1.7.1-3.3.1-5 .2.2.4.4.7.6 4.5 4 14.8 8.1 37.7 6.1z" id="path272" fill="#232744"/><path class="st3" d="M251.6 643.3v4c-4.6.4-8.7.6-12.4.6-13.1 0-21.1-2.4-26-5.3v-4.8c5 4 15.7 7.7 38.4 5.5z" id="path274" fill="#232744"/></g><path class="st6" d="M96.013 303.976v.366c-.073 1.903-.11 3.806-.146 5.71 0 .512-.037.988-.037 1.5 0 .879-.036 1.794-.036 2.672-.037 2.489-.074 4.941-.074 7.357v1.5c-.036 2.636 0 5.161.037 7.65v.293c-.293 2.598-2.379 4.319-5.124 4.465-.586.037-1.171 0-1.83-.146-.073 0-.146-.037-.22-.037-1.94-.44-3.696-1.574-4.94-3.038-1.209-1.39-1.94-3.11-1.94-4.794-.037-2.087-.037-4.246-.037-6.442v-1.757c0-2.416.036-4.868.073-7.357 0-.878.037-1.72.037-2.598 0-.623.036-1.208.036-1.83l.11-4.905c2.452 1.245 5.124 2.013 7.87 2.16 1.427.11 2.89 0 4.281-.257.183-.073 1.062-.256 1.94-.512z" id="path278" fill="#6466ae" stroke-width=".366"/><path d="M128.405 201.092c-.476 3.33-.989 7.21-1.5 11.127 0 .073 0 .11-.038.183-.073.475-.11.951-.183 1.427 0 .146-.036.293-.073.44-.073.695-.183 1.39-.256 2.049-.073.622-.146 1.244-.22 1.83-.732 5.526-1.354 9.15-1.647 11.785-.622 5.38-5.197 6.003-17.165 6.149-4.685.073-8.748-1.098-12.078-2.635-.769-.366-1.501-.732-2.196-1.098-.44-.22-.842-.44-1.245-.622-3.294-1.538-5.746-1.538-6.588-2.38-1.318-1.354-1.025-2.378-1.537-7.466-.037-.33-.073-.695-.11-1.098 0-.146-.037-.256-.037-.403-.036-.402-.11-.841-.183-1.28l-.036-.22c-.037-.366-.11-.769-.183-1.171a29.862 29.862 0 00-.44-2.38c-1.317-6.039-5.672-15.225-8.344-23.24-1.245-3.734-2.123-7.211-2.16-9.993-.036-2.525.183-4.94.732-7.137.586-2.452 1.318-4.977 2.965-6.954l.073-.073.073-.073c1.977-2.306 4.905-3.185 7.76-3.88 8.967-2.196 18.41-2.306 27.45-.549 4.429.842 8.272 2.562 11.53 5.93 5.636 5.746 7.027 21.777 5.636 31.732z" id="path310" fill="url(#SVGID_14_)" stroke-width=".366"/><path class="st21" d="M128.405 201.092c-.476 3.404-.989 7.357-1.538 11.31-.073.622-.146 1.244-.256 1.866-.073.696-.183 1.391-.256 2.05-.073.622-.146 1.244-.22 1.83-.732 5.526-1.354 9.15-1.647 11.785-.622 5.38-5.197 6.003-17.165 6.149h-.33c11.2-.183 15.556-.915 16.141-6.149.293-2.635.915-6.259 1.647-11.785.073-.586.147-1.208.22-1.83.073-.696.183-1.391.256-2.05.073-.622.146-1.244.256-1.866.513-3.953 1.062-7.906 1.5-11.31 1.392-9.955 0-25.986-5.599-31.696-3.257-3.33-7.1-5.05-11.53-5.93a65.823 65.823 0 00-12.59-1.207c4.685-.11 9.37.293 13.945 1.208 4.429.841 8.272 2.562 11.53 5.929 5.636 5.71 7.027 21.74 5.636 31.696z" id="path312" opacity=".4" fill="#bdc0e1" stroke-width=".366"/><ellipse transform="rotate(-85.794)" class="st1" cx="-158.756" cy="111.546" rx="5.051" ry="11.456" id="ellipse346" fill="#bdc0e1" stroke-width=".366"/><path class="st3" d="M109.263 165.736l-.11-9.406c-.037-2.306-4.246-4.283-9.406-4.392-5.161-.11-9.334 1.683-9.297 4.026l.11 8.271c-.513.44-.769.952-.769 1.5.073 2.16 4.575 4.137 10.102 4.466 5.527.33 9.919-1.134 9.882-3.294a2.407 2.407 0 00-.512-1.171z" id="path348" fill="#232744" stroke-width=".366"/><g id="g360" transform="scale(.366) rotate(-3.148 4559.843 219.13)"><path class="st24" d="M265.4 285.8c2.4 3.8 4.8 7.6 7.3 11.3 1 1.5.5 3.9-1.2 4.4-.9.3-2.1-.1-2.7-1-2.3-3.5-4.6-7.1-6.9-10.7-.6-.9-1.1-1.7-1.7-2.6-.2-.2-.5-.4-.8-.5-.5-.1-1 0-1.5 0-1.3 0-2.6-1.2-2.7-2.7-.2-1.5.9-2.8 2.3-2.9 1.6-.1 3.2-.1 4.8-.3 1.1-.2 1.6-.8 1.5-2-.2-2.2-.4-4.3-.7-6.5-.1-.9-.9-1.7-1.7-1.7-3 .1-6 .2-9.1.3 0 .3.1.6.1.9.8 9.1 1.5 18.3 2.3 27.4.1 1.6-.9 2.9-2.3 3-1.3.1-2.7-1.4-2.8-2.8-.8-10.2-1.8-20.4-2.7-30.6-.2-2.3.7-3.5 2.8-3.5 3.6-.1 7.2-.2 10.8-.4 4.2-.2 7.5 3.7 7.8 7.7.2 2 .3 4 .5 6 .3 3.3-1.2 5.8-3.4 7.2z" id="path350" fill="#fff"/><path class="st24" d="M318.7 269.2c-1.6 7.9-3.2 15.6-4.8 23.4-.4 1.8-.7 3.7-1.1 5.5-.4 1.8-1.6 2.7-3 2.2-1.5-.5-2.5-1.7-2-3.8 1.3-6.6 2.7-13.2 4-19.8.7-3.7 1.5-7.3 2.2-11 .3-1.6 1-2.2 2.4-2.4 1-.1 2-.2 3.1-.2 1.5-.1 2.5.6 3.1 2.2 1.7 4.2 3.3 8.4 5 12.6l6.9 17.7c.7 1.8.2 3.3-1.3 3.9-1.2.5-2.7-.3-3.3-1.9-2.5-6.4-5.1-12.8-7.6-19.3-1.1-2.8-2.2-5.6-3.3-8.3 0-.3-.1-.5-.3-.8z" id="path352" fill="#fff"/><path class="st24" d="M291.4 269.7c-2.1.1-4.2.1-6.2.2-1.3 0-2.2-.6-2.8-2-.4-1.1-.1-2.4.8-3.1.5-.4 1.2-.6 1.8-.6 5.6-.2 11.1-.4 16.7-.6 1.6 0 2.6.6 3.1 2 .6 1.8-.4 3.6-2.1 3.6-2 .1-4 .1-6.1.2 0 .4.1.8.1 1.2.8 8.7 1.6 17.5 2.3 26.2.1.6.1 1.3 0 1.9-.3 1.4-1.4 2.1-2.8 1.9-1.1-.2-2.1-1.4-2.2-2.7l-.9-9.9-1.5-17.4c-.2-.1-.2-.5-.2-.9z" id="path354" fill="#fff"/><path class="st24" d="M275.2 283c-.4-5.1-.9-10.1-1.3-15.2-.1-1.5.6-2.8 1.7-3.1 1.9-.6 3.3 1.1 3.5 2.7v.4l2.7 30.3c.2 1.9-.7 3.2-2.1 3.3-1.6.2-2.9-1.1-3.1-3.1-.5-5.2-.9-10.2-1.4-15.3z" id="path356" fill="#fff"/><path class="st24" d="M323.6 288.4c.2 2.1-1.1 3.7-2.9 3.7-1.8 0-3.3-1.5-3.5-3.5-.2-2 1-3.6 2.8-3.6 1.9-.1 3.4 1.3 3.6 3.4z" id="path358" fill="#fff"/></g><g id="g381" transform="matrix(.366 0 0 .366 3.634 85.764)"><radialGradient id="SVGID_17_" cx="298.235" cy="135.391" r="66.279" gradientTransform="rotate(-.725 204.264 300.661) scale(.99998)" gradientUnits="userSpaceOnUse"><stop offset=".005" id="stop362" stop-color="#a8abc8"/><stop offset=".113" id="stop364" stop-color="#9fa2c6"/><stop offset=".414" id="stop366" stop-color="#888cc1"/><stop offset=".57" id="stop368" stop-color="#8085c0"/><stop offset=".706" id="stop370" stop-color="#7e82bf"/><stop offset=".821" id="stop372" stop-color="#787bbb"/><stop offset=".928" id="stop374" stop-color="#6e70b4"/><stop offset="1" id="stop376" stop-color="#6466ae"/></radialGradient><path d="M315.5 185.2c-2.8 11.9-13.2 24.6-22 25.6-8.6 1-27.7 2.1-36.5 1-.3 0-.5-.1-.7-.1-1-.1-2.1-.5-3.4-1.1-4.7-2-9.6-5.2-14.1-8.6-5.1-3.8-9.7-7.8-12.8-10.3-4.5-3.7-16.3-27.1-18.2-41-.1-.8-.3-1.6-.4-2.4-.1-.6-.2-1.3-.3-2 0-.1 0-.3-.1-.4-.1-.6-.1-1.1-.2-1.7-.1-1.7-.2-3.4-.2-5.1 0-1.2 0-2.3.1-3 .7-13.5 5.9-26 14.1-35.7.3-.3.5-.6.8-1 9-10.2 21.5-17.2 35.9-18.9 18.6-2.2 37.4 5.4 49.7 20 9 10.7 12.7 24 13.5 38 .9 17.9-1.2 29.6-5.2 46.7z" id="path379" fill="url(#SVGID_17_)"/></g><path class="st21" d="M122.183 136.382c.366 6.479-.403 10.76-1.904 17.056-1.024 4.356-4.83 9.004-8.052 9.37-.293.036-.622.073-.988.11 3.184-.55 6.844-5.088 7.833-9.333 1.5-6.296 2.232-10.578 1.903-17.056-.293-5.124-1.647-9.992-4.941-13.909-4.32-5.16-10.907-7.905-17.459-7.393.147-.036.33-.036.476-.073 6.808-.805 13.725 1.976 18.19 7.32 3.295 3.916 4.649 8.784 4.942 13.908z" id="path383" opacity=".4" fill="#bdc0e1" stroke-width=".366"/><g id="g387" transform="matrix(.366 0 0 .366 3.634 85.764)" opacity=".4"><path class="st3" d="M336.9 345.6l-.6 4.2c0 .3-.1.6-.1.9 0-.1-.1-.2-.1-.3-.5-1.3-1.1-2.5-1.7-3.7-2.3-4.5-5.4-8.3-9.2-11.2-6.9-5.3-15.6-7.4-25.9-6.5-11.8 1.1-22.9 7.6-33.1 19.3-1.8 2.1-3.8 5.2-5.9 8.5-4.5 7.1-9.3 14.8-15.9 18-1.8.9-3.8 1.4-5.9 1.5h-.5c-6.7.1-13.3-1.8-19.3-4.6-.1-.9-.2-1.9-.3-3 6.3 3.1 13.2 5.3 20.1 5.1 2.1-.1 4.2-.8 6.1-2 5.2-3.4 9.5-10.3 13.2-16.1 2.1-3.4 4.1-6.5 6.1-8.8 10.7-12.3 22.5-19.1 35-20.3 11-1 20.7 1.4 28.1 7.1 3.1 2.3 5.7 5.2 7.9 8.5.7 1 1.3 2 1.8 3l.1.1c0 .2.1.3.1.3z" id="path385" fill="#232744"/></g><path class="st1" d="M123.39 139.42c-.22 8.528-3.77 15.555-13.981 15.812-10.212.256-22.802-6.332-22.582-14.86.22-8.528 13.14-15.775 23.35-16.031 10.212-.256 13.433 6.551 13.213 15.08z" id="path389" fill="#bdc0e1" stroke-width=".366"/><path d="M123.134 139.457c-.22 8.052-3.55 14.64-13.25 14.86-9.698.22-21.557-5.966-21.337-13.982.22-8.015 12.407-14.86 22.106-15.116 9.663-.256 12.7 6.186 12.481 14.238z" id="path396" fill="url(#SVGID_18_)" stroke-width=".366"/><path d="M122.768 139.457c-.183 7.613-3.367 13.835-12.517 14.09h-1.098c8.747-.475 11.785-6.624 11.968-14.054.183-7.32-2.452-13.212-10.797-13.469.183 0 .403-.036.586-.036 9.186-.22 12.041 5.856 11.858 13.469z" id="path398" fill="#3c4466" stroke-width=".366"/><path transform="rotate(-1.456)" class="st1" id="rect400" fill="#bdc0e1" stroke-width=".366" d="M100.444 138.424h2.269v8.199h-2.269z"/><path transform="rotate(-1.456)" class="st1" id="rect402" fill="#bdc0e1" stroke-width=".366" d="M111.134 138.803h2.086v7.467h-2.086z"/><g id="g419" transform="matrix(.366 0 0 .366 3.634 85.764)"><path id="path417" d="M151.9 499.8c-1.7-.2-3.2-1.1-4.3-2.5-9.7-13.9-6-37.3-5.6-39.9.6-3.3 3.7-5.5 7-4.9 3.3.6 5.5 3.7 4.9 7-1 5.8-2.3 22.5 3.6 30.9 1.9 2.7 1.2 6.5-1.5 8.4-1.3.9-2.7 1.2-4.1 1z" class="st11" fill="#8085c0"/></g><g id="g434" class="st7" transform="matrix(.366 0 0 .366 3.634 85.764)" opacity=".3"><linearGradient gradientTransform="rotate(6.536 22.96 224.145)" y2="459.928" x2="179.172" y1="460.472" x1="173.729" gradientUnits="userSpaceOnUse" id="SVGID_20_"><stop id="stop421" offset=".306" stop-color="#fff"/><stop id="stop423" offset=".395" stop-color="#f1f1f6"/><stop id="stop425" offset=".563" stop-color="#cbcbdd"/><stop id="stop427" offset=".791" stop-color="#8e8fb6"/><stop id="stop429" offset="1" stop-color="#51528e"/></linearGradient><path id="path432" d="M156 498.8c-1.2.9-2.7 1.2-4.1 1.1-.7-.1-1.4-.3-2-.6.7-.1 1.7-.3 2.1-.9 1.7-2.6 2.1-6.1.2-8.8-5.9-8.4-3.3-24.7-2.3-30.4.5-2.7-.9-5.3-3.3-6.5.7-.2 1.6-.2 2.4-.1 3.3.6 5.5 3.7 4.9 7-1 5.8-2.3 22.5 3.6 30.9 1.9 2.6 1.2 6.4-1.5 8.3z" fill="url(#SVGID_20_)"/></g><g id="g438" transform="matrix(.366 0 0 .366 3.634 85.764)"><path id="path436" d="M185.4 498.5c-1.3.9-2.6 1.3-4 1.3-1.9 0-3.8-.9-5-2.6-10.3-14.1-11.3-36.2-11.4-37.1-.1-3.5 2.6-6.5 6.1-6.6 2.3-.1 4.4 1.1 5.6 2.9.6.9 1 2 1 3.1 0 .1.2 4.9 1.5 11 1.2 6.1 3.5 13.6 7.5 19.1 2.1 2.9 1.5 6.8-1.3 8.9z" class="st11" fill="#8085c0"/></g><g id="g442" transform="matrix(.366 0 0 .366 3.634 85.764)"><path id="path440" d="M166.1 502.3c-1.6 0-3.2-.7-4.3-2-12.3-13.6-9.6-39.9-9.3-42.9.4-3.3 3.4-5.7 6.7-5.3 3.3.4 5.7 3.4 5.3 6.7-.8 6.5-1.1 25.3 6.2 33.3 2.2 2.5 2.1 6.3-.4 8.5-1.2 1.2-2.7 1.7-4.2 1.7z" class="st11" fill="#8085c0"/></g><g id="g457" class="st7" transform="matrix(.366 0 0 .366 3.634 85.764)" opacity=".3"><linearGradient gradientTransform="rotate(1.281 59.42 9.968) scale(1.00005)" y2="483.145" x2="166.255" y1="475.492" x1="172.241" gradientUnits="userSpaceOnUse" id="SVGID_21_"><stop id="stop444" offset=".306" stop-color="#fff"/><stop id="stop446" offset=".395" stop-color="#f1f1f6"/><stop id="stop448" offset=".563" stop-color="#cbcbdd"/><stop id="stop450" offset=".791" stop-color="#8e8fb6"/><stop id="stop452" offset="1" stop-color="#51528e"/></linearGradient><path id="path455" d="M170.3 500.7c-.2.2-.5.4-.8.6 1.3-2.2 1-5.1-.8-7-7.3-8.1-7-26.8-6.2-33.3.4-3.3-2-6.3-5.3-6.7-1.4-.2-2.8.2-3.9.9 1.2-2 3.5-3.3 5.9-3 3.3.4 5.7 3.4 5.3 6.7-.7 6.5-1.1 25.3 6.2 33.3 2.3 2.5 2.1 6.3-.4 8.5z" fill="url(#SVGID_21_)"/></g><g id="g476" transform="matrix(.366 0 0 .366 3.634 85.764)"><path id="path474" d="M189.9 471.1c-2.5-.1-4.8-1.6-5.6-4.1-3.7-11.1-11.6-20.5-11.6-20.6-2.1-2.5-1.8-6.4.7-8.5 2.5-2.1 6.3-1.8 8.5.7.4.5 9.5 11.3 13.9 24.6 1 3.2-.7 6.6-3.8 7.6-.7.2-1.4.3-2.1.3z" class="st11" fill="#8085c0"/></g><g id="g491" transform="matrix(.366 0 0 .366 3.634 85.764)" opacity=".5"><linearGradient gradientTransform="rotate(1.281 59.42 9.968) scale(1.00005)" y2="453.004" x2="206.178" y1="453.004" x1="180.864" gradientUnits="userSpaceOnUse" id="SVGID_23_"><stop id="stop478" offset=".306" stop-color="#fff"/><stop id="stop480" offset=".395" stop-color="#f1f1f6"/><stop id="stop482" offset=".563" stop-color="#cbcbdd"/><stop id="stop484" offset=".791" stop-color="#8e8fb6"/><stop id="stop486" offset="1" stop-color="#51528e"/></linearGradient><path id="path489" d="M191.9 470.8c-.7.2-1.3.3-2 .3-2.5-.1-4.8-1.7-5.6-4.1-3.7-11.1-11.6-20.6-11.6-20.7-1.4-1.6-1.7-3.9-1.1-5.8.2.8.6 1.6 1.2 2.3.1.1 8 9.5 11.6 20.6.8 2.5 3.1 4.1 5.6 4.1.7 0 1.4-.1 2-.3 1.9-.6 3.3-2.1 3.8-3.8.9 3.2-.8 6.4-3.9 7.4z" fill="url(#SVGID_23_)"/></g><g id="g495" transform="matrix(.366 0 0 .366 3.634 85.764)"><path id="path493" d="M215.2 258.8c-.1.2-3.7 9.1-8.6 25.3-.8 2.6-1.6 5.5-2.4 8.5-.4 1.6-.9 3.2-1.3 4.8-.4 1.8-.9 3.6-1.4 5.4 0 .1-.1.2-.1.3-.9 3.3-1.7 6.8-2.6 10.5-.7 3-1.4 6.1-2 9.3 0 .1-.1.2-.1.3-.1.6-.3 1.1-.4 1.7-.3 1.3-.6 2.7-.8 4-.4 2.1-.8 4.2-1.3 6.4-.6 3.1-1.2 6.2-1.7 9.5-.2 1.3-.4 2.5-.6 3.8-.3 1.6-.5 3.2-.8 4.9 0 .2-.1.5-.1.8l-.1.4c-.4 2.6-.8 5.1-1.2 7.5-.5 3.6-1.1 6.9-1.6 10.1 0 .3-.1.6-.1.8-.3 1.8-.5 3.5-.8 5.2-5.4 35.1-6 43.6-6.1 44.4-.3 5.9-2.9 11-6.9 14.2-2.9 2.3-6.4 3.7-10.2 3.6-9.2-.2-16.5-8.7-16.3-18.9 0-2.1.7-11.9 7.1-53.2.3-1.6.5-3.3.8-5 0-.1 0-.2.1-.4.5-3.2 1-6.5 1.5-10 .3-1.9.6-3.9 1-5.9.1-.5.1-.9.2-1.4.1-.7.2-1.5.4-2.2.3-1.7.5-3.3.8-5l.3-1.8c.6-3.5 1.2-7 1.9-10.3.5-2.5 1-5 1.5-7.4.2-.9.4-1.8.5-2.7.2-.8.3-1.6.5-2.3.1-.2.1-.5.2-.7.6-3.1 1.3-6 2-8.9 1-4.2 1.9-8.2 2.9-12v-.1c.4-1.7.9-3.4 1.3-5 .4-1.7.9-3.3 1.3-4.8 6.8-24.6 12.5-38.4 12.9-39.4 3.9-9.3 13.9-13.4 22.2-9.1 1.2.7 2.4 1.4 3.4 2.3 5.9 5.4 8.1 14.6 4.7 22.5z" class="st1" fill="#bdc0e1"/></g><path id="path529" d="M85.582 179.9c-.11 4.612-2.452 9.846-7.393 9.297-1.72-.183-3.33-.952-4.905-1.72-1.573-.732-3.184-1.501-4.904-1.684-.476-.037-.879.33-.879.33s-1.098-1.648-1.464-3.038a13.535 13.535 0 01-.402-3.66c.146-6.552 4.721-11.786 10.248-11.676 5.49.183 9.846 5.6 9.7 12.151z" fill="url(#SVGID_25_)" stroke-width=".366"/><path id="path542" d="M85.582 179.9c-.11 4.612-2.489 9.846-7.393 9.297-1.72-.183-3.33-.952-4.905-1.72-1.573-.732-3.184-1.501-4.904-1.684-.476-.037-.879.33-.879.33s-1.134-1.648-1.464-3.038c-.073-.33-.146-.623-.22-.952a.805.805 0 01.513-.073c1.72.183 3.33.915 4.905 1.683 1.574.769 3.184 1.5 4.904 1.72 4.941.55 7.284-4.684 7.393-9.296a13.513 13.513 0 00-.732-4.758c1.794 2.196 2.855 5.197 2.782 8.491z" opacity=".5" fill="url(#SVGID_26_)" stroke-width=".366"/><path id="path544" d="M71.71 227.48l-2.159 17.423-.44 3.513c-.329 2.636-3.55 4.392-6.404 3.99l-.403-.037c-2.855-.402-5.783-3.916-5.49-6.551l.366-2.709 2.306-16.69c.33-2.635 0-3.66 3.514-4.135.805-.11 3.33.183 3.33.183 2.855.366 5.673 2.379 5.38 5.014z" class="st6" fill="#6466ae" stroke-width=".366"/><path id="path559" d="M69.514 244.903l-.439 3.513c-.33 2.636-3.55 4.392-6.405 3.99l-.402-.037c-2.855-.402-5.783-3.916-5.49-6.551l.366-2.709c1.464-1.427 3.806-2.196 5.965-1.903l.476.073c1.977.293 4.941 1.391 5.93 3.624z" opacity=".7" fill="#232744" stroke-width=".366"/><path id="path561" d="M61.17 261.666h-.11c-1.83-.256-3.697-.879-5.014-2.123-2.27-2.123-1.391-5.307-1.025-7.87.256-1.83.549-3.66.768-5.526.293-2.562 4.026-4.245 7.357-3.77l.476.074c2.196.292 5.71 1.537 6.258 3.916.366 1.574.33 3.33.403 4.941.073 1.83.073 3.623 0 5.417-.073 1.061-.146 2.16-.769 3.001-.658.952-1.866 1.464-3.037 1.72-1.72.403-3.587.44-5.307.22z" class="st6" fill="#6466ae" stroke-width=".366"/><g id="g592" class="st7" transform="matrix(.366 0 0 .366 3.634 85.764)" opacity=".3"><g id="g578" class="st7" opacity=".3"><path id="path576" d="M202.9 297.4c-.4 1.8-.9 3.6-1.4 5.4 0 .1-.1.2-.1.3-10.4-13-25.7-11.8-32-10.7.4-1.7.9-3.4 1.3-5 7.7-1 21.6-.9 32.2 10z" class="st3" fill="#232744"/></g><g id="g582" class="st7" opacity=".3"><path id="path580" d="M196.8 323.1c-.1.6-.3 1.1-.4 1.7-.3 1.3-.6 2.7-.8 4-10.9-12.8-26.6-10.9-32.2-9.7.2-.9.4-1.8.5-2.7.2-.8.3-1.6.5-2.3 7.2-1.1 21.4-1.5 32.4 9z" class="st3" fill="#232744"/></g><g id="g586" class="st7" opacity=".3"><path id="path584" d="M192 348.5c-.3 1.6-.5 3.2-.8 4.9 0 .2-.1.5-.1.8l-.1.4c-10.3-13.3-25.5-12.3-32.1-11.1.3-1.7.5-3.3.8-5 7.6-.9 21.6-.8 32.3 10z" class="st3" fill="#232744"/></g><g id="g590" class="st7" opacity=".3"><path id="path588" d="M188.2 372.3c0 .3-.1.6-.1.8-.3 1.8-.5 3.5-.8 5.2-10.8-12.8-26.7-11-32.4-9.9.3-1.6.5-3.3.8-5 7.1-1.1 21.4-1.6 32.5 8.9z" class="st3" fill="#232744"/></g></g><path class="st6" d="M134.737 337.356s.768 3.074.036 3.66c-.732.585-5.856.292-10.98.951-6.917.915-12.261-6.222-14.31-8.71-1.94-2.38-1.245-3.99-1.318-9.7 0 0 9.662 3.038 13.578-.073 0 0-.988 5.746 1.208 8.564 2.16 2.892 10.541 5.344 11.786 5.308z" id="path596" fill="#6466ae" stroke-width=".366"/><path d="M134.737 337.356s.768 3.074.036 3.66c-.732.585-7.393.951-12.59 1.025-5.198.073-10.102-5.527-12.152-8.016-1.94-2.379-2.196-3.257-1.757-10.431 0 0 2.16.768 8.638-.147 2.05-.292 4.429 2.123 4.758.22 0 0-.293 5.856 2.782 8.162 2.964 2.196 9.04 5.563 10.285 5.527z" id="path609" fill="url(#SVGID_29_)" stroke-width=".366"/><path d="M121.377 325.204s3.404 6.04 13.36 12.188c0 0-2.562.037-8.675.11-6.075.073-5.892-.256-9.662-5.234-3.77-5.014-4.21-10.175 4.977-7.064z" id="path622" fill="url(#SVGID_30_)" stroke-width=".366"/><path class="st6" d="M108.897 340.467s.732 3.44 0 4.062c-.732.623-10.066.952-15.373.952-5.343 0-9.04-5.673-11.126-8.491-1.977-2.672-.732-6.003-.732-12.335 0 0 10.028 3.587 14.091.183 0 0-1.098 6.369 1.098 9.553 2.196 3.184 10.797 6.076 12.042 6.076z" id="path624" fill="#6466ae" stroke-width=".366"/><path d="M108.897 340.467s.732 3.44 0 4.062c-.732.623-10.066.952-15.373.952-5.343 0-9.04-5.673-11.126-8.491-1.977-2.672-.732-6.003-.732-12.335 0 0 2.452.988 9.113.073 2.087-.292 4.539 2.453 4.905.33 0 0-.403 6.515 2.745 9.113 3.001 2.453 9.223 6.296 10.468 6.296z" id="path637" fill="url(#SVGID_31_)" stroke-width=".366"/><path d="M95.354 326.705s3.44 6.771 13.58 13.762H96.854c-6.295 0-5.087-.366-8.894-5.966-3.806-5.637-2.013-11.383 7.393-7.796z" id="path650" fill="url(#SVGID_32_)" stroke-width=".366"/><g id="g691" transform="matrix(.366 0 0 .366 3.634 85.764)"><path id="polygon652" opacity=".3" fill="#8085c0" d="M376 290.7l-4.1-173.3 171.4-3.1-5.6 144.4z"/><linearGradient id="SVGID_33_" gradientUnits="userSpaceOnUse" x1="373.4" y1="208.36" x2="543.398" y2="208.36" gradientTransform="matrix(1.0095 -.03403 .025 .9897 -8.33 10.512)"><stop offset=".306" id="stop654" stop-color="#fff"/><stop offset=".395" id="stop656" stop-color="#f1f1f6"/><stop offset=".563" id="stop658" stop-color="#cbcbdd"/><stop offset=".791" id="stop660" stop-color="#8e8fb6"/><stop offset="1" id="stop662" stop-color="#51528e"/></linearGradient><path id="polygon665" opacity=".3" fill="url(#SVGID_33_)" stroke="#8085c0" stroke-width="1.555" stroke-miterlimit="10" d="M376 290.7l-4.1-173.3 171.4-3.1-5.6 144.4z"/><path class="st47" id="polyline667" fill="none" stroke="#fff" stroke-width="1.555" stroke-linecap="round" stroke-linejoin="round" stroke-miterlimit="10" d="M474.4 170.9l-41 3.6.1-19.3-28.3.7"/><path class="st47" id="line669" fill="none" stroke="#fff" stroke-width="1.555" stroke-linecap="round" stroke-linejoin="round" stroke-miterlimit="10" d="M472.7 158.9l53-4.3"/><path class="st47" id="line671" fill="none" stroke="#fff" stroke-width="1.555" stroke-linecap="round" stroke-linejoin="round" stroke-miterlimit="10" d="M412.7 249.3l111.7-16.9"/><path class="st47" id="line673" fill="none" stroke="#fff" stroke-width="1.555" stroke-linecap="round" stroke-linejoin="round" stroke-miterlimit="10" d="M458.6 250.5l59.1-9.6"/><path class="st47" id="line675" fill="none" stroke="#fff" stroke-width="1.555" stroke-linecap="round" stroke-linejoin="round" stroke-miterlimit="10" d="M525.2 144.3l-40.5 2.2"/><path class="st47" d="M502.2 133.3s-78 3.1-77.2 2.1" id="path677" fill="none" stroke="#fff" stroke-width="1.555" stroke-linecap="round" stroke-linejoin="round" stroke-miterlimit="10"/><path class="st47" id="polygon679" fill="none" stroke="#fff" stroke-width="1.555" stroke-linecap="round" stroke-linejoin="round" stroke-miterlimit="10" d="M396.3 165.9l.8 27.6 29.1-3.1V165z"/><g id="g689" opacity=".7"><ellipse transform="rotate(-.769 505.674 174.554) scale(.99999)" class="st24" cx="505.7" cy="174.5" rx="20" ry="10.1" id="ellipse681" fill="#fff"/><path class="st24" d="M523.6 183c-3.3 3.5-10.3 5.9-18.4 5.9-8.1 0-15-2.4-18-5.9-1.1-1.3-1.7-2.7-1.6-4.2l-.3 8.3c-.2 5.6 8.6 10.1 19.6 10.1 11 0 20.2-4.5 20.4-10.1l.3-8.3c-.1 1.5-.8 2.9-2 4.2z" id="path683" fill="#fff"/><path class="st24" d="M523.1 195.3c-3.3 3.5-10.3 5.9-18.4 5.9-8.1 0-15-2.4-18-5.9-1.1-1.3-1.7-2.7-1.6-4.2l-.3 8.3c-.2 5.6 8.6 10.1 19.6 10.1 11 0 20.2-4.5 20.4-10.1l.3-8.3c-.1 1.5-.8 2.9-2 4.2z" id="path685" fill="#fff"/><path class="st24" d="M522.6 208.1c-3.3 3.5-10.3 5.9-18.4 5.9-8.1 0-15-2.4-18-5.9-1.1-1.3-1.7-2.7-1.6-4.2l-.3 8.3c-.2 5.6 8.6 10.1 19.6 10.1 11 0 20.2-4.5 20.4-10.1l.3-8.3c-.1 1.5-.8 2.9-2 4.2z" id="path687" fill="#fff"/></g></g><ellipse cx="108.333" cy="339.801" rx="51.101" ry="10.759" id="ellipse1365-6-7" opacity=".1" fill="#6c63ff" stroke-width=".97"/><g id="g2028" transform="translate(-248.277 -138.468) scale(1.65323)" stroke-width=".511"><ellipse id="ellipse1365" ry="5.246" rx="29.146" cy="295.654" cx="377.832" opacity=".1" fill="#6c63ff"/><path id="path1367" d="M361.47 228.808c1.472.869 3.783 1.437 6.693-.435l-.026 4.147c.204 2.843 3.722 13.208 3.722 13.208l2.48 8.524a66.509 66.509 0 012.726 18.55c0 2.077.194 4.224.792 5.84 1.325 3.58-.511 8.181-1.314 9.88a40.958 40.958 0 01-4.09 1.15 2.981 2.981 0 00-.363.112v-.026s-3.723 1.478-5.38 1.274c-1.232-.149-2.004 1.39-1.022 2.52a7.609 7.609 0 01-2.475.328c-1.657-.205-2.485 2.638.619 3.451 3.103.813 20.688 0 20.688 0a2.49 2.49 0 001.32-2.75l2.198-.093s3.104-1.421 0-5.282l-.169.123-.66-1.953v-2.634s3.933-18.919 2.69-21.133c-1.242-2.214-1.902-13.637-1.902-13.637l.435-12.374c1.12-2.312 1.692-5.942 1.984-8.78a18.408 18.408 0 00.792-4.162c.051-.67.092-1.365.118-2.092a13.944 13.944 0 00-.757-4.683 47.073 47.073 0 014.689-5.88 6.044 6.044 0 001.866-5.283l-1.022-6.908-2.485-11.76c.311-3.268-.369-5.15-1.125-6.213.179-1.059.347-2.112.475-3.175a40.702 40.702 0 00-.726-13.806c-.358-1.575-.849-3.196-1.958-4.393-1.253-1.36-3.288-2.183-3.759-3.957a10.564 10.564 0 00-.286-1.34c-.455-1.16-1.887-1.585-3.145-1.739-2.24-.27-5.476-.475-7.629.404a9.25 9.25 0 00-4.418 4.101 3.523 3.523 0 00-.51 2.531 3.375 3.375 0 00.352.87 7.87 7.87 0 004.571 10.073c.051.158.097.312.133.46a7.88 7.88 0 01.205 1.11c-.041.715-.087 1.436-.118 2.157l-.077.292a53.756 53.756 0 00-5.2 2.648c1.238 1.831-.21 9.552-.21 9.552-3.103 1.826-6.202 6.5-2.894 11.377 3.309 4.878 1.447 10.155 1.447 10.155l-.51 7.946-.103 1.59h.036l-.036.604h.087v.65c-1.452.536-3.58 1.61-4.843 3.604a12.753 12.753 0 01-2.163 2.654 1.595 1.595 0 00.256 2.603zm24.978-21.108a7.552 7.552 0 01.736-3.999h1.462a9.495 9.495 0 00.18.962c.419 1.815-1.258 2.669-2.378 3.037z" fill="url(#b)"/><path id="path1369" d="M386.857 286.445l.797 2.388-2.587 2.587-8.56 2.015-6.171-.598.399-2.189a2.644 2.644 0 011.958-1.933c2.557-.593 7.373-1.953 8.39-3.84z" fill="#db8b8b"/><path id="path1371" d="M386.857 286.445l.797 2.388-2.587 2.587-8.56 2.015-6.171-.598.399-2.189a2.644 2.644 0 011.958-1.933c2.557-.593 7.373-1.953 8.39-3.84z" opacity=".1"/><path id="path1373" d="M372.325 292.218l1.196-1.59-1.196-1.846s-3.58 1.447-5.175 1.247c-1.595-.199-2.388 2.588.598 3.385 2.987.798 19.906 0 19.906 0s2.987-1.395 0-5.18l-2.587 1.995s-4.382 2.388-6.57 1.989z" fill="#c17174"/><path id="path1375" d="M366.956 295.603l6.172.598 8.56-1.994 2.587-2.587-.21-.63-.297-.889-.291-.87-5.783-1.59a3.58 3.58 0 01-1.171 1.172c-1.877 1.283-5.241 2.208-7.22 2.669a1.953 1.953 0 00-.246.076 2.557 2.557 0 00-1.022.62 2.608 2.608 0 00-.706 1.236z" fill="#db8b8b"/><path id="path1377" d="M366.956 295.603l6.172.598 8.56-1.994 2.587-2.587-.21-.63-2.378 1.826s-4.382 2.388-6.57 1.99h-6.177l1.196-1.59-1.074-1.658a2.557 2.557 0 00-1.022.62 2.608 2.608 0 00-.706 1.236z" opacity=".1"/><path id="path1379" d="M368.94 295.005l1.196-1.59-1.196-1.846s-3.58 1.447-5.175 1.247c-1.595-.2-2.388 2.588.598 3.385 2.987.798 19.906 0 19.906 0s2.987-1.396 0-5.174l-2.587 1.989s-4.382 2.388-6.57 1.989z" fill="#c17174"/><path id="path1381" d="M373.915 179.546s9.557 1.023 8.181-2.986a7.113 7.113 0 01-.296-3.518 9.685 9.685 0 011.687-4.045l-8.958 1.391a11.178 11.178 0 011.217 2.879c1.048 4.224-1.831 6.28-1.831 6.28z" fill="#db8b8b"/><path id="path1383" d="M390.242 224.917s-.2 8.56-2.189 12.742l-.399 12.144s.594 11.147 1.79 13.336c1.197 2.188-2.587 20.703-2.587 20.703v3.186s-6.371 2.388-8.181-.399l1.79-23.69-.799-32.843z" fill="#474463"/><path id="path1385" d="M390.242 224.917s-.2 8.56-2.189 12.742l-.399 12.144s.594 11.147 1.79 13.336c1.197 2.188-2.587 20.703-2.587 20.703v3.186s-6.371 2.388-8.181-.399l1.79-23.69-.799-32.843z" opacity=".1"/><path id="path1387" d="M394.22 197.463l1.196 3.186 1.023 6.765a6.008 6.008 0 01-1.795 5.18c-2.388 2.387-5.573 7.363-5.573 7.363l-3.779-11.347s3.779-.598 3.18-3.185c-.598-2.588-.393-7.364-.393-7.364z" fill="#ff748e"/><path id="path1389" d="M394.266 197.417l1.191 3.186 1.023 6.77a5.983 5.983 0 01-1.79 5.174c-2.393 2.388-5.573 7.369-5.573 7.369l-3.81-11.362s3.784-.598 3.186-3.186c-.598-2.587-.399-7.368-.399-7.368z" opacity=".05"/><path id="path1391" d="M376.528 288.833c2.557 4.019 6.53 1.738 7.235 1.289l-.291-.87-5.778-1.61a3.58 3.58 0 01-1.166 1.191z" opacity=".1"/><path id="path1393" d="M368.54 232.699c.2 2.787 3.58 12.937 3.58 12.937l2.388 8.355a66.673 66.673 0 012.623 18.173 17.748 17.748 0 00.762 5.721c1.596 4.382-1.59 10.35-1.59 10.35 2.787 4.98 7.563 1.595 7.563 1.595v-3.186s3.783-17.318 2.786-20.703c-.997-3.385-1.39-12.538-1.39-12.538v-16.526a18.75 18.75 0 005.46-11.884c.046-.654.087-1.34.113-2.045.158-4.49-2.915-9.756-4.09-11.633-.287-.455-.471-.71-.471-.71l-17.575 6.974h-.04v2.194z" fill="#474463"/><path id="path1395" d="M374.513 170.388a11.178 11.178 0 011.217 2.879 7.782 7.782 0 006.054-.225 9.685 9.685 0 011.688-4.045z" opacity=".1"/><circle id="circle1397" r="7.762" cy="165.612" cx="378.497" fill="#db8b8b"/><path id="path1399" d="M368.54 219.757h.088c8.345 1.718 18.827-6.98 18.827-6.98a10.385 10.385 0 01-.726-1.482 15.17 15.17 0 00-.47-.711l-17.575 6.974-.046.696z" opacity=".1"/><path id="path1401" d="M370.735 179.347s11.147-6.77 14.726-3.984l4.98 6.372s3.186.997 2.593 7.388l2.388 11.546-7.159 1.79s-4.178 3.983-.793 9.756c0 0-10.553 8.76-18.919 6.964l.598-9.352s1.79-5.18-1.39-9.955c-3.18-4.776-.2-9.358 2.786-11.148-.01-.02 1.38-7.588.19-9.377z" fill="#ff748e"/><path id="path1403" d="M370.136 219.957s-4.182.797-6.171 3.983a12.425 12.425 0 01-2.087 2.603 1.575 1.575 0 00.25 2.515c1.58.951 4.153 1.534 7.41-1.14 5.6-4.576.598-7.961.598-7.961z" fill="#db8b8b"/><path id="path1405" d="M376.308 183.13s3.978-.398 4.975 9.951c.997 10.35 2.588 12.742 2.588 12.742s.997 5.375-1.396 8.56c-2.393 3.186-6.965 9.956-6.965 9.956s-4.975 1.39-5.972-3.58l6.172-11.545s.992-3.984-1.396-6.77c-2.388-2.787-4.178-21.308 1.994-19.313z" opacity=".1"/><path id="path1407" d="M375.91 182.532s3.977-.399 4.974 9.956c.998 10.354 2.588 12.737 2.588 12.737s1.022 5.374-1.391 8.56c-2.414 3.185-6.944 9.955-6.944 9.955s-4.975 1.391-5.972-3.579l6.172-11.546s.997-3.983-1.396-6.77c-2.393-2.786-4.204-21.302 1.968-19.313z" fill="#ff748e"/><path id="path1409" d="M372.621 189.998s-.393 6.171 1.396 9.556c1.79 3.386 1.79 7.763 0 10.15m-2.388-27.274s1.59-1.59 6.172-1.79c4.582-.2 6.566-1.59 6.566-1.59" opacity=".1"/><path id="path1411" d="M382.7 155.58c1.212.148 2.592.562 3.027 1.698a11.32 11.32 0 01.281 1.314c.45 1.738 2.408 2.556 3.615 3.876 1.064 1.176 1.534 2.76 1.882 4.31a40.482 40.482 0 01.7 13.525c-.388 3.298-1.186 6.55-1.406 9.863-.22 3.314.184 6.806 1.994 9.593.783 1.197 1.81 2.25 2.363 3.58-1.14.925-2.715 1.058-4.188 1.109q-2.557.087-5.139 0a5.456 5.456 0 01-2.608-.547 4.02 4.02 0 01-1.37-1.468c-.982-1.662-1.227-3.66-1.186-5.589.04-1.927.347-3.845.383-5.778a5.021 5.021 0 00-.67-3.027 9.751 9.751 0 00-1.667-1.534c-2.132-1.892-2.863-4.919-2.935-7.767-.071-2.848.4-5.696.159-8.534-.092-1.11-.512-2.444-1.6-2.659a5.819 5.819 0 01-1.023-.133c-.875-.337-.788-1.57-1.023-2.475-.281-1.022-1.15-1.805-1.396-2.827-.573-2.409 2.495-5.287 4.505-6.136 2.01-.85 5.149-.66 7.302-.394z" opacity=".1"/><path id="path1413" d="M382.9 155.181c1.211.148 2.592.563 3.026 1.703a11.014 11.014 0 01.281 1.309c.45 1.738 2.409 2.557 3.616 3.876 1.063 1.176 1.534 2.761 1.881 4.31a40.482 40.482 0 01.696 13.54c-.384 3.298-1.182 6.55-1.401 9.87-.22 3.318.184 6.8 1.994 9.587.782 1.201 1.81 2.25 2.362 3.579-1.14.93-2.715 1.058-4.188 1.11q-2.556.081-5.139 0a5.45 5.45 0 01-2.607-.543 4.034 4.034 0 01-1.37-1.472c-.982-1.662-1.228-3.661-1.187-5.59.04-1.927.348-3.844.384-5.772 0-1.053-.062-2.168-.67-3.027a9.577 9.577 0 00-1.667-1.534c-2.133-1.892-2.864-4.92-2.935-7.767-.072-2.848.399-5.696.158-8.534-.092-1.11-.511-2.444-1.6-2.66a5.819 5.819 0 01-1.023-.132c-.874-.338-.787-1.57-1.023-2.475-.28-1.023-1.15-1.8-1.396-2.828-.572-2.408 2.496-5.287 4.505-6.136 2.01-.848 5.165-.68 7.302-.414z" fill="#464353"/></g></svg>