<?xml version="1.0" encoding="UTF-8" standalone="no"?>
<svg
   data-name="Layer 1"
   width="1019.4842"
   height="436.68123"
   viewBox="0 0 1019.4842 436.68123"
   version="1.1"
   id="svg431"
   sodipodi:docname="youtube.svg"
   inkscape:version="1.2.1 (9c6d41e4, 2022-07-14)"
   xmlns:inkscape="http://www.inkscape.org/namespaces/inkscape"
   xmlns:sodipodi="http://sodipodi.sourceforge.net/DTD/sodipodi-0.dtd"
   xmlns="http://www.w3.org/2000/svg"
   xmlns:svg="http://www.w3.org/2000/svg">
  <defs
     id="defs435" />
  <sodipodi:namedview
     id="namedview433"
     pagecolor="#ffffff"
     bordercolor="#666666"
     borderopacity="1.0"
     inkscape:showpageshadow="2"
     inkscape:pageopacity="0.0"
     inkscape:pagecheckerboard="0"
     inkscape:deskcolor="#d1d1d1"
     showgrid="false"
     inkscape:zoom="0.54043997"
     inkscape:cx="528.27328"
     inkscape:cy="242.3951"
     inkscape:window-width="1553"
     inkscape:window-height="1226"
     inkscape:window-x="0"
     inkscape:window-y="25"
     inkscape:window-maximized="0"
     inkscape:current-layer="svg431" />
  <path
     d="M314.02808,475.27364a9.75072,9.75072,0,1,0-19.40734,1.28194l-28.01439,36.68607a13.58254,13.58254,0,0,0,1.83575,14.91417l2.19759,2.56354,10.083-2.01667,11.42794-10.08331L290.806,507.19164l14.1167-22.18324-.01825-.01592A9.74283,9.74283,0,0,0,314.02808,475.27364Z"
     transform="translate(-90.2579 -231.65939)"
     fill="#ffb9b9"
     id="path365" />
  <polygon
     points="30.041 422.968 25.468 405.984 88.8 380.265 95.549 405.331 30.041 422.968"
     fill="#ffb8b8"
     id="polygon367" />
  <path
     d="M105.002,663.39128,90.2579,608.62916l.69264-.18651a22.07516,22.07516,0,0,1,27.054,15.57522l.00037.00135L127.01,657.46609Z"
     transform="translate(-90.2579 -231.65939)"
     fill="#2f2e41"
     id="path369" />
  <polygon
     points="117.278 420.254 103.054 409.91 136.185 350.121 157.179 365.388 117.278 420.254"
     fill="#ffb8b8"
     id="polygon371" />
  <path
     d="M201.1368,668.34061,155.27068,634.9853l.42187-.58015a22.07517,22.07517,0,0,1,30.8348-4.87041l.00114.00082L214.54188,649.908Z"
     transform="translate(-90.2579 -231.65939)"
     fill="#2f2e41"
     id="path373" />
  <path
     d="M328.45025,568.36357l-35.795-34.77263a18.07626,18.07626,0,0,0-23.66833-1.3221L201.4006,607.3525l6.05018,9.41084L271.98356,573.069l43.69437,57.13867,41.67764-20.83841Z"
     transform="translate(-90.2579 -231.65939)"
     fill="#2f2e41"
     id="path375" />
  <path
     d="M312.98939,575.75807l-26.21673-2.01667-18.986-4.60272a9.75256,9.75256,0,1,0-1.85,12.65572l-.00277.01364,11.42793,4.70553,49.07181,16.80551,6.05-4.70553Z"
     transform="translate(-90.2579 -231.65939)"
     fill="#ffb9b9"
     id="path377" />
  <polygon
     points="285.92 416.699 271.131 426.11 253.653 426.11 172.315 395.86 53.332 417.371 49.971 391.826 158.871 344.099 254.326 375.693 285.92 416.699"
     fill="#2f2e41"
     id="polygon379" />
  <circle
     cx="254.32577"
     cy="227.13245"
     r="26.21658"
     fill="#ffb9b9"
     id="circle381" />
  <path
     d="M412.41738,563.46316a150.631,150.631,0,0,1-7.3877,46.59159l-1.96286,6.03657-9.4111,43.0221-10.08328,2.68886-7.39442-9.41107-14.78884-10.7555L350.63366,624.158,341.41082,608.791l-2.87712-4.79967-10.08331-50.41649-38.31653-21.511-12.77217-2.01667,2.68889-7.39442,11.42774-15.46106L302.906,505.8472l3.36111-2.68888,2.68888,1.34443,14.82257,5.71013,48.05688-20.304,7.03142,1.14951L403.06674,511.225A150.49912,150.49912,0,0,1,412.41738,563.46316Z"
     transform="translate(-90.2579 -231.65939)"
     fill="#ccc"
     id="path383" />
  <polygon
     points="314.825 325.949 289.281 342.754 251.153 377.131 248.276 372.332 240.209 331.999 242.226 331.999 263.065 293.683 314.825 325.949"
     opacity="0.1"
     style="isolation:isolate"
     id="polygon385" />
  <polygon
     points="263.065 289.649 242.226 327.965 230.126 341.41 219.371 344.099 248.276 375.693 289.281 338.721 314.825 321.915 263.065 289.649"
     fill="#ccc"
     id="polygon387" />
  <path
     d="M324.19252,439.29866l-2.8405,1.09286a3.96532,3.96532,0,0,1-1.06033-5.50666q.02295-.03393.04661-.06735l-5.24917-.24564a39.63744,39.63744,0,0,1,59.17341-4.76951c.239-.8231,2.84419.7783,3.90783,2.40209.35739-1.33937,2.8001,5.13521,3.66407,9.71188.4-1.52384,1.93791.9362.59056,3.2967.8537-.12472,1.23931,2.05947.57843,3.27633.934-.43878.77654,2.16855-.23609,3.911,1.3327-.11841-.1137,27.33122-20.1137,25.33122-1.39236-6.39749-1-6-2.63957-14.22639-.76312-.81-1.59882-1.54779-2.43315-2.28425l-4.51259-3.9833c-5.2473-4.63182-10.02063-10.34844-17.01093-12.07955-4.80393-1.18968-7.84143-1.45827-5.22344-6.87151-2.36532.98706-4.57411,2.45493-6.96063,3.37169C323.90539,440.90187,324.23894,440.05545,324.19252,439.29866Z"
     transform="translate(-90.2579 -231.65939)"
     fill="#2f2e41"
     id="path389" />
  <circle
     cx="267.43406"
     cy="230.15744"
     r="4.70554"
     fill="#ffb9b9"
     id="circle391" />
  <rect
     x="137.51364"
     y="351.37595"
     width="21.61009"
     height="21.61009"
     transform="translate(-313.1754 254.44578) rotate(-86.18992)"
     fill="#e6e6e6"
     style="isolation:isolate"
     id="rect393" />
  <path
     d="M124.34354,362.13134l26.18282,1.74368-1.74369,26.18282-26.18282-1.74368Zm24.96862,2.80626-23.90605-1.59206-1.59206,23.906,23.90605,1.59206Z"
     transform="translate(-90.2579 -231.65939)"
     fill="#ccc"
     id="path395" />
  <rect
     x="241.00867"
     y="288.77184"
     width="21.61009"
     height="21.61009"
     transform="translate(-147.57238 -172.07462) rotate(-12.12675)"
     fill="#e6e6e6"
     style="isolation:isolate"
     id="rect397" />
  <path
     d="M245.27842,276.50957l5.51255,25.65526-25.65526,5.51254-5.51254-25.65526Zm4.15743,24.7795-5.0332-23.42436-23.42437,5.03319,5.03319,23.42438Z"
     transform="translate(-90.2579 -231.65939)"
     fill="#ccc"
     id="path399" />
  <rect
     x="226.60299"
     y="392.67408"
     width="21.61008"
     height="21.61009"
     transform="translate(-301.94557 39.64172) rotate(-43.12712)"
     fill="#e6e6e6"
     style="isolation:isolate"
     id="rect401" />
  <path
     d="M253.81456,385.99664,234.663,403.93538l-17.93873-19.15156,19.15156-17.93872Zm-19.09885,16.3261,17.48621-16.37883-16.37884-17.48618-17.48621,16.37884Z"
     transform="translate(-90.2579 -231.65939)"
     fill="#ccc"
     id="path403" />
  <path
     d="M1053.535,231.65939H414.15223a17.59849,17.59849,0,0,0-17.59851,17.59849v356.2522a17.59854,17.59854,0,0,0,17.59851,17.59857H1053.535a17.59856,17.59856,0,0,0,17.59851-17.59857V249.25788a17.59852,17.59852,0,0,0-17.59851-17.59849Z"
     transform="translate(-90.2579 -231.65939)"
     fill="#3f3d56"
     id="path405" />
  <rect
     x="329.89003"
     y="31.10145"
     width="627.39127"
     height="353.91303"
     fill="#fff"
     id="rect407" />
  <circle
     cx="643.04942"
     cy="15.01449"
     r="6.43477"
     fill="#fff"
     id="circle409" />
  <path
     d="M1088.74918,610.23908h-61.22937v-4.41156a.87466.87466,0,0,0-.87463-.87469h-20.993a.87468.87468,0,0,0-.87476.87463v4.41162H991.657v-4.41156a.87468.87468,0,0,0-.8747-.87469H969.7894a.87467.87467,0,0,0-.87469.87469h0v4.41156H955.79416v-4.41156a.87467.87467,0,0,0-.87469-.87469h-20.993a.87468.87468,0,0,0-.8747.87469h0v4.41156H919.93125v-4.41156a.87468.87468,0,0,0-.8747-.87469H898.06363a.87466.87466,0,0,0-.87469.87463v4.41162H884.0684v-4.41156a.87468.87468,0,0,0-.8747-.87469H862.20078a.87467.87467,0,0,0-.87469.87469h0v4.41156H848.20548v-4.41156a.87467.87467,0,0,0-.87469-.87469H826.33787a.87468.87468,0,0,0-.8747.87469h0v4.41156H812.34263v-4.41156a.87468.87468,0,0,0-.8747-.87469H647.02347a.87467.87467,0,0,0-.87469.87469h0v4.41156H633.02817v-4.41156a.87467.87467,0,0,0-.87469-.87469H611.16062a.87468.87468,0,0,0-.8747.87469h0v4.41156h-13.1206v-4.41156a.87466.87466,0,0,0-.87463-.87469h-20.993a.87467.87467,0,0,0-.87469.87469h0v4.41156H561.3024v-4.41156a.87467.87467,0,0,0-.87469-.87469H539.43479a.87468.87468,0,0,0-.8747.87469h0v4.41156H525.43955v-4.41156a.87467.87467,0,0,0-.87469-.87469H503.57194a.87468.87468,0,0,0-.8747.87469h0v4.41156h-13.1206v-4.41156a.87468.87468,0,0,0-.8747-.87469H467.709a.87468.87468,0,0,0-.87469.87463v4.41162H453.71375v-4.41156a.87467.87467,0,0,0-.87466-.87469H431.84617a.8747.8747,0,0,0-.8747.87469h0v4.41156H390.735A20.99292,20.99292,0,0,0,369.74213,631.232v9.4925A20.99291,20.99291,0,0,0,390.735,661.71736h698.01416a20.99293,20.99293,0,0,0,20.99292-20.99286V631.232A20.9929,20.9929,0,0,0,1088.74918,610.23908Z"
     transform="translate(-90.2579 -231.65939)"
     fill="#3f3d56"
     id="path429" />
  <g
     id="g583"
     transform="translate(-4.0348507,6.8009236)">
    <path
       d="m 807.05201,266.43225 c -5.0293,32.42388 -17.4412,43.05734 -50.30211,46.04639 -36.30101,3.30456 -72.72125,2.27159 -109.38915,4.30247 -39.92804,-2.47491 -80.3918,-0.0141 -120.47714,-6.06691 -19.95818,-3.01243 -32.41052,-13.58513 -36.57697,-33.48256 -7.66313,-36.58379 -6.77246,-73.68407 -5.24529,-110.73759 0.42305,-10.21981 1.48309,-20.47234 3.09258,-30.57062 5.23337,-32.81183 17.1594,-43.774821 49.86839,-46.422671 67.40826,-5.45228 134.89148,-4.01267 202.36136,-1.73875 10.50725,0.35523 21.0262,2.13604 31.40728,4.00566 17.23556,3.10357 28.49767,13.449581 32.79084,30.411721 4.98253,19.66606 5.61817,39.90236 6.2422,60.06387 0.86696,28.14713 0.55388,56.29659 -3.77199,84.18899"
       style="fill:#fe0101;fill-opacity:1;fill-rule:nonzero;stroke:none;stroke-width:0.0233702"
       id="path226"
       inkscape:export-filename="youtube.png"
       inkscape:export-xdpi="74.575005"
       inkscape:export-ydpi="74.575005" />
    <path
       d="m 614.14647,250.15954 c 0,-33.41945 0,-65.01369 0,-98.39809 28.98566,16.46667 57.03325,32.40051 86.51717,49.14997 -29.26895,16.66065 -57.12015,32.51502 -86.51717,49.24812"
       style="fill:#fefafa;fill-opacity:1;fill-rule:nonzero;stroke:none;stroke-width:0.0233702"
       id="path228" />
  </g>
</svg>
