<?xml version="1.0" encoding="UTF-8" standalone="no"?>
<svg
   id="Layer_1"
   data-name="Layer 1"
   viewBox="0 0 2100.0001 1999.9999"
   version="1.1"
   sodipodi:docname="cintra.svg"
   width="2100"
   height="2000"
   inkscape:version="1.2.1 (9c6d41e4, 2022-07-14)"
   xmlns:inkscape="http://www.inkscape.org/namespaces/inkscape"
   xmlns:sodipodi="http://sodipodi.sourceforge.net/DTD/sodipodi-0.dtd"
   xmlns="http://www.w3.org/2000/svg"
   xmlns:svg="http://www.w3.org/2000/svg">
  <sodipodi:namedview
     id="namedview147"
     pagecolor="#ffffff"
     bordercolor="#666666"
     borderopacity="1.0"
     inkscape:showpageshadow="2"
     inkscape:pageopacity="0.0"
     inkscape:pagecheckerboard="0"
     inkscape:deskcolor="#d1d1d1"
     showgrid="false"
     inkscape:zoom="0.14141898"
     inkscape:cx="3397.7052"
     inkscape:cy="887.43392"
     inkscape:window-width="2338"
     inkscape:window-height="1171"
     inkscape:window-x="0"
     inkscape:window-y="25"
     inkscape:window-maximized="0"
     inkscape:current-layer="Layer_1" />
  <defs
     id="defs134">
    <style
       id="style132">
      .cls-1 {
        fill: #f89821;
      }

      .cls-2 {
        fill: #fff;
      }
    </style>
  </defs>
  <g
     id="g482"
     transform="translate(-48.133535,172.94353)">
    <g
       id="Group_16"
       data-name="Group 16">
      <path
         id="Path_11"
         data-name="Path 11"
         class="cls-1"
         d="m 973.14,1028.26 -5.42,-3.37 C 580.15,783.79 296.24,507.9 363.07,422.31 c 40.29,-51.59 169.84,-21.52 307.44,24.01 18.16,7.02 35.57,15.8 51.99,26.24 37.93,23.6 62.73,48.6 56.32,56.81 -2.74,3.51 -11.38,4.24 -24.04,-0.15 C 630.31,487.5 518.89,460 487.31,500.45 c -53.1,68 168.6,284.3 499.28,490.01 l 5.42,3.37 c 333.38,207.38 641.56,318.08 695.11,249.49 30.21,-38.68 -32.26,-123.71 -124.62,-216.87 -9.02,-9.1 -17.57,-18.76 -14.34,-22.87 5.49,-7.03 43.5,6.16 76.04,26.39 13.6,8.27 26.29,17.93 37.91,28.81 117.6,117.57 188.16,212.86 148.33,263.86 -67.32,86.18 -449.71,-53.28 -837.3,-294.38 z" />
    </g>
    <g
       id="Group_17"
       data-name="Group 17">
      <path
         id="Path_12"
         data-name="Path 12"
         class="cls-1"
         d="m 981.96,588.05 6.65,-3.26 c 476.06,-231.97 936.72,-347.01 998.01,-236.69 36.93,66.49 -65.22,171.95 -189.06,276.46 -17.76,13.41 -36.87,24.96 -56.98,34.49 -46.61,22.71 -87.85,32.24 -93.73,21.67 -2.51,-4.53 1.2,-13.06 12.84,-22.59 112.63,-94.24 202.34,-184.03 173.38,-236.18 -48.7,-87.63 -409.4,1.72 -815.53,199.62 l -6.66,3.24 c -409.48,199.53 -696.69,428.77 -647.57,517.17 27.7,49.86 156.48,37.99 310.18,2.46 14.99,-3.47 30.42,-6.18 33.35,-0.89 5.04,9.07 -29.88,37.61 -69.83,57.08 -16.78,8.34 -34.35,14.98 -52.45,19.81 -194.52,45.82 -339.14,59.65 -375.65,-6.08 -61.71,-111.05 297,-394.32 773.06,-626.29 v 0 z" />
    </g>
  </g>
</svg>
