<?xml version="1.0" encoding="UTF-8" standalone="no"?>
<svg
   width="1000"
   height="1000"
   viewBox="0 0 1000 1000"
   fill="none"
   version="1.1"
   id="svg18"
   sodipodi:docname="constructive.svg"
   inkscape:version="1.4 (e7c3feb1, 2024-10-09)"
   xmlns:inkscape="http://www.inkscape.org/namespaces/inkscape"
   xmlns:sodipodi="http://sodipodi.sourceforge.net/DTD/sodipodi-0.dtd"
   xmlns="http://www.w3.org/2000/svg"
   xmlns:svg="http://www.w3.org/2000/svg">
  <defs
     id="defs18" />
  <sodipodi:namedview
     id="namedview18"
     pagecolor="#ffffff"
     bordercolor="#666666"
     borderopacity="1.0"
     inkscape:showpageshadow="2"
     inkscape:pageopacity="0.0"
     inkscape:pagecheckerboard="0"
     inkscape:deskcolor="#d1d1d1"
     inkscape:zoom="0.91290476"
     inkscape:cx="500.05216"
     inkscape:cy="500.05216"
     inkscape:window-width="1696"
     inkscape:window-height="1186"
     inkscape:window-x="0"
     inkscape:window-y="25"
     inkscape:window-maximized="0"
     inkscape:current-layer="svg18" />
  <g
     id="g18"
     transform="matrix(1.2800595,0,0,1.2800595,-140.02876,-140.02379)">
    <path
       d="m 500,597.72 112.843,65.15 v 130.3 L 500,728.02 Z"
       fill="#ffffff"
       stroke="#01a1ff"
       stroke-width="10.8584"
       stroke-linejoin="round"
       id="path1" />
    <path
       d="m 725.685,597.72 -112.843,65.15 v 130.3 l 112.843,-65.15 z"
       fill="#01a1ff"
       stroke="#01a1ff"
       stroke-width="10.8584"
       stroke-linejoin="round"
       id="path2" />
    <path
       d="m 612.843,532.572 112.844,65.15 -112.844,65.15 L 500,597.722 Z"
       fill="#ffffff"
       stroke="#01a1ff"
       stroke-width="10.8584"
       stroke-linejoin="round"
       id="path3" />
    <path
       d="m 387.161,662.869 112.843,65.15 V 858.32 L 387.161,793.169 Z"
       fill="#ffffff"
       stroke="#01a1ff"
       stroke-width="10.8584"
       stroke-linejoin="round"
       id="path4" />
    <path
       d="m 612.846,662.869 -112.843,65.15 V 858.32 l 112.843,-65.151 z"
       fill="#01a1ff"
       stroke="#01a1ff"
       stroke-width="10.8584"
       stroke-linejoin="round"
       id="path5" />
    <path
       d="m 500.004,597.719 112.843,65.15 -112.843,65.15 -112.843,-65.15 z"
       fill="#ffffff"
       stroke="#01a1ff"
       stroke-width="10.8584"
       stroke-linejoin="round"
       id="path6" />
    <path
       d="m 500,206.821 112.843,65.15 v 130.3 L 500,337.121 Z"
       fill="#ffffff"
       stroke="#01a1ff"
       stroke-width="10.8584"
       stroke-linejoin="round"
       id="path7" />
    <path
       d="m 725.685,206.821 -112.843,65.15 v 130.3 l 112.843,-65.15 z"
       fill="#01a1ff"
       stroke="#01a1ff"
       stroke-width="10.8584"
       stroke-linejoin="round"
       id="path8" />
    <path
       d="m 612.843,141.671 112.844,65.15 -112.844,65.15 L 500,206.821 Z"
       fill="#ffffff"
       stroke="#01a1ff"
       stroke-width="10.8584"
       stroke-linejoin="round"
       id="path9" />
    <path
       d="m 274.312,597.72 112.843,65.15 v 130.3 L 274.312,728.02 Z"
       fill="#ffffff"
       stroke="#01a1ff"
       stroke-width="10.8584"
       stroke-linejoin="round"
       id="path10" />
    <path
       d="m 499.997,597.72 -112.843,65.15 v 130.3 l 112.843,-65.15 z"
       fill="#01a1ff"
       stroke="#01a1ff"
       stroke-width="10.8584"
       stroke-linejoin="round"
       id="path11" />
    <path
       d="m 387.155,532.572 112.844,65.15 -112.844,65.15 -112.843,-65.15 z"
       fill="#ffffff"
       stroke="#01a1ff"
       stroke-width="10.8584"
       stroke-linejoin="round"
       id="path12" />
    <path
       d="m 387.161,271.968 112.843,65.15 v 130.3 l -112.843,-65.15 z"
       fill="#ffffff"
       stroke="#01a1ff"
       stroke-width="10.8584"
       stroke-linejoin="round"
       id="path13" />
    <path
       d="m 612.846,271.968 -112.843,65.15 v 130.3 l 112.843,-65.15 z"
       fill="#01a1ff"
       stroke="#01a1ff"
       stroke-width="10.8584"
       stroke-linejoin="round"
       id="path14" />
    <path
       d="m 500.004,206.82 112.843,65.151 -112.843,65.15 -112.843,-65.15 z"
       fill="#ffffff"
       stroke="#01a1ff"
       stroke-width="10.8584"
       stroke-linejoin="round"
       id="path15" />
    <path
       d="m 274.312,467.424 112.843,65.15 v 130.3 l -112.843,-65.15 z"
       fill="#ffffff"
       stroke="#01a1ff"
       stroke-width="10.8584"
       stroke-linejoin="round"
       id="path16" />
    <path
       d="m 499.997,467.424 -112.843,65.15 v 130.3 l 112.843,-65.15 z"
       fill="#01a1ff"
       stroke="#01a1ff"
       stroke-width="10.8584"
       stroke-linejoin="round"
       id="path17" />
    <path
       d="m 387.155,402.276 112.844,65.15 -112.844,65.15 -112.843,-65.15 z"
       fill="#ffffff"
       stroke="#01a1ff"
       stroke-width="10.8584"
       stroke-linejoin="round"
       id="path18" />
  </g>
</svg>
