<svg width="436" height="148" viewBox="0 0 436 148" fill="none" xmlns="http://www.w3.org/2000/svg">
<path d="M99.6445 2.04194C96.1563 2.04194 93.2124 3.22724 90.8939 5.56496C88.4903 7.98785 87.2718 10.9566 87.2718 14.388C87.2718 17.9219 88.5002 20.9006 90.9082 23.2264C93.3087 25.597 96.2482 26.7987 99.6445 26.7987C102.999 26.7987 105.918 25.597 108.303 23.2413C110.725 20.9011 111.953 17.9224 111.953 14.388C111.953 12.6235 111.619 10.974 110.964 9.49786C108.84 4.61972 104.926 2.04194 99.6445 2.04194Z" fill="#17171C"/>
<path d="M289.594 96.0711C280.585 96.0711 273.283 85.9568 273.283 73.4768C273.283 60.9963 280.585 50.8765 289.594 50.8765C298.598 50.8765 305.901 60.9963 305.901 73.4768C305.901 85.9568 298.598 96.0711 289.594 96.0711ZM306.891 36.633C302.989 34.6957 298.512 33.7031 293.587 33.7031C288.674 33.7031 284.213 34.6309 280.322 36.4537C277.249 37.8865 273.589 40.7407 271.065 43.302C269.978 40.54 268.288 37.8701 265.667 36.0363C256.809 29.8449 241.88 38.9986 241.88 38.9986L249.253 53.4104L251.374 52.3148C252.413 51.8426 253.597 52.6076 253.376 53.758V140.571H273.293V105.453C273.293 105.453 284.143 113.245 291.898 113.245C301.73 113.245 309.781 108.888 315.825 100.293C321.427 92.3758 324.274 82.5707 324.274 71.165C324.274 60.199 321.717 51.2888 316.675 44.6746C314.081 41.2885 310.793 38.5807 306.891 36.633Z" fill="#17171C"/>
<path d="M103.313 36.2704C94.5068 30.0845 79.6496 39.2332 79.6496 39.2332L86.9875 53.646L89.0922 52.5563C90.126 52.0782 91.3016 52.8437 91.3016 53.9956V110.449H110.596V55.2317C110.596 55.2317 111.274 41.8623 103.313 36.2704Z" fill="#17171C"/>
<path d="M34.9591 96.0715C25.9501 96.0715 18.6527 85.9571 18.6527 73.4771C18.6527 60.9966 25.9501 50.8768 34.9591 50.8768C43.9681 50.8768 51.2656 60.9966 51.2656 73.4771C51.2656 85.9571 43.9681 96.0715 34.9591 96.0715ZM73.1851 94.6282C72.1301 95.1003 70.9461 94.3403 70.9461 93.1849V6.38229H51.1149V41.5005C51.1149 41.5005 45.4855 33.7034 32.3758 33.7034C22.5439 33.7034 14.4981 38.0656 8.44885 46.661C2.84658 54.5776 0 64.3772 0 75.783C0 86.7494 2.56158 95.6646 7.59878 102.279C10.193 105.665 13.4811 108.373 17.3827 110.315C21.2844 112.263 25.7619 113.245 30.686 113.245C35.5998 113.245 40.061 112.318 43.9518 110.5C46.4437 109.338 51.1416 105.67 53.4236 103.836C54.5162 106.533 56.2005 109.121 58.7838 110.912C67.696 117.098 82.7429 107.949 82.7429 107.949L75.3111 93.5375L73.1851 94.6282Z" fill="#17171C"/>
<path d="M415.72 38.2779C413.511 56.0673 408.741 73.0638 401.808 88.888L384.984 38.2794H363.606L390.55 110.527C385.668 118.546 380.186 126.155 374.172 133.295C373.959 133.522 373.754 133.754 373.54 133.979L373.573 134.01C373.534 134.056 373.497 134.102 373.458 134.147L388.027 148C388.056 147.965 388.085 147.93 388.115 147.895L388.163 147.94C388.163 147.94 394.222 141.513 402.092 129.639C409.616 118.557 416.03 106.735 421.269 94.2488C426.189 82.5218 429.96 70.4497 432.581 58.1127C433.995 51.7773 435.162 45.1635 436 38.2794L415.72 38.2779Z" fill="#17171C"/>
<path d="M356.173 95.319C355.108 95.8076 353.902 95.0207 353.902 93.8379V21.6806C353.902 21.6806 354.935 7.94711 346.76 2.20589C337.714 -4.14791 322.451 5.24483 322.451 5.24483L329.991 20.0526L332.149 18.9295C333.215 18.441 334.42 19.2279 334.42 20.4112V92.568C334.42 92.568 333.387 106.301 341.562 112.048C350.608 118.402 365.871 109.004 365.871 109.004L358.331 94.2015L356.173 95.319Z" fill="#17171C"/>
<path d="M235.884 54.5769C235.398 50.9049 234.272 47.4825 232.518 44.3973C230.707 41.2104 227.909 38.6152 224.214 36.659C220.568 34.7411 216.73 33.756 212.826 33.756C209.041 33.756 205.843 34.121 203.278 34.8566C197.388 36.6037 192.38 39.9579 188.322 44.848C188.241 44.6981 188.165 44.5452 188.081 44.3973C186.269 41.2104 183.471 38.6152 179.777 36.659C176.13 34.7411 172.292 33.756 168.388 33.756C164.604 33.756 161.405 34.121 158.84 34.8566C153.721 36.3751 149.268 39.1077 145.527 43.0078C144.441 40.437 142.814 37.9872 140.37 36.271C131.564 30.085 116.707 39.2337 116.707 39.2337L124.045 53.6466L126.15 52.5569C127.183 52.0788 128.359 52.8443 128.359 53.9957V110.449H147.654V68.1401C148.35 64.4099 149.895 59.2593 152.334 56.4564C155.442 52.794 158.907 51.0105 162.964 51.0105C166.381 51.0105 168.779 52.0584 170.285 54.2213C171.925 56.5525 172.745 60.2962 172.745 65.3477V110.45H191.989C192.003 104.374 192.106 73.5372 192.125 67.9688C192.836 64.253 194.369 59.217 196.771 56.4564C199.879 52.794 203.345 51.0105 207.401 51.0105C210.819 51.0105 213.217 52.0584 214.723 54.2213C216.363 56.5525 217.183 60.2962 217.183 65.3477V110.45H236.427C236.441 103.765 236.565 68.8712 236.565 68.8712C236.565 68.8712 236.337 58.0855 235.884 54.5769Z" fill="#17171C"/>
</svg>
