<?xml version="1.0" encoding="UTF-8" standalone="no"?>
<svg
   xmlns:dc="http://purl.org/dc/elements/1.1/"
   xmlns:cc="http://creativecommons.org/ns#"
   xmlns:rdf="http://www.w3.org/1999/02/22-rdf-syntax-ns#"
   xmlns:svg="http://www.w3.org/2000/svg"
   xmlns="http://www.w3.org/2000/svg"
   xmlns:sodipodi="http://sodipodi.sourceforge.net/DTD/sodipodi-0.dtd"
   xmlns:inkscape="http://www.inkscape.org/namespaces/inkscape"
   width="1200"
   height="1200"
   stroke-width="0"
   shape-rendering="geometricPrecision"
   version="1.1"
   id="svg3861"
   sodipodi:docname="postgraphile-super.optimized.svg"
   inkscape:version="0.92.2 5c3e80d, 2017-08-06">
  <metadata
     id="metadata3867">
    <rdf:RDF>
      <cc:Work
         rdf:about="">
        <dc:format>image/svg+xml</dc:format>
        <dc:type
           rdf:resource="http://purl.org/dc/dcmitype/StillImage" />
      </cc:Work>
    </rdf:RDF>
  </metadata>
  <defs
     id="defs3865" />
  <sodipodi:namedview
     pagecolor="#ffffff"
     bordercolor="#666666"
     borderopacity="1"
     objecttolerance="10"
     gridtolerance="10"
     guidetolerance="10"
     inkscape:pageopacity="0"
     inkscape:pageshadow="2"
     inkscape:window-width="1353"
     inkscape:window-height="991"
     id="namedview3863"
     showgrid="false"
     inkscape:zoom="0.5"
     inkscape:cx="437.50443"
     inkscape:cy="662.77778"
     inkscape:window-x="0"
     inkscape:window-y="0"
     inkscape:window-maximized="0"
     inkscape:current-layer="layer2" />
  <!--This file is Copyright © 2018 Benjie Gillam. All rights reserved.-->
  <g
     class="ears"
     id="g3829">
    <path
       fill="#468bcc"
       d="M100 615L25 360 260 25l455 590z"
       class="seg1"
       id="path3811" />
    <path
       fill="#4ba8ff"
       d="M25 360L260 25l340 105 115 485z"
       class="seg2"
       id="path3813" />
    <path
       fill="#468bcc"
       d="M260 25l340 105L940 25 715 615z"
       class="seg1"
       id="path3815" />
    <path
       fill="#468bcc"
       d="M600 130L940 25l235 335-460 255z"
       class="seg1"
       id="path3817" />
    <path
       fill="#4ba8ff"
       d="M940 25l235 335-75 255H715z"
       class="seg2"
       id="path3819" />
    <path
       fill="#468bcc"
       d="M1175 360l-75 255-500 440 115-440z"
       class="seg1"
       id="path3821" />
    <path
       fill="#468bcc"
       d="M1100 615l-500 440-500-440h615z"
       class="seg1"
       id="path3823" />
    <path
       fill="#468bcc"
       d="M600 1055L100 615 25 360l690 255z"
       class="seg1"
       id="path3825" />
    <path
       fill="#468bcc"
       d="M100 615L25 360l690 255z"
       class="seg1"
       id="path3827" />
    <!--polygon points="25,360 260,25 260,25 600,130 600,130 940,25 940,25 1175,360 1175,360 1100,615 1100,615 600,1055 600,1055 100,615 100,615 25,360" class="heart-outline" /-->
  </g>
  <path
     style="fill:#ffffff;stroke:#082744;stroke-width:8;stroke-linejoin:round"
     inkscape:connector-curvature="0"
     id="path3831"
     class="tusk left-tusk"
     d="m 375,740 85,55 -135,105 z" />
  <path
     style="fill:#ffffff;stroke:#082744;stroke-width:8;stroke-linejoin:round"
     inkscape:connector-curvature="0"
     id="path3833"
     class="tusk right-tusk"
     d="m 825,740 -85,55 135,105 z" />
  <path
     style="fill:#4ba8ff"
     inkscape:connector-curvature="0"
     id="path3835"
     class="seg2 forehead-left"
     d="M 325,300 490,96 H 710 L 600,450 Z" />
  <path
     style="fill:#468bcc"
     inkscape:connector-curvature="0"
     id="path3837"
     class="seg1 forehead-top"
     d="M 490,96 H 710 L 875,300 600,450 Z" />
  <path
     style="fill:#166ebf"
     inkscape:connector-curvature="0"
     id="path3839"
     class="seg3 forehead-right no-stroke"
     d="M 710,96 875,300 V 725 L 600,450 Z" />
  <path
     style="fill:#0b457f"
     inkscape:connector-curvature="0"
     id="path3841"
     class="seg4 right-eye-area no-stroke"
     d="M 875,300 V 725 L 710,835 600,450 Z" />
  <path
     style="fill:#0c3861"
     inkscape:connector-curvature="0"
     id="path3843"
     class="seg5 face-bottom-right no-stroke"
     d="M 875,725 710,835 600,1130 V 450 Z" />
  <path
     style="fill:#166ebf"
     inkscape:connector-curvature="0"
     id="path3845"
     class="seg3 no-stroke trunk-highlight-right"
     d="m 710,835 v 240 L 600,1130 490,835 600,450 Z" />
  <path
     style="fill:#4ba8ff"
     inkscape:connector-curvature="0"
     id="path3847"
     class="seg2 no-stroke trunk-highlight-left"
     d="M 600,1130 490,1075 V 835 L 325,725 600,450 Z" />
  <path
     style="fill:#166ebf"
     inkscape:connector-curvature="0"
     id="path3849"
     class="seg3 face-bottom-left no-stroke"
     d="M 490,835 325,725 V 300 l 275,150 z" />
  <path
     style="fill:#468bcc"
     inkscape:connector-curvature="0"
     id="path3851"
     class="seg1 left-eye-area no-stroke"
     d="M 325,725 V 300 l 275,150 z" />
  <path
     style="fill:none;stroke:#082744;stroke-width:8;stroke-linejoin:round"
     inkscape:connector-curvature="0"
     id="path3853"
     class="entire-face stroke-only"
     d="M 490,96 H 710 L 875,300 V 725 L 710,835 v 240 l -110,55 -110,-55 V 835 L 325,725 V 300 Z" />
  <g
     inkscape:groupmode="layer"
     id="layer1"
     inkscape:label="Layer 1" />
  <g
     inkscape:groupmode="layer"
     id="layer2"
     inkscape:label="Layer 2">
    <path
       style="fill:#000000;stroke:#000000;stroke-width:1px;stroke-linecap:butt;stroke-linejoin:miter;stroke-opacity:1"
       d="M 600,450 324.6263,355.75736 323.55492,574.31764 Z"
       id="path3871"
       inkscape:connector-curvature="0"
       sodipodi:nodetypes="cccc" />
    <path
       sodipodi:nodetypes="cccc"
       inkscape:connector-curvature="0"
       id="path3913"
       d="m 600,450 275.3737,-94.24264 1.07138,218.56028 z"
       style="fill:#000000;stroke:#000000;stroke-width:1px;stroke-linecap:butt;stroke-linejoin:miter;stroke-opacity:1" />
  </g>
  <g
     inkscape:groupmode="layer"
     id="layer3"
     inkscape:label="Layer 3">
    <path
       style="fill:#ffffff"
       inkscape:connector-curvature="0"
       id="path3857"
       class="eye right-eye"
       d="m 815,415 -130,40 130,50 z" />
    <path
       style="fill:#ffffff"
       inkscape:connector-curvature="0"
       id="path3855"
       class="eye left-eye"
       d="m 385,415 130,40 -130,50 z" />
  </g>
</svg>
