<?xml version="1.0" encoding="utf-8" standalone="no" ?><!DOCTYPE svg PUBLIC "-//W3C//DTD SVG 1.1//EN" "http://www.w3.org/Graphics/SVG/1.1/DTD/svg11.dtd"><svg xmlns="http://www.w3.org/2000/svg" width="720" height="133" stroke-linecap="round" stroke-linejoin="round" stroke-width="40" shape-rendering="geometricPrecision" viewBox="-200 -100 7200 1330"><!--This file is Copyright © 2018 Benjie Gillam. All rights reserved.--><path fill="#00f" d="M-200-100h7200v1400H-200z" class="bg"/><path fill="transparent" d="M940 25l235 335-460 255z" class="red"/><path fill="transparent" stroke="#fff" d="M25 360L260 25l230 71h220l230-71 235 335-75 255-390 345v115l-110 55-110-55V960L100 615 25 360z" class="heart-outline whitestroke trans"/><path fill="transparent" stroke="#fff" d="M490 96h220l165 204v425L710 835v240l-110 55-110-55V835L325 725V300z" class="entire-face whitestroke trans"/><path fill="#fff" d="M325 300L490 96h220l165 204-275 150zM600 450v680l-110-55-15-250z" class="whitestroke whitefill sharp"/><path fill="#fff" d="M260 25l115 150-90 111v169L25 360z" class="whitestroke whitefill sharp"/><path fill="#fff" d="M940 25l235 335-260 147V287l-52-65z" class="whitefill sharp"/><path fill="#fff" stroke="#fff" stroke-linecap="butt" stroke-linejoin="miter" stroke-width="10" d="M385 415l130 40-130 50z" class="eye left-eye whitefill whitestroke"/><path fill="#fff" stroke="#fff" stroke-linecap="butt" stroke-linejoin="miter" stroke-width="10" d="M815 415l-130 40 130 50z" class="eye right-eye whitefill whitestroke"/><path fill="#fff" stroke="#fff" stroke-linecap="butt" stroke-linejoin="miter" stroke-width="10" d="M371 750l79 55-125 95z" class="tusk left-tusk whitefill whitestroke eye"/><path fill="#fff" stroke="#fff" stroke-linecap="butt" stroke-linejoin="miter" stroke-width="10" d="M835 750l-85 55 125 95z" class="tusk right-tusk whitefill whitestroke eye"/><text style="line-height:125%" x="1376" y="981" stroke-linecap="butt" stroke-linejoin="miter" stroke-width="1" font-family="sans-serif" font-size="12.5" font-weight="400" letter-spacing="0" transform="rotate(-.259)" word-spacing="0"><tspan x="1376.627" y="861.92" style="-inkscape-font-specification:'Avenir Next Bold'" fill="#fff" stroke-linecap="round" stroke-linejoin="round" stroke-width="40" font-family="Avenir Next" font-size="875" font-weight="700">PostGraphile</tspan></text></svg>