<?xml version="1.0" encoding="utf-8" standalone="no" ?><!DOCTYPE svg PUBLIC "-//W3C//DTD SVG 1.1//EN" "http://www.w3.org/Graphics/SVG/1.1/DTD/svg11.dtd"><svg xmlns="http://www.w3.org/2000/svg" width="1200" height="1200" stroke-linecap="round" stroke-linejoin="round" stroke-width="40" shape-rendering="geometricPrecision"><!--This file is Copyright © 2018 Benjie Gillam. All rights reserved.--><path fill="transparent" d="M0 0h1200v1200H0z" class="bg"/><path fill="transparent" d="M940 25l235 335-460 255z" class="red"/><path fill="transparent" stroke="#fff" d="M25 360L260 25l230 71h220l230-71 235 335-75 255-390 345v115l-110 55-110-55V960L100 615 25 360z" class="heart-outline whitestroke trans"/><path fill="transparent" stroke="#fff" d="M490 96h220l165 204v425L710 835v240l-110 55-110-55V835L325 725V300z" class="entire-face whitestroke trans"/><path fill="#fff" d="M325 300L490 96h220l165 204-275 150zM600 450v680l-110-55-15-250z" class="whitestroke whitefill sharp"/><!--<polygon points="600,450 875,725 695,845" class="whitestroke whitefill sharp" />--><!--<polygon points="325,710 330,735 600,450" class="whitestroke whitefill sharp" />--><path fill="#fff" d="M260 25l115 150-90 111v169L25 360z" class="whitestroke whitefill sharp"/><path fill="#fff" d="M940 25l235 335-260 147V287l-52-65z" class="whitefill sharp"/><path fill="#fff" stroke="#fff" stroke-linecap="butt" stroke-linejoin="miter" stroke-width="10" d="M385 415l130 40-130 50z" class="eye left-eye whitefill whitestroke"/><path fill="#fff" stroke="#fff" stroke-linecap="butt" stroke-linejoin="miter" stroke-width="10" d="M815 415l-130 40 130 50z" class="eye right-eye whitefill whitestroke"/><path fill="#fff" stroke="#fff" stroke-linecap="butt" stroke-linejoin="miter" stroke-width="10" d="M371 750l79 55-125 95z" class="tusk left-tusk whitefill whitestroke eye"/><path fill="#fff" stroke="#fff" stroke-linecap="butt" stroke-linejoin="miter" stroke-width="10" d="M835 750l-85 55 125 95z" class="tusk right-tusk whitefill whitestroke eye"/><!--<polygon points="200,615 225,360 260,25 715,615" class="seg" /> <polygon points="25,360 260,25 600,130 715,615" class="seg" /> <polygon points="260,25 600,130 940,25 715,615" class="seg" /> <polygon points="600,130 940,25 1175,360 715,615" class="seg" /> <polygon points="940,25 1175,360 1100,615 715,615" class="seg" /> <polygon points="1175,360 1100,615 600,1055 715,615" class="seg" /> <polygon points="1100,615 600,1055 100,615 715,615" class="seg" /> <polygon points="600,1055 100,615 25,360 715,615" class="seg" /> <polygon points="100,615 25,360 715,615" class="seg" />--><!--polygon points="25,360 260,25 260,25 600,130 600,130 940,25 940,25 1175,360 1175,360 1100,615 1100,615 600,1055 600,1055 100,615 100,615 25,360" class="heart-outline" /--><!--<g class='face'> <polygon points="375,740 460,795 325,900" class="tusk left-tusk" /> <polygon points="825,740 740,795 875,900" class="tusk right-tusk" /> <polygon points="325,300 490,96 710,96 600,450" class="seg forehead-left" /> <polygon points="490,96 710,96 875,300 600,450" class="seg forehead-top" /> <polygon points="710,96 875,300 875,725 600,450" class="seg3 forehead-right no-stroke" /> <polygon points="875,300 875,725 710,835 600,450" class="seg4 right-eye-area no-stroke" /> <polygon points="875,725 710,835 600,1130 600,450" class="seg5 face-bottom-right no-stroke" /> <polygon points="710,835 710,1075 600,1130 490,835 600,450" class="seg3 no-stroke trunk-highlight-right" /> <polygon points="600,1130 490,1075 490,835 325,725 600,450" class="seg no-stroke trunk-highlight-left" /> <polygon points="490,835 325,725 325,300 600,450" class="seg3 face-bottom-left no-stroke" /> <polygon points="325,725 325,300 600,450" class="seg left-eye-area no-stroke" /> <polygon points="490,96 710,96 875,300 875,725 710,835 710,1075 600,1130 490,1075 490,835 325,725 325,300" class="entire-face stroke-only" /> <polygon points="385,415 515,455 385,505" class="eye left-eye" /> <polygon points="815,415 685,455 815,505" class="eye right-eye" /> </g>--></svg>