<?xml version="1.0" encoding="UTF-8" standalone="no"?>
<svg
   xmlns:dc="http://purl.org/dc/elements/1.1/"
   xmlns:cc="http://creativecommons.org/ns#"
   xmlns:rdf="http://www.w3.org/1999/02/22-rdf-syntax-ns#"
   xmlns:svg="http://www.w3.org/2000/svg"
   xmlns="http://www.w3.org/2000/svg"
   xmlns:sodipodi="http://sodipodi.sourceforge.net/DTD/sodipodi-0.dtd"
   xmlns:inkscape="http://www.inkscape.org/namespaces/inkscape"
   width="1200"
   height="1350"
   id="svg2"
   version="1.1"
   inkscape:version="0.91 r13725"
   sodipodi:docname="postgraphile.named.svg"
   style="stroke-width:0;shape-rendering:geometricPrecision">
  <metadata
     id="metadata58">
    <rdf:RDF>
      <cc:Work
         rdf:about="">
        <dc:format>image/svg+xml</dc:format>
        <dc:type
           rdf:resource="http://purl.org/dc/dcmitype/StillImage" />
        <dc:title></dc:title>
      </cc:Work>
    </rdf:RDF>
  </metadata>
  <defs
     id="defs56" />
  <sodipodi:namedview
     pagecolor="#ffffff"
     bordercolor="#666666"
     borderopacity="1"
     objecttolerance="10"
     gridtolerance="10"
     guidetolerance="10"
     inkscape:pageopacity="0"
     inkscape:pageshadow="2"
     inkscape:window-width="1302"
     inkscape:window-height="774"
     id="namedview54"
     showgrid="false"
     inkscape:zoom="0.39333333"
     inkscape:cx="672.82018"
     inkscape:cy="666.21855"
     inkscape:window-x="0"
     inkscape:window-y="0"
     inkscape:window-maximized="0"
     inkscape:current-layer="svg2"
     units="px" />
  <!--This file is Copyright © 2018 Benjie Gillam. All rights reserved.-->
  <g
     class="ears"
     id="g4"
     transform="translate(0,10.522723)">
    <path
       d="M 100,615 25,360 260,25 715,615 Z"
       class="seg1"
       id="path6"
       inkscape:connector-curvature="0"
       style="fill:#468bcc" />
    <path
       d="M 25,360 260,25 600,130 715,615 Z"
       class="seg2"
       id="path8"
       inkscape:connector-curvature="0"
       style="fill:#4ba8ff" />
    <path
       d="M 260,25 600,130 940,25 715,615 Z"
       class="seg1"
       id="path10"
       inkscape:connector-curvature="0"
       style="fill:#468bcc" />
    <path
       d="M 600,130 940,25 1175,360 715,615 Z"
       class="seg1"
       id="path12"
       inkscape:connector-curvature="0"
       style="fill:#468bcc" />
    <path
       d="m 940,25 235,335 -75,255 -385,0 z"
       class="seg2"
       id="path14"
       inkscape:connector-curvature="0"
       style="fill:#4ba8ff" />
    <path
       d="M 1175,360 1100,615 600,1055 715,615 Z"
       class="seg1"
       id="path16"
       inkscape:connector-curvature="0"
       style="fill:#468bcc" />
    <path
       d="M 1100,615 600,1055 100,615 715,615 Z"
       class="seg1"
       id="path18"
       inkscape:connector-curvature="0"
       style="fill:#468bcc" />
    <path
       d="M 600,1055 100,615 25,360 715,615 Z"
       class="seg1"
       id="path20"
       inkscape:connector-curvature="0"
       style="fill:#468bcc" />
    <path
       d="M 100,615 25,360 715,615 Z"
       class="seg1"
       id="path22"
       inkscape:connector-curvature="0"
       style="fill:#468bcc" />
    <!--polygon points="25,360 260,25 260,25 600,130 600,130 940,25 940,25 1175,360 1175,360 1100,615 1100,615 600,1055 600,1055 100,615 100,615 25,360" class="heart-outline" /-->
  </g>
  <g
     class="face"
     id="g24"
     transform="translate(0,10.522723)">
    <path
       d="m 375,740 85,55 -135,105 z"
       class="tusk left-tusk"
       id="path26"
       inkscape:connector-curvature="0"
       style="fill:#ffffff;stroke:#082744;stroke-width:8;stroke-linejoin:round" />
    <path
       d="m 825,740 -85,55 135,105 z"
       class="tusk right-tusk"
       id="path28"
       inkscape:connector-curvature="0"
       style="fill:#ffffff;stroke:#082744;stroke-width:8;stroke-linejoin:round" />
    <path
       d="M 325,300 490,96 710,96 600,450 Z"
       class="seg2 forehead-left"
       id="path30"
       inkscape:connector-curvature="0"
       style="fill:#4ba8ff" />
    <path
       d="M 490,96 710,96 875,300 600,450 Z"
       class="seg1 forehead-top"
       id="path32"
       inkscape:connector-curvature="0"
       style="fill:#468bcc" />
    <path
       d="M 710,96 875,300 875,725 600,450 Z"
       class="seg3 forehead-right no-stroke"
       id="path34"
       inkscape:connector-curvature="0"
       style="fill:#166ebf" />
    <path
       d="M 875,300 875,725 710,835 600,450 Z"
       class="seg4 right-eye-area no-stroke"
       id="path36"
       inkscape:connector-curvature="0"
       style="fill:#0b457f" />
    <path
       d="M 875,725 710,835 600,1130 600,450 Z"
       class="seg5 face-bottom-right no-stroke"
       id="path38"
       inkscape:connector-curvature="0"
       style="fill:#0c3861" />
    <path
       d="m 710,835 0,240 -110,55 L 490,835 600,450 Z"
       class="seg3 no-stroke trunk-highlight-right"
       id="path40"
       inkscape:connector-curvature="0"
       style="fill:#166ebf" />
    <path
       d="M 600,1130 490,1075 490,835 325,725 600,450 Z"
       class="seg2 no-stroke trunk-highlight-left"
       id="path42"
       inkscape:connector-curvature="0"
       style="fill:#4ba8ff" />
    <path
       d="M 490,835 325,725 325,300 600,450 Z"
       class="seg3 face-bottom-left no-stroke"
       id="path44"
       inkscape:connector-curvature="0"
       style="fill:#166ebf" />
    <path
       d="m 325,725 0,-425 275,150 z"
       class="seg1 left-eye-area no-stroke"
       id="path46"
       inkscape:connector-curvature="0"
       style="fill:#468bcc" />
    <path
       d="m 490,96 220,0 165,204 0,425 -165,110 0,240 -110,55 -110,-55 0,-240 -165,-110 0,-425 z"
       class="entire-face stroke-only"
       id="path48"
       inkscape:connector-curvature="0"
       style="fill:none;stroke:#082744;stroke-width:8;stroke-linejoin:round" />
    <path
       d="m 385,415 130,40 -130,50 z"
       class="eye left-eye"
       id="path50"
       inkscape:connector-curvature="0"
       style="fill:#ffffff" />
    <path
       d="m 815,415 -130,40 130,50 z"
       class="eye right-eye"
       id="path52"
       inkscape:connector-curvature="0"
       style="fill:#ffffff" />
  </g>
  <text
     xml:space="preserve"
     style="font-style:normal;font-weight:normal;font-size:12.5px;line-height:125%;font-family:sans-serif;letter-spacing:0px;word-spacing:0px;fill:#000000;fill-opacity:1;stroke:none;stroke-width:1px;stroke-linecap:butt;stroke-linejoin:miter;stroke-opacity:1"
     x="29.751719"
     y="1280.1362"
     id="text4186"
     sodipodi:linespacing="125%"
     transform="matrix(0.99998979,-0.00451921,0.00451921,0.99998979,0,0)"><tspan
       sodipodi:role="line"
       id="tspan4188"
       x="29.751719"
       y="1280.1362"
       style="font-style:normal;font-variant:normal;font-weight:bold;font-stretch:normal;font-size:180px;font-family:'Avenir Next';-inkscape-font-specification:'Avenir Next Bold';fill:white;fill-opacity:1">PostGraphile</tspan></text>
</svg>
