<?xml version="1.0" standalone="no"?>
<!DOCTYPE svg PUBLIC "-//W3C//DTD SVG 20010904//EN"
 "http://www.w3.org/TR/2001/REC-SVG-20010904/DTD/svg10.dtd">
<svg version="1.0" xmlns="http://www.w3.org/2000/svg"
 width="1200.000000pt" height="1200.000000pt" viewBox="0 0 1200.000000 1200.000000"
 preserveAspectRatio="xMidYMid meet">
<metadata>
Created by potrace 1.11, written by Peter Selinger 2001-2013
</metadata>
<g transform="translate(0.000000,1200.000000) scale(0.100000,-0.100000)"
fill="#000000" stroke="none">
<path d="M2571 11817 c-13 -6 -38 -32 -55 -57 -17 -25 -63 -90 -102 -145 -39
-55 -87 -122 -106 -150 -41 -59 -413 -590 -747 -1065 -421 -600 -601 -857
-775 -1105 -77 -110 -155 -222 -175 -250 -285 -406 -428 -613 -434 -627 -3
-10 41 -176 103 -385 106 -359 232 -789 330 -1123 27 -91 71 -241 99 -335 92
-313 99 -339 161 -550 68 -235 50 -205 211 -346 156 -137 345 -304 355 -313 6
-6 37 -33 69 -61 32 -27 63 -55 69 -60 6 -6 101 -89 211 -185 109 -96 207
-182 215 -190 9 -8 47 -42 85 -75 37 -33 73 -64 79 -70 6 -5 45 -39 86 -75 41
-36 77 -67 80 -70 3 -3 41 -36 85 -75 44 -38 87 -76 96 -85 9 -8 31 -28 50
-44 69 -60 185 -161 200 -176 9 -8 45 -40 80 -70 35 -30 84 -73 109 -96 25
-22 58 -52 74 -65 15 -13 47 -41 70 -62 22 -20 62 -54 88 -75 26 -20 47 -44
48 -53 0 -8 -66 -195 -146 -415 -80 -219 -147 -403 -148 -409 -2 -5 -7 -21
-13 -35 -5 -14 -20 -54 -32 -90 -13 -36 -27 -74 -32 -85 -29 -64 -86 -248 -82
-265 8 -29 38 -51 71 -52 23 -1 67 28 213 143 229 178 330 257 349 272 8 7 87
68 175 137 88 68 162 127 165 130 3 3 33 28 67 54 56 43 65 47 80 35 10 -8 61
-52 113 -98 154 -137 162 -143 240 -211 41 -36 80 -69 86 -75 22 -19 80 -71
153 -135 41 -36 88 -78 105 -93 17 -15 59 -51 93 -80 l62 -52 1 -620 0 -620
23 -40 c22 -38 46 -52 607 -333 557 -279 587 -293 630 -288 33 3 197 81 608
287 310 155 575 293 589 306 13 14 29 36 34 50 5 14 9 283 9 638 0 498 3 616
13 627 8 7 42 38 77 68 35 30 71 62 80 70 14 13 108 95 195 171 16 14 55 48
85 75 31 27 89 78 130 114 41 36 99 88 130 115 126 113 153 136 161 133 4 -2
168 -129 364 -283 196 -154 369 -289 384 -300 15 -11 78 -60 139 -108 116 -91
152 -106 188 -76 34 28 34 54 0 151 -18 51 -36 100 -40 108 -3 8 -31 85 -61
170 -31 85 -64 178 -75 205 -18 47 -83 227 -187 515 -76 210 -73 187 -27 229
40 36 151 134 228 201 45 39 111 97 136 120 9 8 50 44 91 80 41 36 79 69 85
75 12 11 116 102 154 135 14 12 52 45 85 74 33 29 105 93 160 141 55 48 132
116 170 150 39 34 133 117 210 185 77 67 154 135 170 149 26 23 132 116 229
201 15 14 38 34 50 45 12 11 56 49 96 85 41 36 97 85 125 110 28 25 82 72 120
105 143 125 153 135 163 173 11 40 29 102 122 417 170 573 253 855 265 900 8
28 29 102 48 165 19 63 64 216 100 340 36 124 100 339 141 479 75 252 75 254
58 286 -9 18 -81 125 -160 237 -109 154 -579 824 -652 928 -6 8 -67 96 -137
195 -427 608 -966 1377 -1079 1540 -73 105 -137 195 -141 200 -5 6 -49 68 -98
139 -50 70 -102 134 -116 142 -24 12 -38 9 -140 -22 -149 -46 -358 -111 -434
-134 -57 -17 -336 -103 -615 -190 -69 -21 -179 -55 -245 -75 -66 -21 -160 -50
-210 -66 -141 -44 -270 -82 -273 -80 -1 1 -16 -6 -32 -14 -17 -9 -30 -13 -30
-10 0 3 -17 -2 -37 -10 -21 -7 -78 -26 -126 -40 -86 -26 -89 -26 -109 -8 -19
17 -70 18 -1160 21 -1103 2 -1141 2 -1183 -17 l-43 -19 -339 104 c-186 58
-387 120 -448 139 -155 48 -388 120 -535 165 -69 21 -287 89 -485 150 -198 61
-367 113 -375 115 -8 3 -26 -1 -39 -8z"/>
</g>
</svg>
