<?xml version="1.0" encoding="UTF-8" standalone="no"?>
<svg
   xmlns:dc="http://purl.org/dc/elements/1.1/"
   xmlns:cc="http://creativecommons.org/ns#"
   xmlns:rdf="http://www.w3.org/1999/02/22-rdf-syntax-ns#"
   xmlns:svg="http://www.w3.org/2000/svg"
   xmlns="http://www.w3.org/2000/svg"
   version="1.1"
   viewBox="0 0 260 255.7949"
   height="255.79491"
   width="260"
   data-name="Layer 1"
   id="Layer_1">
  <metadata
     id="metadata6639">
    <rdf:RDF>
      <cc:Work
         rdf:about="">
        <dc:format>image/svg+xml</dc:format>
        <dc:type
           rdf:resource="http://purl.org/dc/dcmitype/StillImage" />
        <dc:title>20190510_Timescale_Logo_Horizontal_WEB_REVERSED</dc:title>
      </cc:Work>
    </rdf:RDF>
  </metadata>
  <defs
     id="defs6573">
    <style
       id="style6571">.cls-1{fill:#fff;}.cls-2{fill:#f8eed0;}.cls-3{fill:#fcb415;}.cls-4{fill:#333;}</style>
  </defs>
  <title
     id="title6575">20190510_Timescale_Logo_Horizontal_WEB_REVERSED</title>
  <path
     style="fill:#ffffff"
     id="path6577"
     d="m 339.8636,181.0456 h -21.83 V 92.6112 H 289.4343 V 74.7647 h 78.87 v 17.8465 h -28.4407 z"
     class="cls-1" />
  <path
     style="fill:#ffffff"
     id="path6579"
     d="M 398.7363,86.397 A 11.2353,11.2353 0 0 1 376.2686,86.2376 10.9683,10.9683 0 0 1 387.5821,74.924 c 6.533,10e-5 11.1542,4.7808 11.1542,11.473 z m -1.1157,94.6485 h -20.2363 v -73.7746 h 20.2363 z"
     class="cls-1" />
  <path
     style="fill:#ffffff"
     id="path6581"
     d="m 431.7665,106.6284 v 9.2415 c 4.6213,-8.1269 10.8354,-11.7918 20.2363,-11.7918 9.56,0 16.5714,4.3025 20.0769,12.27 4.94,-8.4456 11.7918,-12.27 22.3084,-12.27 7.4882,0 13.7034,2.3909 17.8454,6.8517 4.4619,4.94 5.8964,10.0384 5.8964,21.1926 v 48.2807 H 497.8936 V 135.947 c 0,-10.0385 -3.6649,-14.8192 -11.3136,-14.8192 -7.4892,0 -11.7917,5.4183 -11.7917,14.8192 v 44.4563 H 454.552 v -43.819 c 0,-10.1978 -3.8233,-15.4567 -11.1531,-15.4567 -7.6487,0 -11.6324,5.2589 -11.6324,15.4567 v 43.8188 H 411.53 v -73.7747 z"
     class="cls-1" />
  <path
     style="fill:#ffffff"
     id="path6583"
     d="m 749.1162,173.1699 c -8.4456,7.6486 -17.2089,10.9948 -28.3631,10.9948 -22.4667,0 -39.0391,-16.5714 -39.0391,-39.0381 0,-23.2637 16.2536,-39.8361 39.1985,-39.8361 10.9948,0 20.0769,3.8243 29.4778,12.27 l -13.544,12.2689 c -4.4608,-4.4608 -9.2415,-6.5329 -15.1369,-6.5329 -11.1542,0 -19.44,9.0821 -19.44,21.1926 0,12.5877 8.4456,21.6709 20.2363,21.6709 5.2589,0 9.0832,-1.594 14.341,-6.2152 z"
     class="cls-1" />
  <path
     style="fill:#ffffff"
     id="path6585"
     d="m 812.0513,107.8408 h 20.2363 v 73.7747 h -20.2363 v -10.1979 c -6.8517,8.7634 -14.8181,12.7471 -25.6535,12.7471 -20.7145,0 -35.5336,-16.0932 -35.5336,-38.56 0,-23.2648 15.6161,-40.3143 37.1264,-40.3143 10.04,0 16.8913,3.5056 24.0607,11.9512 z M 772.535,145.286 c 0,12.9064 8.4456,22.6261 19.4394,22.6261 11.3135,0 20.3957,-10.5166 20.3957,-23.2637 0,-13.0658 -8.2852,-22.3084 -20.2363,-22.3084 -11.472,0 -19.5988,9.402 -19.5988,22.946 z"
     class="cls-1" />
  <path
     style="fill:#ffffff"
     id="path6587"
     d="M 845.78,182.3348 V 76.0538 h 20.2363 v 106.281 z"
     class="cls-1" />
  <path
     style="fill:#ffffff"
     id="path6589"
     d="M 604.8083,150.3903 H 543.99 a 20.2409,20.2409 0 0 0 7.0387,12.7951 q 5.7211,4.75 14.5981,4.75 a 25.2375,25.2375 0 0 0 18.2386,-7.4205 l 15.95,7.49 a 37.6488,37.6488 0 0 1 -14.2856,12.5174 q -8.3216,4.0566 -19.7639,4.0566 -17.754,0 -28.9185,-11.2 -11.1645,-11.2 -11.1652,-28.0511 0,-17.2679 11.13,-28.6755 11.13,-11.4076 27.9129,-11.4077 17.8221,0 28.9873,11.4077 11.1652,11.4077 11.1653,30.1318 z m -18.9319,-14.9094 a 18.9989,18.9989 0 0 0 -7.3987,-10.2638 21.4477,21.4477 0 0 0 -12.8164,-3.953 22.6664,22.6664 0 0 0 -13.8926,4.4384 q -3.7509,2.775 -6.9469,9.7784 z"
     class="cls-1" />
  <path
     style="fill:#ffffff"
     id="path6591"
     d="m 954.9306,151.078 h -60.8185 a 20.2409,20.2409 0 0 0 7.0387,12.7952 q 5.7211,4.75 14.5981,4.75 a 25.2377,25.2377 0 0 0 18.2386,-7.4205 l 15.95,7.49 a 37.6506,37.6506 0 0 1 -14.2857,12.5174 q -8.3218,4.0569 -19.7641,4.0569 -17.754,0 -28.9184,-11.2 -11.1661,-11.1988 -11.1653,-28.0511 0,-17.2678 11.13,-28.6755 11.13,-11.4077 27.9129,-11.4077 17.8221,0 28.9873,11.4077 11.1652,11.4077 11.1658,30.1318 z m -18.9319,-14.9094 a 19,19 0 0 0 -7.3987,-10.2638 21.4484,21.4484 0 0 0 -12.8164,-3.953 22.6666,22.6666 0 0 0 -13.8926,4.4385 q -3.7509,2.7749 -6.9469,9.7783 z"
     class="cls-1" />
  <path
     style="fill:#ffffff"
     id="path6593"
     d="m 618.42,158.7177 c 0.8431,0.6577 6.3018,4.6612 16.3335,7.94 a 34.6343,34.6343 0 0 0 15.5257,0.7613 15.732,15.732 0 0 0 6.8171,-2.59 5.166,5.166 0 0 0 1.8452,-2.5918 5.2451,5.2451 0 0 0 -1.4536,-4.8622 c -1.657,-1.7485 -4.08,-2.6105 -6.3464,-3.2433 -5.0612,-1.4133 -9.81,-2.4388 -14.1481,-3.32 -4.8948,-0.9936 -9.5179,-1.9321 -13.6528,-4.1158 -5.3613,-2.8314 -9.3927,-5.9753 -11.2148,-12.0947 a 21.9585,21.9585 0 0 1 3.13,-18.0132 c 6.6816,-9.6093 18.5149,-11.7626 24.974,-12.191 20.3563,-1.3482 35.1485,11.3243 35.7683,11.8645 l -11.2895,12.94 0.0435,0.0374 c -0.0986,-0.0838 -10.1891,-8.9665 -23.0054,-8.1174 -7.5131,0.4982 -10.3692,3.1607 -11.2486,4.2823 a 4.858,4.858 0 0 0 -1.1726,3.2081 c 0.1852,1.9739 1.23,3.9942 10.7415,6.141 5.836,1.3173 9.4911,2.1045 15.8725,4.087 11.62,3.61 22.0725,11.1744 20.3588,24.9231 -1.9027,15.2642 -18.1011,20.9555 -31.5234,20.9557 a 52.6737,52.6737 0 0 1 -15.3055,-2.2038 c -14.0588,-4.5945 -20.6706,-9.3827 -21.6743,-10.1637 l 10.6086,-13.6464 z"
     class="cls-1" />
  <circle
     style="fill:#f8eed0"
     id="circle6595"
     r="127.8812"
     cy="127.8974"
     cx="127.8974"
     class="cls-2" />
  <ellipse
     style="fill:#fcb415"
     id="ellipse6597"
     ry="85.745598"
     rx="85.734802"
     cy="127.7241"
     cx="127.8974"
     class="cls-3" />
  <ellipse
     style="fill:#ffffff"
     id="ellipse6599"
     transform="rotate(-67.6685)"
     ry="19.1446"
     rx="24.546499"
     cy="196.95009"
     cx="-40.180271"
     class="cls-1" />
  <ellipse
     style="fill:#ffffff"
     id="ellipse6601"
     ry="26.608"
     rx="24.580999"
     cy="207.40491"
     cx="128.11189"
     class="cls-1" />
  <ellipse
     style="fill:#ffffff"
     id="ellipse6603"
     transform="rotate(-22.3315)"
     ry="24.546499"
     rx="19.1446"
     cy="137.67935"
     cx="40.405418"
     class="cls-1" />
  <path
     style="fill:#333333"
     d="m 171.4632,210.2224 a 92.7166,92.7166 0 0 0 48.4818,-72.3578 l 14.8472,17.0573 a 110.4812,110.4812 0 0 1 -63.3036,74.7894 86.218,86.218 0 0 0 0.435,-9.1269 c 0,-3.519 -0.157,-6.98 -0.4604,-10.362 z m -73.4666,6.0665 a 93.1419,93.1419 0 0 0 60.7019,-0.4217 60.3588,60.3588 0 0 1 -9.2325,20.7258 111.3814,111.3814 0 0 1 -42.1608,0.2495 59.8247,59.8247 0 0 1 -9.3086,-20.5536 z m -13.48,-5.7994 A 92.7119,92.7119 0 0 1 35.48,137.3353 l -14.4773,18.8492 a 110.4967,110.4967 0 0 0 63.5388,73.764 85.3475,85.3475 0 0 1 -0.4612,-9.3641 c -3e-4,-3.4259 0.149,-6.7974 0.4366,-10.0949 z M 202.1391,73.2242 212.6491,58.1721 A 110.852,110.852 0 0 0 186.3736,35.1155 l -17.75,10.1821 a 93.0691,93.0691 0 0 1 33.5155,27.9266 z M 70.3191,34.3618 a 110.8129,110.8129 0 0 0 -27.425,23.7311 l 11.85,13.2907 a 93.0447,93.0447 0 0 1 32.318,-26.1879 z"
     class="cls-4"
     data-name="path14 fill"
     id="path14_fill" />
  <path
     style="fill:#333333"
     id="path6606"
     d="m 66.7588,127.8013 a 61.1533,61.1533 0 0 1 43.9395,-58.6692 33.776,33.776 0 0 1 4.1784,-8.24 68.171,68.171 0 0 0 -25.1586,123.3887 q 1.1931,-3.4962 2.6147,-6.7432 a 61.06,61.06 0 0 1 -25.574,-49.7363 z"
     class="cls-4" />
  <path
     style="fill:#333333"
     id="path6608"
     d="m 78.7992,107.3629 5.1732,1.3568 a 48.0422,48.0422 0 0 1 23.7187,-24.4082 c 0.1357,-2.0747 0.3711,-4.0864 0.6874,-6.0271 a 53.3293,53.3293 0 0 0 -29.5793,29.0785 z"
     class="cls-4" />
  <path
     style="fill:#333333"
     id="path6610"
     d="M 80.65,135.367 H 75.322 A 53.0992,53.0992 0 0 0 96,170.2261 q 1.3416,-2.3425 2.8092,-4.4847 A 47.84,47.84 0 0 1 80.65,135.367 Z"
     class="cls-4" />
  <path
     style="fill:#333333"
     id="path6612"
     d="m 171.9205,108.9014 5.15,-1.3506 A 53.2738,53.2738 0 0 0 142.3657,76.5784 c 0.3981,1.8649 0.7179,3.806 0.9477,5.8118 a 48.0224,48.0224 0 0 1 28.6071,26.5112 z"
     class="cls-4" />
  <polygon
     style="fill:#333333"
     id="polygon6614"
     points="157.276,118.305 154.476,126.705 162.876,132.305 178.276,126.705 181.076,121.105 175.542,115.369 "
     class="cls-4" />
  <polygon
     style="fill:#333333"
     id="polygon6616"
     points="99.24,118.305 102.04,126.705 93.64,132.305 78.24,126.705 75.44,121.105 80.974,115.369 "
     class="cls-4" />
  <path
     style="fill:#333333"
     id="path6618"
     d="m 178.4942,143.907 a 53.0225,53.0225 0 0 0 1.9784,-8.54 h -5.3255 a 47.7363,47.7363 0 0 1 -1.0349,4.8046 q 2.3269,1.8606 4.382,3.7354 z"
     class="cls-4" />
  <path
     style="fill:#333333"
     id="path6620"
     d="m 161.6523,161.645 a 47.9158,47.9158 0 0 1 -4.3231,3.8305 q 1.4777,2.1324 2.832,4.4724 a 53.2329,53.2329 0 0 0 6.5937,-6.004 c -1.6607,-0.6805 -3.3671,-1.453 -5.1026,-2.2989 z"
     class="cls-4" />
  <path
     style="fill:#333333"
     id="path6622"
     d="m 189.0365,127.8013 a 60.9332,60.9332 0 0 1 -4.3114,22.54 33.5436,33.5436 0 0 1 4.6257,6.9416 68.1491,68.1491 0 0 0 -54.15,-97.2538 31.9366,31.9366 0 0 1 4.4775,7.7785 61.1509,61.1509 0 0 1 49.3582,59.9937 z"
     class="cls-4" />
  <path
     style="fill:#333333"
     id="path6624"
     d="m 175.0177,166.7247 a 61.47,61.47 0 0 1 -11.155,10.5237 q 1.4319,3.24 2.6409,6.74 a 68.5362,68.5362 0 0 0 16.5338,-16.1414 31.3777,31.3777 0 0 1 -8.0197,-1.1223 z"
     class="cls-4" />
  <path
     style="fill:#333333"
     id="path6626"
     d="m 133.7448,119.4718 -0.0166,0.017 c -0.0339,-0.0229 -0.0658,-0.0475 -0.0976,-0.072 l -5.7332,-59.861 h -5.3408 l -4.9081,60.2794 0.0236,0.004 c 0,0.1191 -0.018,0.2309 -0.0153,0.351 a 18.5344,18.5344 0 0 0 0.2991,2.91 9.3124,9.3124 0 0 0 0.8695,3.1072 9.9846,9.9846 0 0 0 4.5848,5.5314 c 0.4485,0.3493 0.9117,0.6892 1.4073,1.0062 0.1011,0.0648 0.2056,0.1073 0.3074,0.17 l -0.008,0.0218 59.51,32.7128 3.11,-4.3446 z"
     class="cls-4" />
  <path
     style="fill:#333333"
     id="path6628"
     d="m 141.334,201.4143 a 10.0107,10.0107 0 0 1 -9.6688,-7.4362 l 22,-8.4147 -5.25,-13.0694 -20.5214,8.303 -20.5538,-8.2843 -5.2389,13.0417 21.7989,8.5891 a 10.0086,10.0086 0 0 1 -9.6209,7.2708 c -0.31,0 -0.6154,-0.018 -0.9179,-0.0457 l -4.43,6.2026 a 16.9624,16.9624 0 0 0 18.8757,-5.8371 16.9448,16.9448 0 0 0 19.4406,5.6332 l -4.348,-6.0866 a 10.0435,10.0435 0 0 1 -1.5655,0.1336 z"
     class="cls-4" />
  <path
     style="fill:#333333"
     id="path6630"
     d="m 196.3758,76.1315 -7.1282,8.1319 a 75.1751,75.1751 0 0 1 -20.6409,106.6819 104.467,104.467 0 0 1 2.24,10.9861 85.7481,85.7481 0 0 0 25.529,-125.8 z"
     class="cls-4" />
  <path
     style="fill:#333333"
     id="path6632"
     d="M 52.7033,127.7134 A 74.8269,74.8269 0 0 1 66.51,84.3146 L 59.38,76.1803 A 85.75,85.75 0 0 0 85.4344,202.211 104.6218,104.6218 0 0 1 87.6407,191.2347 75.1376,75.1376 0 0 1 52.7033,127.7134 Z"
     class="cls-4" />
  <path
     style="fill:#333333"
     id="path6634"
     d="M 127.8973,41.9785 A 85.38,85.38 0 0 0 91.1061,50.262 l 5.2459,9.1962 a 75.1778,75.1778 0 0 1 63.0263,-0.0294 l 5.2459,-9.1963 a 85.3867,85.3867 0 0 0 -36.7269,-8.254 z"
     class="cls-4" />
</svg>
