<svg xmlns="http://www.w3.org/2000/svg" width="44" height="44" viewBox="0 0 44 44" xmlns:xlink="http://www.w3.org/1999/xlink">
  <defs>
    <polygon id="a" points="0 0 44 0 44 43.997 0 43.997"/>
  </defs>
  <g fill="none" fill-rule="evenodd">
    <mask id="b" fill="white">
      <use xlink:href="#a"/>
    </mask>
    <path fill="#349DCC" d="M23.5995956,23.29844 L44,0.75372 L43.24804,0 L20.7576356,20.3938044 C21.9109244,21.13276 22.8847911,22.1276978 23.5995956,23.29844" mask="url(#b)"/>
    <path fill="#424342" d="M15.9736622,32.0546844 C13.7691156,32.0546844 11.9819333,30.2642756 11.9819333,28.0554267 C11.9819333,25.8504889 13.7691156,24.0601289 15.9736622,24.0601289 C18.1786,24.0601289 19.96456,25.8504889 19.96456,28.0554267 C19.96456,30.2642756 18.1786,32.0546844 15.9736622,32.0546844 Z M18.0432756,21.4469689 L16.4606444,0.0445377778 L15.3955511,0.0445377778 L13.8093022,21.4787956 C13.4611644,21.5933911 13.1241733,21.7358533 12.8027289,21.9009511 L1.67302667,12.98792 L0.919893333,13.7422267 L9.82392889,24.88288 C9.64885778,25.2242222 9.49847556,25.5799378 9.38075111,25.9515422 L0,27.5167689 L0,28.5829378 L9.37596,30.1465511 C9.49769333,30.53336 9.65369778,30.9040356 9.83825333,31.2581867 L4.37888,38.9098844 L5.13123111,39.66336 L12.7744711,34.1984133 C13.1130756,34.37588 13.4687422,34.5262622 13.8387822,34.6464311 L15.3955511,44 L16.4606444,44 L18.0110578,34.67816 C18.4057378,34.5565244 18.7833067,34.3989067 19.1449867,34.21352 L30.27464,43.1271378 L31.0266,42.3735644 L22.1237378,31.2318844 C22.2976356,30.8905422 22.4471378,30.5348756 22.5650089,30.1656667 L43.9085289,28.5829378 L43.9085289,27.5167689 L22.5593378,25.9340889 C21.8742578,23.7998933 20.1834356,22.1182133 18.0432756,21.4469689 Z" mask="url(#b)"/>
  </g>
</svg>
