<?xml version="1.0" encoding="UTF-8" standalone="no"?>
<!-- Generator: Adobe Illustrator 26.0.2, SVG Export Plug-In . SVG Version: 6.00 Build 0)  -->

<svg
   version="1.1"
   id="Layer_1"
   x="0px"
   y="0px"
   viewBox="0 0 250 249.99999"
   xml:space="preserve"
   sodipodi:docname="locomote.svg"
   width="250"
   height="250"
   inkscape:version="1.3.2 (091e20e, 2023-11-25)"
   xmlns:inkscape="http://www.inkscape.org/namespaces/inkscape"
   xmlns:sodipodi="http://sodipodi.sourceforge.net/DTD/sodipodi-0.dtd"
   xmlns="http://www.w3.org/2000/svg"
   xmlns:svg="http://www.w3.org/2000/svg"><defs
   id="defs10" /><sodipodi:namedview
   id="namedview10"
   pagecolor="#ffffff"
   bordercolor="#666666"
   borderopacity="1.0"
   inkscape:showpageshadow="2"
   inkscape:pageopacity="0.0"
   inkscape:pagecheckerboard="0"
   inkscape:deskcolor="#d1d1d1"
   inkscape:zoom="2.9852001"
   inkscape:cx="94.968507"
   inkscape:cy="62.642366"
   inkscape:window-width="3408"
   inkscape:window-height="1619"
   inkscape:window-x="0"
   inkscape:window-y="25"
   inkscape:window-maximized="0"
   inkscape:current-layer="g10" />
<style
   type="text/css"
   id="style1">
	.st0{fill:#0D43D3;}
	.st1{fill:#FFFFFF;}
</style>

<g
   id="g10"
   transform="matrix(6.9444444,0,0,6.9444444,-35.416666,-31.249999)"><rect
     style="fill:#0d43d3;fill-opacity:1;fill-rule:evenodd;stroke:none;stroke-width:0.621967;stroke-linecap:square;stroke-miterlimit:2;paint-order:stroke fill markers"
     id="rect10"
     width="36"
     height="36"
     x="5.0999999"
     y="4.5" /><path
     class="st1"
     d="m 34.4,19.8 -2.1,-2.1 0.4,-2.2 C 32.9,14.3 32.1,13.4 31,13.4 H 17.4 c -1.2,0 -2.3,0.9 -2.5,2.1 L 12.5,29 c -0.2,1.2 0.6,2.1 1.7,2.1 h 13.5 c 1.2,0 2.3,-0.9 2.5,-2.1 l 0.8,-4.4 3.4,-3.4 c 0.4,-0.4 0.4,-1 0,-1.4 z m -6.7,-1 -1.2,6.8 c -0.1,0.6 -0.7,1.1 -1.2,1.1 h -6.8 c -0.6,0 -1,-0.5 -0.9,-1.1 l 1.2,-6.8 c 0.1,-0.6 0.7,-1.1 1.2,-1.1 h 6.8 c 0.6,0 1,0.5 0.9,1.1 z"
     id="path2" /></g>








</svg>
