<?xml version="1.0" encoding="utf-8"?>
<svg version="1.1" id="Layer_1" xmlns="http://www.w3.org/2000/svg" xmlns:xlink="http://www.w3.org/1999/xlink" x="0px" y="0px"
	 viewBox="0 0 168 88" style="enable-background:new 0 0 168 88;" xml:space="preserve">
<style type="text/css">
	.st0{fill:inherit;}
</style>
<path class="st0" d="M111.8,32.3c-1.6,3.6-2.4,7.6-2.4,11.7s0.9,8.2,2.4,11.7c5.4-1.1,9.6-6,9.6-11.7S117.2,33.4,111.8,32.3z"/>
<path class="st0" d="M54.5,77.3L48.7,66c6.1-5.4,9.9-13.2,9.9-22c0-16.2-13.1-29.3-29.3-29.3S0,27.8,0,44
	c0,16.2,13.1,29.3,29.3,29.3c2.2,0,4.3-0.2,6.3-0.7L41.4,84c1.3,2.5,3.9,4,6.5,4c1.1,0,2.3-0.3,3.3-0.8C54.9,85.4,56.3,81,54.5,77.3
	z M14.7,44c0-8.1,6.6-14.7,14.7-14.7S44,35.9,44,44c0,8.1-6.6,14.7-14.7,14.7S14.7,52.1,14.7,44z"/>
<path class="st0" d="M69.3,73.3C65.3,73.3,62,70,62,66V7.3C62,3.3,65.3,0,69.3,0s7.3,3.3,7.3,7.3V66C76.7,70,73.4,73.3,69.3,73.3z"
	/>
<path class="st0" d="M138.7,14.7c-5.3,0-10.4,1.4-14.7,3.9c-4.3-2.5-9.3-3.9-14.7-3.9C93.1,14.7,80,27.8,80,44
	c0,16.2,13.1,29.3,29.3,29.3c5.3,0,10.4-1.4,14.7-3.9c4.3,2.5,9.3,3.9,14.7,3.9c16.2,0,29.3-13.1,29.3-29.3
	C168,27.8,154.9,14.7,138.7,14.7z M109.3,58.7c-8.1,0-14.7-6.6-14.7-14.7s6.6-14.7,14.7-14.7S124,35.9,124,44S117.4,58.7,109.3,58.7
	z M138.7,58.7c-1.3,0-2.5-0.2-3.7-0.5c2.3-4.2,3.7-9.1,3.7-14.2s-1.3-10-3.7-14.2c1.2-0.3,2.4-0.5,3.7-0.5c8.1,0,14.7,6.6,14.7,14.7
	C153.3,52.1,146.8,58.7,138.7,58.7z"/>
</svg>
