<?xml version="1.0" encoding="UTF-8" standalone="no"?>
<svg
   width="550"
   height="550"
   viewBox="0 0 550 550"
   fill="none"
   version="1.1"
   id="svg6"
   sodipodi:docname="Ravio.svg"
   inkscape:version="1.3.2 (091e20e, 2023-11-25)"
   xmlns:inkscape="http://www.inkscape.org/namespaces/inkscape"
   xmlns:sodipodi="http://sodipodi.sourceforge.net/DTD/sodipodi-0.dtd"
   xmlns="http://www.w3.org/2000/svg"
   xmlns:svg="http://www.w3.org/2000/svg">
  <defs
     id="defs6" />
  <sodipodi:namedview
     id="namedview6"
     pagecolor="#ffffff"
     bordercolor="#666666"
     borderopacity="1.0"
     inkscape:showpageshadow="2"
     inkscape:pageopacity="0.0"
     inkscape:pagecheckerboard="0"
     inkscape:deskcolor="#d1d1d1"
     inkscape:zoom="0.79104898"
     inkscape:cx="790.72221"
     inkscape:cy="290.1211"
     inkscape:window-width="1920"
     inkscape:window-height="732"
     inkscape:window-x="0"
     inkscape:window-y="25"
     inkscape:window-maximized="0"
     inkscape:current-layer="svg6" />
  <rect
     style="fill:#000000;fill-rule:evenodd;stroke-width:4.33723;stroke-linecap:square;stroke-miterlimit:2;paint-order:stroke fill markers"
     id="rect6"
     width="550"
     height="550"
     x="0"
     y="0" />
  <path
     d="m 379.18818,196.10844 c -42.795,0 -34.892,-55.454 -85.189,-41.416 -10.401,2.875 -19.674,8.946 -26.553,17.382 -6.878,8.435 -11.026,18.825 -11.876,29.748 l -18.716,172.888 c -5.42,50.233 -51.7809,90.953 -103.5048,90.953 h -4.5646 c -16.1477,0 -27.87345,-12.703 -26.19021,-28.423 l 32.06751,-296.035 c 3.395,-31.41 32.3521,-56.846009 64.6761,-56.846009 h 44.078 c 2.912,-0.14 5.819,0.364 8.52,1.47701 2.702,1.114 5.134,2.81 7.127,4.972 1.994,2.162 3.502,4.738 4.421,7.551 0.919,2.811999 1.227,5.793999 0.901,8.738999 l -2.026,18.765 c 28.159,-26.102999 68.728,-39.385999 117.257,-39.385999 32.837,0 70.211,13.862999 67.843,35.759999 -4.052,37.298 -26.419,73.871 -68.271,73.871 z"
     fill="#ffffff"
     id="path1" />
</svg>
