<?xml version="1.0" encoding="UTF-8" standalone="no"?>
<svg
   width="200"
   height="200"
   viewBox="0 0 200 200"
   fill="none"
   version="1.1"
   id="svg142"
   sodipodi:docname="Seam2.svg"
   inkscape:version="1.2.1 (9c6d41e4, 2022-07-14)"
   xmlns:inkscape="http://www.inkscape.org/namespaces/inkscape"
   xmlns:sodipodi="http://sodipodi.sourceforge.net/DTD/sodipodi-0.dtd"
   xmlns="http://www.w3.org/2000/svg"
   xmlns:svg="http://www.w3.org/2000/svg">
  <defs
     id="defs146" />
  <sodipodi:namedview
     id="namedview144"
     pagecolor="#ffffff"
     bordercolor="#666666"
     borderopacity="1.0"
     inkscape:showpageshadow="2"
     inkscape:pageopacity="0.0"
     inkscape:pagecheckerboard="0"
     inkscape:deskcolor="#d1d1d1"
     showgrid="false"
     inkscape:zoom="1.2164948"
     inkscape:cx="321.41525"
     inkscape:cy="101.9322"
     inkscape:window-width="1875"
     inkscape:window-height="1440"
     inkscape:window-x="0"
     inkscape:window-y="25"
     inkscape:window-maximized="0"
     inkscape:current-layer="svg142" />
  <path
     d="m 177.28527,61.3819 c -0.001,-0.0326 -0.004,-0.0651 -0.005,-0.0976 -0.004,-0.1032 -0.01,-0.2062 -0.018,-0.3093 -0.003,-0.0362 -0.007,-0.0721 -0.01,-0.1082 -0.01,-0.0987 -0.019,-0.1975 -0.032,-0.2961 -0.006,-0.0436 -0.013,-0.0871 -0.019,-0.1307 -0.013,-0.0903 -0.026,-0.1806 -0.042,-0.2707 -0.01,-0.0553 -0.022,-0.1101 -0.033,-0.1653 -0.015,-0.0776 -0.03,-0.1553 -0.048,-0.2328 -0.016,-0.071 -0.034,-0.1414 -0.052,-0.212 -0.016,-0.0611 -0.03,-0.1223 -0.047,-0.1831 -0.025,-0.0893 -0.053,-0.1778 -0.08,-0.2666 -0.014,-0.0418 -0.025,-0.0839 -0.039,-0.1256 -0.036,-0.1079 -0.075,-0.215 -0.115,-0.3219 -0.008,-0.0227 -0.016,-0.0456 -0.025,-0.0681 -0.047,-0.1231 -0.098,-0.2451 -0.151,-0.3665 -0.003,-0.0073 -0.006,-0.0147 -0.009,-0.0219 -0.058,-0.1291 -0.118,-0.2571 -0.182,-0.384 l -0.002,-0.0032 c -0.06,-0.1187 -0.123,-0.2364 -0.189,-0.353 -0.006,-0.01 -0.01,-0.0203 -0.016,-0.0303 l -0.002,-0.0037 c -0.049,-0.0846 -0.101,-0.168 -0.152,-0.2515 -0.027,-0.0436 -0.053,-0.0884 -0.08,-0.1314 -0.025,-0.0385 -0.052,-0.0761 -0.077,-0.1143 -0.058,-0.0862 -0.115,-0.1722 -0.175,-0.2557 l -0.001,-0.0021 c -0.588,-0.817 -14.462,-20.0814 -20.061,-26.3643 -0.324,-0.3637 -0.658,-0.7427 -1.003,-1.1343 -5.672,-6.4346 -15.166,-17.204161 -33.833,-21.7940206 -8.5124,-2.09295 -17.3723,-1.81388 -27.086294,0.85303 -8.0121,2.1997796 -16.8186,6.0700906 -27.7144,12.1803906 l -1.1916,0.6681 c -7.3134,4.1001 -13.624,7.6383 -18.9724,11.0907 -0.1778,0.1064 -0.3504,0.2185 -0.518,0.3362 -9.832,6.4123 -16.33784,12.5812 -19.76967,21.5704 -8.67106,22.7127 5.21297,41.3734 7.18467,43.8565 l 15.7413,21.369 -21.39785,11.927 c -0.0044,0.003 -0.0086,0.006 -0.01305,0.008 -0.09454,0.053 -0.18802,0.109 -0.28118,0.166 -0.03495,0.022 -0.07041,0.043 -0.10496,0.064 -0.06504,0.042 -0.12909,0.085 -0.1934,0.128 -0.0615,0.042 -0.12325,0.082 -0.18324,0.125 -0.03599,0.026 -0.07146,0.053 -0.10732,0.079 -0.08536,0.063 -0.16993,0.126 -0.25234,0.192 -0.0046,0.003 -0.0096,0.007 -0.01422,0.01 -0.01292,0.011 -0.02498,0.022 -0.0377,0.032 -0.09637,0.078 -0.19111,0.157 -0.28328,0.239 -0.01265,0.011 -0.02485,0.022 -0.03744,0.034 -0.09289,0.083 -0.18395,0.167 -0.27253,0.254 -0.01652,0.016 -0.03238,0.032 -0.04884,0.048 -0.08136,0.081 -0.16134,0.163 -0.23903,0.247 -0.02458,0.026 -0.04818,0.053 -0.07231,0.08 -0.06654,0.074 -0.13223,0.148 -0.19589,0.223 -0.0333,0.04 -0.06543,0.08 -0.09788,0.12 -0.05173,0.064 -0.10313,0.128 -0.15275,0.193 -0.04072,0.053 -0.07999,0.107 -0.11919,0.161 -0.03881,0.053 -0.07756,0.107 -0.11499,0.161 -0.04589,0.066 -0.09014,0.133 -0.134,0.201 -0.02846,0.043 -0.05691,0.087 -0.08444,0.131 -0.04845,0.078 -0.09506,0.156 -0.14089,0.235 -0.02098,0.036 -0.04209,0.072 -0.06254,0.109 -0.04819,0.086 -0.09441,0.173 -0.13945,0.26 -0.01639,0.032 -0.03284,0.063 -0.04884,0.095 -0.0455,0.091 -0.08896,0.183 -0.13099,0.275 -0.01422,0.031 -0.02832,0.062 -0.04209,0.093 -0.04071,0.093 -0.07945,0.186 -0.11682,0.279 -0.01344,0.034 -0.02695,0.067 -0.03999,0.101 -0.03475,0.09 -0.06773,0.181 -0.09933,0.272 -0.01363,0.04 -0.02727,0.079 -0.04025,0.119 -0.02813,0.085 -0.05474,0.17 -0.08018,0.257 -0.01416,0.047 -0.02806,0.095 -0.04143,0.143 -0.02151,0.078 -0.04163,0.155 -0.06091,0.233 -0.01442,0.058 -0.02845,0.117 -0.04163,0.175 -0.01534,0.069 -0.0297,0.137 -0.0434,0.206 -0.01383,0.069 -0.02694,0.138 -0.0392,0.207 -0.01016,0.059 -0.01954,0.118 -0.02845,0.176 -0.01239,0.08 -0.02374,0.16 -0.0337,0.241 -0.0062,0.049 -0.01154,0.098 -0.01678,0.147 -0.0096,0.09 -0.01803,0.179 -0.02492,0.27 -0.0031,0.04 -0.0056,0.081 -0.0081,0.122 -0.006,0.098 -0.01049,0.195 -0.01317,0.292 -9.2e-4,0.036 -0.0014,0.072 -0.002,0.108 -0.0014,0.101 -0.0014,0.202 7.9e-4,0.303 6.5e-4,0.034 0.0018,0.068 0.003,0.102 0.0032,0.101 0.0081,0.203 0.01501,0.305 0.0025,0.036 0.0056,0.072 0.0085,0.108 0.0079,0.098 0.01731,0.196 0.02865,0.294 0.0048,0.041 0.01036,0.083 0.01587,0.125 0.01186,0.09 0.02465,0.181 0.03959,0.271 0.0084,0.052 0.0179,0.103 0.02734,0.155 0.01449,0.079 0.02944,0.158 0.04635,0.237 0.0137,0.065 0.02898,0.13 0.04432,0.195 0.01528,0.065 0.03068,0.129 0.0476,0.194 0.02098,0.08 0.04399,0.16 0.06733,0.24 0.01429,0.048 0.02825,0.097 0.04359,0.146 0.02996,0.096 0.06235,0.191 0.09565,0.286 0.01167,0.033 0.02282,0.066 0.03488,0.099 0.0398,0.109 0.08248,0.217 0.12699,0.325 0.0083,0.02 0.01619,0.04 0.02472,0.06 0.0489,0.116 0.10102,0.231 0.15544,0.346 0.0066,0.014 0.01278,0.028 0.01947,0.041 0.05448,0.113 0.1121,0.225 0.17196,0.336 0.0072,0.014 0.01344,0.027 0.02072,0.041 0.0021,0.003 0.0045,0.007 0.0066,0.011 0.08909,0.162 0.18324,0.323 0.28387,0.481 0.01836,0.029 0.03809,0.057 0.05664,0.086 0.07277,0.111 0.14797,0.221 0.22657,0.33 0.04249,0.059 0.08569,0.117 0.12948,0.175 0.02033,0.026 0.03901,0.054 0.05973,0.08 l 20.79674,26.662 0.0316,0.041 c 5.1928,6.574 10.922,11.864 17.028,15.722 5.4568,3.447 11.2202,5.764 17.1305,6.888 2.7168,0.516 5.4708,0.769 8.1849,0.769 6.6357,0 13.031194,-1.512 18.045794,-4.378 0.6989,-0.4 1.3828,-0.825 2.0538,-1.27 7.1062,-3.965 23.2273,-13.016 29.9593,-17.27 1.04,-0.658 2.1,-1.314 3.221,-2.009 9.66,-5.986 20.609,-12.77 26.08,-24.228 2.495,-5.223 5.352,-12.43 5.307,-21.872 -0.051,-10.644 -3.866,-22.0644 -11.341,-33.9468 l -5.904,-9.5313 17.971,-10.4785 0.004,-0.0023 c 0.083,-0.0486 0.165,-0.1006 0.247,-0.1525 0.044,-0.0276 0.088,-0.0541 0.131,-0.0822 0.038,-0.0246 0.074,-0.0512 0.111,-0.0764 0.086,-0.0585 0.172,-0.1171 0.255,-0.1783 l 0.002,-0.0012 c 0.005,-0.0035 0.009,-0.0072 0.014,-0.0106 0.228,-0.1686 0.446,-0.3471 0.653,-0.5348 l 0.003,-0.0035 c 0.103,-0.093 0.202,-0.1881 0.299,-0.2853 0.013,-0.0129 0.025,-0.0262 0.038,-0.0391 0.084,-0.0853 0.167,-0.1716 0.246,-0.2599 0.026,-0.0284 0.05,-0.0576 0.075,-0.0862 0.065,-0.0737 0.13,-0.1477 0.192,-0.2234 0.036,-0.0444 0.071,-0.09 0.106,-0.1351 0.048,-0.0614 0.097,-0.1224 0.143,-0.1851 0.044,-0.0593 0.086,-0.1198 0.128,-0.1801 0.036,-0.05 0.072,-0.0997 0.106,-0.1507 0.048,-0.0716 0.093,-0.1446 0.139,-0.2176 0.026,-0.0413 0.053,-0.0821 0.078,-0.1237 0.048,-0.081 0.095,-0.1632 0.141,-0.2456 0.02,-0.0356 0.04,-0.0708 0.06,-0.1066 0.046,-0.0868 0.09,-0.1745 0.134,-0.2627 0.016,-0.0333 0.034,-0.0663 0.05,-0.0999 0.042,-0.089 0.082,-0.179 0.122,-0.2692 0.015,-0.0345 0.031,-0.0686 0.045,-0.1032 0.037,-0.0878 0.072,-0.1765 0.106,-0.2653 0.015,-0.0389 0.03,-0.0776 0.045,-0.1168 0.03,-0.0837 0.058,-0.1682 0.086,-0.2528 0.015,-0.0456 0.031,-0.0911 0.046,-0.137 0.024,-0.0776 0.046,-0.1558 0.068,-0.234 0.015,-0.0544 0.031,-0.1084 0.045,-0.1631 0.018,-0.0695 0.034,-0.1395 0.051,-0.2094 0.015,-0.0644 0.03,-0.1287 0.044,-0.1936 0.013,-0.0605 0.023,-0.1211 0.035,-0.1818 0.014,-0.075 0.028,-0.1498 0.04,-0.2251 0.008,-0.0515 0.015,-0.1033 0.022,-0.1547 0.012,-0.085 0.024,-0.1698 0.034,-0.255 0.005,-0.0433 0.008,-0.087 0.012,-0.1303 0.009,-0.0933 0.018,-0.1867 0.023,-0.2803 0.003,-0.0371 0.004,-0.0742 0.006,-0.1112 0.005,-0.0998 0.009,-0.1994 0.01,-0.2995 0.001,-0.033 0,-0.0661 0,-0.0991 0.001,-0.1036 0,-0.2069 -0.003,-0.3103 z M 46.049776,87.6599 c -0.0058,-0.0079 -0.012,-0.0152 -0.0178,-0.0229 -0.0449,-0.0605 -0.0924,-0.1198 -0.1393,-0.1795 -0.0449,-0.0573 -0.0892,-0.1151 -0.1352,-0.1709 -0.0066,-0.008 -0.0124,-0.0162 -0.019,-0.024 -0.0244,-0.0292 -2.5171,-3.1426 -4.3531,-8.0347 -2.4622,-6.561 -2.5359,-12.9646 -0.2192,-19.0327 1.8292,-4.7917 6.0328,-8.7235 12.8587,-13.2093 10.8239,-4.7009 17.0888,-1.8591 19.1694,-0.915 3.7787,1.714 7.0644,4.5619 9.9281,7.6139 l -21.1445,12.175 c -0.0202,0.0113 -0.04,0.0231 -0.0601,0.0347 l -0.0352,0.0202 c -0.0202,0.0116 -0.0394,0.0245 -0.0596,0.0363 -0.0935,0.0552 -0.1866,0.1109 -0.2786,0.1701 -0.0557,0.0356 -0.1097,0.073 -0.1643,0.1098 -0.0578,0.0391 -0.1158,0.0773 -0.1729,0.118 -0.086,0.0609 -0.1694,0.1243 -0.2526,0.1881 -0.021,0.0162 -0.0427,0.0309 -0.0637,0.0474 -0.0047,0.0037 -0.0091,0.0077 -0.0138,0.0114 -0.103,0.081 -0.2035,0.1645 -0.3021,0.2498 -0.0072,0.0062 -0.0147,0.0122 -0.0218,0.0184 -0.1046,0.0911 -0.2064,0.1845 -0.3058,0.28 -0.0027,0.0026 -0.0055,0.0051 -0.0082,0.0078 -0.0959,0.0925 -0.1892,0.1872 -0.28,0.2837 -0.0067,0.007 -0.0137,0.0139 -0.0204,0.021 -0.0811,0.0867 -0.1594,0.1752 -0.2364,0.2649 -0.0157,0.0183 -0.0323,0.0361 -0.0479,0.0546 -0.0621,0.0736 -0.1215,0.1489 -0.1808,0.2243 -0.0286,0.0361 -0.0583,0.0715 -0.0861,0.1082 -0.041,0.0538 -0.0796,0.1092 -0.1192,0.1639 -0.0432,0.0596 -0.0872,0.1186 -0.1287,0.1792 -0.0194,0.0282 -0.0373,0.0573 -0.0563,0.0859 -0.5928,0.8878 -1.0076,1.8707 -1.2333,2.8933 -0.013,0.0581 -0.023,0.1167 -0.0347,0.175 -0.0144,0.0724 -0.0301,0.1444 -0.0426,0.2171 -0.1612,0.928 -0.17,1.8857 -0.017,2.8329 0,0 5e-4,0.0038 8e-4,0.0058 0.0162,0.0996 0.0358,0.199 0.0557,0.2985 0.0076,0.0385 0.0139,0.0772 0.0221,0.1157 0.0144,0.0674 0.0315,0.1344 0.0477,0.2017 0.0169,0.0706 0.0327,0.1414 0.0513,0.2117 0.0107,0.0401 0.0233,0.0797 0.0345,0.1198 0.0274,0.0972 0.0551,0.1944 0.0861,0.291 0.006,0.0187 0.0129,0.0373 0.0191,0.056 0.0384,0.1172 0.0788,0.2339 0.1225,0.3498 0.0016,0.0044 0.0036,0.0089 0.0053,0.0133 0.099,0.2612 0.2115,0.519 0.3375,0.7722 0.0024,0.0049 0.005,0.0096 0.0074,0.0143 0.0604,0.121 0.1238,0.241 0.1904,0.3597 0.0025,0.0046 0.0046,0.0089 0.0072,0.0135 0.0057,0.0101 0.0122,0.0195 0.0179,0.0296 0.0775,0.1361 0.1595,0.2705 0.2452,0.4035 0.0272,0.0425 0.0546,0.0846 0.0826,0.1263 0.0698,0.1044 0.1428,0.2074 0.218,0.3095 0.032,0.0437 0.0628,0.0886 0.0956,0.1315 l 0.0024,0.0033 39.2576,51.2305 -14.9213,9.114 -16.1689,-21.95 c -0.0034,-0.004 -0.0067,-0.009 -0.01,-0.013 z m 61.645194,73.9331 c -1.9088,6.577 -5.9769,10.388 -8.647494,12.275 -1.6609,0.926 -2.6797,1.49 -2.7286,1.518 -0.112,0.062 -0.2214,0.127 -0.3295,0.194 -3.0239,1.221 -7.8321,2.037 -13.3806,0.982 -3.8516,-0.732 -7.6706,-2.282 -11.3505,-4.607 -4.489,-2.836 -8.7948,-6.842 -12.7976,-11.906 l -14.6524,-18.785 14.7639,-8.23 16.2759,22.095 c 0.0289,0.039 0.0603,0.076 0.09,0.115 0.0573,0.075 0.1152,0.15 0.1747,0.222 0.0509,0.063 0.1032,0.123 0.1556,0.184 0.0642,0.074 0.1282,0.148 0.1945,0.22 0.0541,0.058 0.1099,0.114 0.1653,0.17 0.0666,0.068 0.1325,0.136 0.2011,0.202 0.0637,0.06 0.1297,0.118 0.195,0.176 0.0628,0.056 0.1245,0.114 0.1888,0.168 0.0958,0.081 0.1944,0.157 0.2932,0.233 0.0363,0.028 0.0712,0.058 0.1081,0.085 0.14,0.104 0.2827,0.202 0.4279,0.297 0.0219,0.014 0.0448,0.026 0.0668,0.04 0.1241,0.079 0.2495,0.155 0.3769,0.227 0.0386,0.022 0.0782,0.041 0.117,0.062 0.1121,0.061 0.2248,0.121 0.3391,0.176 0.0474,0.023 0.0954,0.044 0.1431,0.066 0.1072,0.049 0.2148,0.097 0.3237,0.142 0.0539,0.022 0.1083,0.043 0.1625,0.064 0.1038,0.04 0.208,0.078 0.313,0.114 0.0598,0.021 0.1197,0.04 0.1798,0.059 0.1002,0.032 0.2009,0.061 0.3023,0.089 0.0653,0.018 0.1307,0.036 0.1966,0.052 0.0964,0.024 0.1933,0.046 0.2904,0.066 0.0707,0.015 0.1413,0.03 0.2124,0.043 0.0926,0.017 0.1856,0.031 0.2788,0.045 0.0756,0.012 0.1509,0.024 0.2268,0.033 0.0888,0.011 0.1778,0.018 0.2668,0.026 0.0801,0.007 0.1599,0.016 0.2404,0.021 0.0847,0.005 0.1696,0.005 0.2544,0.008 0.08,0.002 0.1598,0.007 0.24,0.007 0.2136,0 0.4276,-0.009 0.6415,-0.025 0.0092,-0.001 0.0185,-0.002 0.0276,-0.003 0.0952,-0.008 0.1901,-0.017 0.2852,-0.028 0.0151,-0.002 0.0304,-0.004 0.0454,-0.005 0.0913,-0.012 0.1823,-0.024 0.2733,-0.038 0.015,-0.003 0.0302,-0.005 0.0452,-0.007 0.0983,-0.016 0.1964,-0.034 0.2943,-0.053 0.006,-0.002 0.0122,-0.002 0.0183,-0.004 0.1049,-0.021 0.2098,-0.044 0.3144,-0.069 0.0141,-0.004 0.0283,-0.008 0.0425,-0.011 0.0834,-0.021 0.1666,-0.043 0.2497,-0.066 0.0424,-0.012 0.0845,-0.025 0.1267,-0.038 0.0538,-0.016 0.1077,-0.032 0.1614,-0.05 0.0515,-0.016 0.1029,-0.033 0.1541,-0.051 0.0429,-0.015 0.0857,-0.03 0.1285,-0.045 0.0575,-0.021 0.1147,-0.042 0.1719,-0.064 0.0336,-0.014 0.0672,-0.027 0.1007,-0.041 0.0642,-0.026 0.1283,-0.051 0.1919,-0.079 0.0177,-0.007 0.0351,-0.016 0.0527,-0.023 0.2318,-0.102 0.4603,-0.216 0.6853,-0.34 0.0222,-0.013 0.0447,-0.025 0.0669,-0.037 0.056,-0.032 0.1114,-0.065 0.1667,-0.098 0.0256,-0.016 0.0515,-0.03 0.0769,-0.045 L 107.01667,144.42 c 1.9294,6.191 2.1744,12.017 0.6783,17.173 z m 47.9153,-38.539 c 0.028,5.912 -1.732,10.42 -3.638,14.411 -3.329,6.974 -11.673,12.144 -19.742,17.143 -1.102,0.684 -2.243,1.39 -3.346,2.087 -1.009,0.638 -2.262,1.401 -3.684,2.249 0.819,-8.147 -0.432,-18.945 -7.3707,-31.713 -0.0725,-0.134 -0.1485,-0.268 -0.2287,-0.399 -0.003,-0.005 -0.006,-0.01 -0.009,-0.015 -0.0361,-0.059 -0.0752,-0.117 -0.1132,-0.176 -0.1283,-0.198 -0.2627,-0.391 -0.4047,-0.575 l -38.503594,-50.2474 15.0846,-8.6857 20.608594,27.6118 c 0.008,0.0104 0.0163,0.02 0.0241,0.0303 0.0612,0.0815 0.1253,0.1595 0.1891,0.2382 0.048,0.0592 0.0955,0.1191 0.1447,0.1767 0.0663,0.0775 0.1347,0.1524 0.2034,0.227 0.0524,0.057 0.1048,0.1136 0.1583,0.1686 0.0667,0.0686 0.1346,0.1356 0.2032,0.2015 0.0614,0.0589 0.1234,0.1168 0.1862,0.1736 0.0639,0.0577 0.1283,0.1147 0.1938,0.1703 0.0741,0.063 0.1496,0.124 0.2255,0.184 0.0579,0.0456 0.1151,0.0915 0.1737,0.1355 0.0934,0.07 0.1885,0.1364 0.2843,0.2021 0.045,0.0307 0.0889,0.0628 0.1344,0.0927 0.1344,0.0884 0.2711,0.1726 0.4095,0.2524 0.009,0.0053 0.018,0.0113 0.0271,0.0165 0.3086,0.1764 0.6265,0.3315 0.9518,0.4659 0.0315,0.0131 0.0634,0.0243 0.095,0.037 0.127,0.0509 0.2547,0.0991 0.3838,0.1434 0.0491,0.0169 0.0987,0.0322 0.1482,0.0481 0.112,0.0361 0.2245,0.0704 0.3379,0.1018 0.0597,0.0166 0.1197,0.0319 0.1798,0.0472 0.1034,0.0262 0.2074,0.0502 0.3118,0.0724 0.0675,0.0143 0.1351,0.0283 0.2031,0.0411 0.0973,0.0179 0.1952,0.0335 0.2932,0.0482 0.0735,0.0111 0.1468,0.0226 0.2206,0.0317 0.0933,0.0114 0.187,0.0195 0.2809,0.0277 0.0774,0.0069 0.1546,0.0153 0.2323,0.02 0.0964,0.0057 0.1931,0.0071 0.2901,0.0093 0.069,0.0019 0.138,0.0069 0.208,0.0069 0.025,0 0.05,-0.0022 0.075,-0.0024 0.123,-0.0012 0.245,-0.0053 0.367,-0.012 0.052,-0.0026 0.104,-0.0054 0.156,-0.0092 0.141,-0.0102 0.282,-0.0237 0.422,-0.0412 0.043,-0.0053 0.086,-0.012 0.129,-0.0181 0.128,-0.0177 0.255,-0.0385 0.382,-0.0623 0.03,-0.0057 0.059,-0.0104 0.089,-0.0164 0.154,-0.0307 0.306,-0.0668 0.458,-0.1064 0.031,-0.0079 0.061,-0.016 0.092,-0.0243 0.16,-0.0436 0.32,-0.0912 0.478,-0.1449 0.171,-0.0578 0.341,-0.1224 0.509,-0.1917 0.004,-0.0019 0.009,-0.0036 0.013,-0.0055 0.167,-0.0692 0.332,-0.1447 0.495,-0.2254 0.008,-0.0036 0.015,-0.0075 0.023,-0.0113 0.174,-0.0869 0.346,-0.1795 0.516,-0.2799 l 15.431,-8.997 6.25,10.0912 0.033,0.0525 c 5.761,9.1505 8.699,17.5425 8.735,24.9435 z M 123.17627,78.5483 99.814676,47.2485 c -0.0028,-0.0037 -0.0057,-0.0071 -0.0085,-0.0109 -0.0747,-0.0995 -0.1514,-0.1981 -0.2311,-0.2954 -0.0083,-0.01 -0.0175,-0.021 -0.0259,-0.0313 -0.002,-0.0024 -0.0039,-0.0048 -0.0059,-0.0073 -1.848,-2.2509 -4.6838,-5.5788 -8.0689,-8.6399 -3.2517,-2.9404 -6.5225,-5.23 -9.9563,-6.965 15.1685,-7.6333 25.731794,-9.7901 35.313194,-7.4343 13.594,3.3425 20.351,11.0073 25.284,16.6038 0.366,0.4157 0.721,0.8177 1.065,1.2035 2.808,3.1508 8.697,10.9797 13.418,17.3891 z"
     fill="#232b3a"
     id="path140" />
</svg>
