<?xml version="1.0" encoding="UTF-8" standalone="no"?>
<!-- Generator: Adobe Illustrator 26.5.0, SVG Export Plug-In . SVG Version: 6.00 Build 0)  -->

<svg
   version="1.1"
   id="Layer_1"
   x="0px"
   y="0px"
   viewBox="0 0 500 500.00001"
   xml:space="preserve"
   sodipodi:docname="steelhead.svg"
   width="500"
   height="500"
   inkscape:version="1.3.2 (091e20e, 2023-11-25)"
   xmlns:inkscape="http://www.inkscape.org/namespaces/inkscape"
   xmlns:sodipodi="http://sodipodi.sourceforge.net/DTD/sodipodi-0.dtd"
   xmlns="http://www.w3.org/2000/svg"
   xmlns:svg="http://www.w3.org/2000/svg"><defs
   id="defs1" /><sodipodi:namedview
   id="namedview1"
   pagecolor="#ffffff"
   bordercolor="#666666"
   borderopacity="1.0"
   inkscape:showpageshadow="2"
   inkscape:pageopacity="0.0"
   inkscape:pagecheckerboard="0"
   inkscape:deskcolor="#d1d1d1"
   inkscape:zoom="1.2250317"
   inkscape:cx="360.39883"
   inkscape:cy="298.35962"
   inkscape:window-width="1920"
   inkscape:window-height="2024"
   inkscape:window-x="1920"
   inkscape:window-y="25"
   inkscape:window-maximized="0"
   inkscape:current-layer="Layer_1" />
<style
   type="text/css"
   id="style1">
	.st0{fill:#FFFFFF;}
</style>
<rect
   style="fill:#c13c26;fill-opacity:1;fill-rule:evenodd;stroke:none;stroke-width:2.19521;stroke-linecap:round;stroke-linejoin:round;stroke-miterlimit:1"
   id="rect1"
   width="500"
   height="500"
   x="0"
   y="0" /><g
   id="g1"
   transform="translate(-110,-3.4149891)">
	
	
	<path
   id="logomark"
   class="st0"
   d="m 335.475,222.91544 c 0,13.5 -10.94,24.44 -24.44,24.44 -13.5,0 -24.45,-10.94 -24.45,-24.44 0,-13.5 10.94,-24.44 24.44,-24.44 13.5,0 24.45,10.94 24.45,24.44 m 208.17,-92.47 c -58.05,-11.2 -138.72,-2.64 -222.87,15.22 -133.15,28.26 -165.54,82.12 -131.84,94.66 32.46,12.07 173.06,68.15 124.67,76.22 -63.55,10.59 -128.32,-26.7 -137.25,-34.41 5.4,23.45 105.47,105.3 162.51,59.67 57.04,-45.63 -105.41,-97.35 -131.18,-106.55 -19.03,-6.79 36.02,-38.95 109.86,-59.17 18.49,-5.06 39,-10.15 60.06,-15.02 31.43,32.64 79.76,117.07 45.66,220.35 61.51,-93.02 14.82,-196.76 -15.09,-227.17 54.21,-11.69 107.47,-21.08 135.47,-23.8" />
</g>
</svg>
