<?xml version="1.0" standalone="no"?>
<!DOCTYPE svg PUBLIC "-//W3C//DTD SVG 20010904//EN"
 "http://www.w3.org/TR/2001/REC-SVG-20010904/DTD/svg10.dtd">
<svg version="1.0" xmlns="http://www.w3.org/2000/svg"
 width="115.000000pt" height="115.000000pt" viewBox="0 0 115.000000 115.000000"
 preserveAspectRatio="xMidYMid meet">

<g transform="translate(0.000000,115.000000) scale(0.100000,-0.100000)"
fill="#000000" stroke="none">
<path d="M429 1036 c-96 -28 -202 -104 -253 -180 -201 -303 -28 -705 327 -757
342 -50 621 253 542 589 -23 97 -66 171 -137 237 -134 124 -303 164 -479 111z
m269 -71 c72 -22 171 -92 208 -147 123 -182 87 -442 -78 -564 -158 -116 -365
-111 -521 12 -48 37 -66 60 -95 122 -35 74 -37 82 -37 182 0 88 4 115 25 168
41 104 110 169 230 219 67 27 189 31 268 8z"/>
<path d="M371 624 c-28 -35 -26 -69 4 -99 24 -24 57 -31 90 -19 24 10 46 60
39 89 -14 57 -97 75 -133 29z"/>
<path d="M663 624 c-20 -20 -24 -31 -19 -57 18 -94 150 -87 150 8 0 71 -79
101 -131 49z"/>
</g>
</svg>
